<?xml version="1.0" encoding="UTF-8" standalone="no"?>
<!-- Created with Inkscape (http://www.inkscape.org/) -->

<svg
   width="47.270863mm"
   height="32.795841mm"
   viewBox="0 0 47.270863 32.795841"
   version="1.1"
   id="svg11203"
   inkscape:version="1.2.1 (9c6d41e, 2022-07-14)"
   sodipodi:docname="ctlpp.svg"
   xmlns:inkscape="http://www.inkscape.org/namespaces/inkscape"
   xmlns:sodipodi="http://sodipodi.sourceforge.net/DTD/sodipodi-0.dtd"
   xmlns="http://www.w3.org/2000/svg"
   xmlns:svg="http://www.w3.org/2000/svg">
  <sodipodi:namedview
     id="namedview11205"
     pagecolor="#ffffff"
     bordercolor="#666666"
     borderopacity="1.0"
     inkscape:showpageshadow="2"
     inkscape:pageopacity="0.0"
     inkscape:pagecheckerboard="0"
     inkscape:deskcolor="#d1d1d1"
     inkscape:document-units="mm"
     showgrid="false"
     inkscape:zoom="5.0583776"
     inkscape:cx="47.940272"
     inkscape:cy="61.976393"
     inkscape:window-width="1440"
     inkscape:window-height="847"
     inkscape:window-x="0"
     inkscape:window-y="25"
     inkscape:window-maximized="1"
     inkscape:current-layer="layer1" />
  <defs
     id="defs11200" />
  <g
     inkscape:label="Layer 1"
     inkscape:groupmode="layer"
     id="layer1"
     transform="translate(-80.817957,-132.73132)">
    <path
       fill="none"
       stroke-width="0.140582"
       stroke-linecap="butt"
       stroke-linejoin="miter"
       stroke="#000000"
       stroke-opacity="1"
       stroke-miterlimit="10"
       d="m 84.863888,148.83084 h -3.97564 v 3.06613 h 3.97564 z m 0,0"
       id="path7116" />
    <g
       fill="#000000"
       fill-opacity="1"
       id="g7122"
       transform="matrix(0.35277777,0,0,0.35277777,-42.046537,105.50118)">
      <g
         id="use7118"
         transform="translate(350.65799,129.26601)">
        <path
           d="m 0.75,-0.71875 c 0,0.5 -0.078125,0.578125 -0.625,0.59375 V 0 H 2.0625 V -0.125 C 1.53125,-0.140625 1.421875,-0.234375 1.421875,-0.71875 V -3.625 c 0,-0.46875 0.09375,-0.5625 0.640625,-0.578125 v -0.125 H 0.125 v 0.125 c 0.546875,0.03125 0.625,0.09375 0.625,0.578125 z m 0,0"
           id="path11557" />
      </g>
      <g
         id="use7120"
         transform="translate(352.83765,129.26601)">
        <path
           d="M 4,0.078125 V -3.375 C 4,-3.765625 4.078125,-4 4.203125,-4.09375 4.28125,-4.15625 4.375,-4.1875 4.625,-4.203125 v -0.125 H 3.09375 v 0.125 c 0.25,0.015625 0.34375,0.046875 0.4375,0.09375 0.125,0.09375 0.1875,0.328125 0.1875,0.734375 v 2.203125 l -2.515625,-3.15625 h -1.125 v 0.125 c 0.28125,0 0.375,0.046875 0.640625,0.359375 v 2.875 c 0,0.6875 -0.09375,0.8125 -0.640625,0.84375 V 0 h 1.53125 V -0.125 C 1.109375,-0.15625 1,-0.296875 1,-0.96875 v -2.5625 l 2.890625,3.609375 z m 0,0"
           id="path11553" />
      </g>
    </g>
    <path
       fill="none"
       stroke-width="0.140582"
       stroke-linecap="butt"
       stroke-linejoin="miter"
       stroke="#ffffff"
       stroke-opacity="1"
       stroke-miterlimit="10"
       d="m 90.625465,150.36322 c 0,-0.96601 -0.782725,-1.74873 -1.74873,-1.74873 -0.967383,0 -1.750109,0.78272 -1.750109,1.74873 0,0.966 0.782726,1.7501 1.750109,1.7501 0.966005,0 1.74873,-0.7841 1.74873,-1.7501 z m 0,0"
       id="path7124" />
    <g
       fill="#000000"
       fill-opacity="1"
       id="g7128"
       transform="matrix(0.35277777,0,0,0.35277777,-42.046537,105.50118)">
      <g
         id="use7126"
         transform="translate(369.974,128.668)">
        <path
           d="m 1.140625,-3.046875 c -0.5,0 -0.875,0.390625 -0.875,0.875 0,0.5 0.390625,0.890625 0.875,0.890625 0.484375,0 0.890625,-0.40625 0.890625,-0.875 0,-0.5 -0.390625,-0.890625 -0.890625,-0.890625 z m 0,0"
           id="path11545" />
      </g>
    </g>
    <path
       fill="none"
       stroke-width="0.140582"
       stroke-linecap="butt"
       stroke-linejoin="miter"
       stroke="#000000"
       stroke-opacity="1"
       stroke-miterlimit="10"
       d="m 98.036555,144.36324 c 0,-1.7446 -1.415245,-3.15984 -3.159842,-3.15984 -1.745974,0 -3.161219,1.41524 -3.161219,3.15984 0,1.74597 1.415245,3.16122 3.161219,3.16122 1.744597,0 3.159842,-1.41525 3.159842,-3.16122 z m 0,0"
       id="path7130" />
    <g
       fill="#000000"
       fill-opacity="1"
       id="g7134"
       transform="matrix(0.35277777,0,0,0.35277777,-42.046537,105.50118)">
      <g
         id="use7132"
         transform="translate(382.785,111.906)">
        <path
           d="m 4.96875,-4.546875 c 0,-0.015625 0,-0.0625 -0.0625,-0.0625 -0.015625,0 -0.03125,0 -0.09375,0.078125 l -0.46875,0.5 C 4.28125,-4.125 3.984375,-4.609375 3.265625,-4.609375 c -1.46875,0 -2.9375,1.4375 -2.9375,2.953125 0,1.046875 0.71875,1.796875 1.78125,1.796875 0.296875,0 0.59375,-0.0625 0.828125,-0.15625 C 3.265625,-0.140625 3.390625,-0.28125 3.5,-0.40625 3.5625,-0.25 3.734375,0 3.796875,0 3.828125,0 3.84375,-0.03125 3.84375,-0.03125 3.859375,-0.046875 3.921875,-0.296875 3.953125,-0.4375 l 0.125,-0.5 c 0.03125,-0.109375 0.0625,-0.21875 0.078125,-0.328125 0.078125,-0.296875 0.09375,-0.3125 0.453125,-0.3125 0.03125,0 0.109375,-0.015625 0.109375,-0.140625 0,-0.046875 -0.03125,-0.0625 -0.078125,-0.0625 -0.15625,0 -0.546875,0.015625 -0.6875,0.015625 -0.203125,0 -0.71875,-0.015625 -0.921875,-0.015625 -0.0625,0 -0.140625,0 -0.140625,0.125 0,0.078125 0.0625,0.078125 0.203125,0.078125 0,0 0.1875,0 0.34375,0 0.171875,0.03125 0.203125,0.046875 0.203125,0.125 0,0.0625 -0.078125,0.359375 -0.140625,0.609375 -0.1875,0.71875 -1.03125,0.78125 -1.265625,0.78125 -0.625,0 -1.3125,-0.375 -1.3125,-1.375 0,-0.203125 0.0625,-1.28125 0.75,-2.125 0.359375,-0.453125 1,-0.84375 1.640625,-0.84375 0.671875,0 1.046875,0.5 1.046875,1.25 0,0.265625 -0.015625,0.28125 -0.015625,0.34375 0,0.0625 0.078125,0.0625 0.109375,0.0625 0.078125,0 0.078125,-0.015625 0.109375,-0.125 z m 0,0"
           id="path11513" />
      </g>
    </g>
    <g
       fill="#000000"
       fill-opacity="1"
       id="g7138"
       transform="matrix(0.35277777,0,0,0.35277777,-42.046537,105.50118)">
      <g
         id="use7136"
         transform="translate(387.93121,112.8876)">
        <path
           d="m 1.875,-1.828125 c -0.046875,-0.078125 -0.1875,-0.28125 -0.46875,-0.28125 -0.578125,0 -1.203125,0.671875 -1.203125,1.375 0,0.5 0.328125,0.78125 0.6875,0.78125 0.3125,0 0.578125,-0.25 0.65625,-0.34375 0.09375,0.328125 0.40625,0.34375 0.46875,0.34375 0.21875,0 0.328125,-0.1875 0.375,-0.265625 0.09375,-0.171875 0.15625,-0.453125 0.15625,-0.46875 0,-0.03125 -0.015625,-0.0625 -0.078125,-0.0625 -0.046875,0 -0.0625,0.03125 -0.09375,0.15625 -0.0625,0.265625 -0.15625,0.5 -0.34375,0.5 -0.109375,0 -0.15625,-0.078125 -0.15625,-0.21875 0,-0.078125 0.046875,-0.234375 0.078125,-0.359375 0.03125,-0.125 0.09375,-0.40625 0.109375,-0.5 L 2.171875,-1.53125 C 2.1875,-1.640625 2.25,-1.84375 2.25,-1.875 c 0,-0.109375 -0.09375,-0.140625 -0.15625,-0.140625 -0.078125,0 -0.203125,0.046875 -0.21875,0.1875 z m -0.328125,1.3125 C 1.3125,-0.1875 1.0625,-0.09375 0.90625,-0.09375 c -0.21875,0 -0.328125,-0.1875 -0.328125,-0.4375 0,-0.234375 0.125,-0.734375 0.234375,-0.953125 0.140625,-0.296875 0.375,-0.484375 0.59375,-0.484375 0.3125,0 0.40625,0.34375 0.40625,0.40625 0,0.015625 -0.125,0.484375 -0.15625,0.609375 -0.0625,0.21875 -0.0625,0.234375 -0.109375,0.4375 z m 0,0"
           id="path11505" />
      </g>
    </g>
    <g
       fill="#000000"
       fill-opacity="1"
       id="g7142"
       transform="matrix(0.35277777,0,0,0.35277777,-42.046537,105.50118)">
      <g
         id="use7140"
         transform="translate(390.63,112.8876)">
        <path
           d="m 1.5,-3.046875 c 0,-0.125 -0.015625,-0.125 -0.140625,-0.125 -0.1875,0.1875 -0.453125,0.296875 -0.90625,0.296875 v 0.15625 c 0.140625,0 0.390625,0 0.671875,-0.125 v 2.453125 c 0,0.171875 -0.015625,0.234375 -0.46875,0.234375 H 0.484375 V 0 C 0.6875,-0.015625 1.09375,-0.015625 1.3125,-0.015625 c 0.21875,0 0.625,0 0.828125,0.015625 V -0.15625 H 1.96875 C 1.515625,-0.15625 1.5,-0.21875 1.5,-0.390625 Z m 0,0"
           id="path11485" />
      </g>
    </g>
    <path
       fill="none"
       stroke-width="0.140582"
       stroke-linecap="butt"
       stroke-linejoin="miter"
       stroke="#000000"
       stroke-opacity="1"
       stroke-miterlimit="10"
       d="m 97.969031,156.36319 c 0,-1.70738 -1.384929,-3.09231 -3.092318,-3.09231 -1.708767,0 -3.093696,1.38493 -3.093696,3.09231 0,1.70877 1.384929,3.0937 3.093696,3.0937 1.707389,0 3.092318,-1.38493 3.092318,-3.0937 z m 0,0"
       id="path7144" />
    <g
       fill="#000000"
       fill-opacity="1"
       id="g7148"
       transform="matrix(0.35277777,0,0,0.35277777,-42.046537,105.50118)">
      <g
         id="use7146"
         transform="translate(383.048,145.88)">
        <path
           d="m 4.96875,-4.546875 c 0,-0.015625 0,-0.0625 -0.0625,-0.0625 -0.015625,0 -0.03125,0 -0.09375,0.078125 l -0.46875,0.5 C 4.28125,-4.125 3.984375,-4.609375 3.265625,-4.609375 c -1.46875,0 -2.9375,1.4375 -2.9375,2.953125 0,1.046875 0.71875,1.796875 1.78125,1.796875 0.296875,0 0.59375,-0.0625 0.828125,-0.15625 C 3.265625,-0.140625 3.390625,-0.28125 3.5,-0.40625 3.5625,-0.25 3.734375,0 3.796875,0 3.828125,0 3.84375,-0.03125 3.84375,-0.03125 3.859375,-0.046875 3.921875,-0.296875 3.953125,-0.4375 l 0.125,-0.5 c 0.03125,-0.109375 0.0625,-0.21875 0.078125,-0.328125 0.078125,-0.296875 0.09375,-0.3125 0.453125,-0.3125 0.03125,0 0.109375,-0.015625 0.109375,-0.140625 0,-0.046875 -0.03125,-0.0625 -0.078125,-0.0625 -0.15625,0 -0.546875,0.015625 -0.6875,0.015625 -0.203125,0 -0.71875,-0.015625 -0.921875,-0.015625 -0.0625,0 -0.140625,0 -0.140625,0.125 0,0.078125 0.0625,0.078125 0.203125,0.078125 0,0 0.1875,0 0.34375,0 0.171875,0.03125 0.203125,0.046875 0.203125,0.125 0,0.0625 -0.078125,0.359375 -0.140625,0.609375 -0.1875,0.71875 -1.03125,0.78125 -1.265625,0.78125 -0.625,0 -1.3125,-0.375 -1.3125,-1.375 0,-0.203125 0.0625,-1.28125 0.75,-2.125 0.359375,-0.453125 1,-0.84375 1.640625,-0.84375 0.671875,0 1.046875,0.5 1.046875,1.25 0,0.265625 -0.015625,0.28125 -0.015625,0.34375 0,0.0625 0.078125,0.0625 0.109375,0.0625 0.078125,0 0.078125,-0.015625 0.109375,-0.125 z m 0,0"
           id="path11517" />
      </g>
    </g>
    <g
       fill="#000000"
       fill-opacity="1"
       id="g7152"
       transform="matrix(0.35277777,0,0,0.35277777,-42.046537,105.50118)">
      <g
         id="use7150"
         transform="translate(388.19421,146.9462)">
        <path
           d="M 1.171875,-3.171875 C 1.171875,-3.1875 1.1875,-3.25 1.1875,-3.25 c 0,-0.03125 -0.015625,-0.0625 -0.078125,-0.0625 -0.015625,0 -0.171875,0.015625 -0.28125,0.015625 L 0.5625,-3.28125 c -0.109375,0.015625 -0.15625,0.015625 -0.15625,0.109375 0,0.0625 0.078125,0.0625 0.125,0.0625 0.234375,0 0.234375,0.03125 0.234375,0.078125 0,0.03125 -0.046875,0.21875 -0.078125,0.328125 l -0.421875,1.65625 c -0.03125,0.171875 -0.03125,0.234375 -0.03125,0.3125 0,0.5 0.296875,0.78125 0.671875,0.78125 0.578125,0 1.203125,-0.671875 1.203125,-1.375 0,-0.46875 -0.3125,-0.78125 -0.6875,-0.78125 -0.28125,0 -0.484375,0.171875 -0.578125,0.265625 z M 0.90625,-0.09375 c -0.171875,0 -0.34375,-0.125 -0.34375,-0.46875 0,-0.140625 0.015625,-0.25 0.078125,-0.484375 0.03125,-0.140625 0.0625,-0.265625 0.09375,-0.40625 0.03125,-0.09375 0.03125,-0.09375 0.09375,-0.171875 0.15625,-0.203125 0.375,-0.34375 0.578125,-0.34375 0.234375,0 0.328125,0.234375 0.328125,0.4375 0,0.1875 -0.109375,0.6875 -0.25,0.984375 -0.125,0.25 -0.359375,0.453125 -0.578125,0.453125 z m 0,0"
           id="path11497" />
      </g>
    </g>
    <g
       fill="#000000"
       fill-opacity="1"
       id="g7156"
       transform="matrix(0.35277777,0,0,0.35277777,-42.046537,105.50118)">
      <g
         id="use7154"
         transform="translate(390.3674,146.9462)">
        <path
           d="m 1.5,-3.046875 c 0,-0.125 -0.015625,-0.125 -0.140625,-0.125 -0.1875,0.1875 -0.453125,0.296875 -0.90625,0.296875 v 0.15625 c 0.140625,0 0.390625,0 0.671875,-0.125 v 2.453125 c 0,0.171875 -0.015625,0.234375 -0.46875,0.234375 H 0.484375 V 0 C 0.6875,-0.015625 1.09375,-0.015625 1.3125,-0.015625 c 0.21875,0 0.625,0 0.828125,0.015625 V -0.15625 H 1.96875 C 1.515625,-0.15625 1.5,-0.21875 1.5,-0.390625 Z m 0,0"
           id="path11489" />
      </g>
    </g>
    <path
       fill="none"
       stroke-width="0.140582"
       stroke-linecap="butt"
       stroke-linejoin="miter"
       stroke="#000000"
       stroke-opacity="1"
       stroke-miterlimit="10"
       d="m 110.03651,138.36326 c 0,-1.74597 -1.41387,-3.15984 -3.15984,-3.15984 -1.74597,0 -3.16122,1.41387 -3.16122,3.15984 0,1.74597 1.41525,3.15984 3.16122,3.15984 1.74597,0 3.15984,-1.41387 3.15984,-3.15984 z m 0,0"
       id="path7158" />
    <g
       fill="#000000"
       fill-opacity="1"
       id="g7162"
       transform="matrix(0.35277777,0,0,0.35277777,-42.046537,105.50118)">
      <g
         id="use7160"
         transform="translate(416.80099,94.898003)">
        <path
           d="m 4.96875,-4.546875 c 0,-0.015625 0,-0.0625 -0.0625,-0.0625 -0.015625,0 -0.03125,0 -0.09375,0.078125 l -0.46875,0.5 C 4.28125,-4.125 3.984375,-4.609375 3.265625,-4.609375 c -1.46875,0 -2.9375,1.4375 -2.9375,2.953125 0,1.046875 0.71875,1.796875 1.78125,1.796875 0.296875,0 0.59375,-0.0625 0.828125,-0.15625 C 3.265625,-0.140625 3.390625,-0.28125 3.5,-0.40625 3.5625,-0.25 3.734375,0 3.796875,0 3.828125,0 3.84375,-0.03125 3.84375,-0.03125 3.859375,-0.046875 3.921875,-0.296875 3.953125,-0.4375 l 0.125,-0.5 c 0.03125,-0.109375 0.0625,-0.21875 0.078125,-0.328125 0.078125,-0.296875 0.09375,-0.3125 0.453125,-0.3125 0.03125,0 0.109375,-0.015625 0.109375,-0.140625 0,-0.046875 -0.03125,-0.0625 -0.078125,-0.0625 -0.15625,0 -0.546875,0.015625 -0.6875,0.015625 -0.203125,0 -0.71875,-0.015625 -0.921875,-0.015625 -0.0625,0 -0.140625,0 -0.140625,0.125 0,0.078125 0.0625,0.078125 0.203125,0.078125 0,0 0.1875,0 0.34375,0 0.171875,0.03125 0.203125,0.046875 0.203125,0.125 0,0.0625 -0.078125,0.359375 -0.140625,0.609375 -0.1875,0.71875 -1.03125,0.78125 -1.265625,0.78125 -0.625,0 -1.3125,-0.375 -1.3125,-1.375 0,-0.203125 0.0625,-1.28125 0.75,-2.125 0.359375,-0.453125 1,-0.84375 1.640625,-0.84375 0.671875,0 1.046875,0.5 1.046875,1.25 0,0.265625 -0.015625,0.28125 -0.015625,0.34375 0,0.0625 0.078125,0.0625 0.109375,0.0625 0.078125,0 0.078125,-0.015625 0.109375,-0.125 z m 0,0"
           id="path11521" />
      </g>
    </g>
    <g
       fill="#000000"
       fill-opacity="1"
       id="g7166"
       transform="matrix(0.35277777,0,0,0.35277777,-42.046537,105.50118)">
      <g
         id="use7164"
         transform="translate(421.9472,95.879601)">
        <path
           d="m 1.875,-1.828125 c -0.046875,-0.078125 -0.1875,-0.28125 -0.46875,-0.28125 -0.578125,0 -1.203125,0.671875 -1.203125,1.375 0,0.5 0.328125,0.78125 0.6875,0.78125 0.3125,0 0.578125,-0.25 0.65625,-0.34375 0.09375,0.328125 0.40625,0.34375 0.46875,0.34375 0.21875,0 0.328125,-0.1875 0.375,-0.265625 0.09375,-0.171875 0.15625,-0.453125 0.15625,-0.46875 0,-0.03125 -0.015625,-0.0625 -0.078125,-0.0625 -0.046875,0 -0.0625,0.03125 -0.09375,0.15625 -0.0625,0.265625 -0.15625,0.5 -0.34375,0.5 -0.109375,0 -0.15625,-0.078125 -0.15625,-0.21875 0,-0.078125 0.046875,-0.234375 0.078125,-0.359375 0.03125,-0.125 0.09375,-0.40625 0.109375,-0.5 L 2.171875,-1.53125 C 2.1875,-1.640625 2.25,-1.84375 2.25,-1.875 c 0,-0.109375 -0.09375,-0.140625 -0.15625,-0.140625 -0.078125,0 -0.203125,0.046875 -0.21875,0.1875 z m -0.328125,1.3125 C 1.3125,-0.1875 1.0625,-0.09375 0.90625,-0.09375 c -0.21875,0 -0.328125,-0.1875 -0.328125,-0.4375 0,-0.234375 0.125,-0.734375 0.234375,-0.953125 0.140625,-0.296875 0.375,-0.484375 0.59375,-0.484375 0.3125,0 0.40625,0.34375 0.40625,0.40625 0,0.015625 -0.125,0.484375 -0.15625,0.609375 -0.0625,0.21875 -0.0625,0.234375 -0.109375,0.4375 z m 0,0"
           id="path11509" />
      </g>
    </g>
    <g
       fill="#000000"
       fill-opacity="1"
       id="g7170"
       transform="matrix(0.35277777,0,0,0.35277777,-42.046537,105.50118)">
      <g
         id="use7168"
         transform="translate(424.646,95.879601)">
        <path
           d="M 1.34375,-0.96875 C 1.421875,-1.046875 1.625,-1.203125 1.703125,-1.265625 2,-1.546875 2.28125,-1.8125 2.28125,-2.25 2.28125,-2.8125 1.796875,-3.171875 1.203125,-3.171875 0.625,-3.171875 0.25,-2.75 0.25,-2.3125 c 0,0.234375 0.1875,0.265625 0.25,0.265625 0.109375,0 0.25,-0.078125 0.25,-0.25 0,-0.25 -0.234375,-0.25 -0.296875,-0.25 0.140625,-0.359375 0.46875,-0.46875 0.703125,-0.46875 0.4375,0 0.671875,0.375 0.671875,0.765625 0,0.5 -0.34375,0.875 -0.921875,1.453125 L 0.3125,-0.1875 C 0.25,-0.125 0.25,-0.125 0.25,0 H 2.140625 L 2.28125,-0.859375 H 2.125 c 0,0.09375 -0.046875,0.34375 -0.109375,0.421875 C 2,-0.390625 1.625,-0.390625 1.546875,-0.390625 h -0.84375 z m 0,0"
           id="path11477" />
      </g>
    </g>
    <path
       fill="none"
       stroke-width="0.140582"
       stroke-linecap="butt"
       stroke-linejoin="miter"
       stroke="#000000"
       stroke-opacity="1"
       stroke-miterlimit="10"
       d="m 109.64515,150.36322 c 0,-1.52963 -1.23886,-2.76848 -2.76848,-2.76848 -1.52962,0 -2.76986,1.23885 -2.76986,2.76848 0,1.52962 1.24024,2.76985 2.76986,2.76985 1.52962,0 2.76848,-1.24023 2.76848,-2.76985 z m 0,0"
       id="path7172" />
    <g
       fill="#000000"
       fill-opacity="1"
       id="g7176"
       transform="matrix(0.35277777,0,0,0.35277777,-42.046537,105.50118)">
      <g
         id="use7174"
         transform="translate(418.19299,128.914)">
        <path
           d="m 4.96875,-4.546875 c 0,-0.015625 0,-0.0625 -0.0625,-0.0625 -0.015625,0 -0.03125,0 -0.09375,0.078125 l -0.46875,0.5 C 4.28125,-4.125 3.984375,-4.609375 3.265625,-4.609375 c -1.46875,0 -2.9375,1.4375 -2.9375,2.953125 0,1.046875 0.71875,1.796875 1.78125,1.796875 0.296875,0 0.59375,-0.0625 0.828125,-0.15625 C 3.265625,-0.140625 3.390625,-0.28125 3.5,-0.40625 3.5625,-0.25 3.734375,0 3.796875,0 3.828125,0 3.84375,-0.03125 3.84375,-0.03125 3.859375,-0.046875 3.921875,-0.296875 3.953125,-0.4375 l 0.125,-0.5 c 0.03125,-0.109375 0.0625,-0.21875 0.078125,-0.328125 0.078125,-0.296875 0.09375,-0.3125 0.453125,-0.3125 0.03125,0 0.109375,-0.015625 0.109375,-0.140625 0,-0.046875 -0.03125,-0.0625 -0.078125,-0.0625 -0.15625,0 -0.546875,0.015625 -0.6875,0.015625 -0.203125,0 -0.71875,-0.015625 -0.921875,-0.015625 -0.0625,0 -0.140625,0 -0.140625,0.125 0,0.078125 0.0625,0.078125 0.203125,0.078125 0,0 0.1875,0 0.34375,0 0.171875,0.03125 0.203125,0.046875 0.203125,0.125 0,0.0625 -0.078125,0.359375 -0.140625,0.609375 -0.1875,0.71875 -1.03125,0.78125 -1.265625,0.78125 -0.625,0 -1.3125,-0.375 -1.3125,-1.375 0,-0.203125 0.0625,-1.28125 0.75,-2.125 0.359375,-0.453125 1,-0.84375 1.640625,-0.84375 0.671875,0 1.046875,0.5 1.046875,1.25 0,0.265625 -0.015625,0.28125 -0.015625,0.34375 0,0.0625 0.078125,0.0625 0.109375,0.0625 0.078125,0 0.078125,-0.015625 0.109375,-0.125 z m 0,0"
           id="path11525" />
      </g>
    </g>
    <g
       fill="#000000"
       fill-opacity="1"
       id="g7180"
       transform="matrix(0.35277777,0,0,0.35277777,-42.046537,105.50118)">
      <g
         id="use7178"
         transform="translate(423.3392,129.8956)">
        <path
           d="m 2.375,-1.28125 c 0,-0.46875 -0.328125,-0.828125 -0.828125,-0.828125 -0.671875,0 -1.34375,0.65625 -1.34375,1.328125 0,0.484375 0.34375,0.828125 0.84375,0.828125 C 1.71875,0.046875 2.375,-0.625 2.375,-1.28125 Z m -1.328125,1.1875 c -0.171875,0 -0.453125,-0.078125 -0.453125,-0.515625 0,-0.203125 0.09375,-0.71875 0.328125,-1.015625 0.234375,-0.296875 0.5,-0.34375 0.625,-0.34375 C 1.734375,-1.96875 2,-1.859375 2,-1.453125 2,-1.265625 1.90625,-0.8125 1.71875,-0.515625 1.546875,-0.25 1.28125,-0.09375 1.046875,-0.09375 Z m 0,0"
           id="path11493" />
      </g>
    </g>
    <path
       fill="none"
       stroke-width="0.140582"
       stroke-linecap="butt"
       stroke-linejoin="miter"
       stroke="#000000"
       stroke-opacity="1"
       stroke-miterlimit="10"
       d="m 109.97037,162.36317 c 0,-1.70739 -1.38493,-3.09232 -3.0937,-3.09232 -1.70877,0 -3.0937,1.38493 -3.0937,3.09232 0,1.70877 1.38493,3.0937 3.0937,3.0937 1.70877,0 3.0937,-1.38493 3.0937,-3.0937 z m 0,0"
       id="path7182" />
    <g
       fill="#000000"
       fill-opacity="1"
       id="g7186"
       transform="matrix(0.35277777,0,0,0.35277777,-42.046537,105.50118)">
      <g
         id="use7184"
         transform="translate(417.064,162.888)">
        <path
           d="m 4.96875,-4.546875 c 0,-0.015625 0,-0.0625 -0.0625,-0.0625 -0.015625,0 -0.03125,0 -0.09375,0.078125 l -0.46875,0.5 C 4.28125,-4.125 3.984375,-4.609375 3.265625,-4.609375 c -1.46875,0 -2.9375,1.4375 -2.9375,2.953125 0,1.046875 0.71875,1.796875 1.78125,1.796875 0.296875,0 0.59375,-0.0625 0.828125,-0.15625 C 3.265625,-0.140625 3.390625,-0.28125 3.5,-0.40625 3.5625,-0.25 3.734375,0 3.796875,0 3.828125,0 3.84375,-0.03125 3.84375,-0.03125 3.859375,-0.046875 3.921875,-0.296875 3.953125,-0.4375 l 0.125,-0.5 c 0.03125,-0.109375 0.0625,-0.21875 0.078125,-0.328125 0.078125,-0.296875 0.09375,-0.3125 0.453125,-0.3125 0.03125,0 0.109375,-0.015625 0.109375,-0.140625 0,-0.046875 -0.03125,-0.0625 -0.078125,-0.0625 -0.15625,0 -0.546875,0.015625 -0.6875,0.015625 -0.203125,0 -0.71875,-0.015625 -0.921875,-0.015625 -0.0625,0 -0.140625,0 -0.140625,0.125 0,0.078125 0.0625,0.078125 0.203125,0.078125 0,0 0.1875,0 0.34375,0 0.171875,0.03125 0.203125,0.046875 0.203125,0.125 0,0.0625 -0.078125,0.359375 -0.140625,0.609375 -0.1875,0.71875 -1.03125,0.78125 -1.265625,0.78125 -0.625,0 -1.3125,-0.375 -1.3125,-1.375 0,-0.203125 0.0625,-1.28125 0.75,-2.125 0.359375,-0.453125 1,-0.84375 1.640625,-0.84375 0.671875,0 1.046875,0.5 1.046875,1.25 0,0.265625 -0.015625,0.28125 -0.015625,0.34375 0,0.0625 0.078125,0.0625 0.109375,0.0625 0.078125,0 0.078125,-0.015625 0.109375,-0.125 z m 0,0"
           id="path11529" />
      </g>
    </g>
    <g
       fill="#000000"
       fill-opacity="1"
       id="g7190"
       transform="matrix(0.35277777,0,0,0.35277777,-42.046537,105.50118)">
      <g
         id="use7188"
         transform="translate(422.21021,163.95419)">
        <path
           d="M 1.171875,-3.171875 C 1.171875,-3.1875 1.1875,-3.25 1.1875,-3.25 c 0,-0.03125 -0.015625,-0.0625 -0.078125,-0.0625 -0.015625,0 -0.171875,0.015625 -0.28125,0.015625 L 0.5625,-3.28125 c -0.109375,0.015625 -0.15625,0.015625 -0.15625,0.109375 0,0.0625 0.078125,0.0625 0.125,0.0625 0.234375,0 0.234375,0.03125 0.234375,0.078125 0,0.03125 -0.046875,0.21875 -0.078125,0.328125 l -0.421875,1.65625 c -0.03125,0.171875 -0.03125,0.234375 -0.03125,0.3125 0,0.5 0.296875,0.78125 0.671875,0.78125 0.578125,0 1.203125,-0.671875 1.203125,-1.375 0,-0.46875 -0.3125,-0.78125 -0.6875,-0.78125 -0.28125,0 -0.484375,0.171875 -0.578125,0.265625 z M 0.90625,-0.09375 c -0.171875,0 -0.34375,-0.125 -0.34375,-0.46875 0,-0.140625 0.015625,-0.25 0.078125,-0.484375 0.03125,-0.140625 0.0625,-0.265625 0.09375,-0.40625 0.03125,-0.09375 0.03125,-0.09375 0.09375,-0.171875 0.15625,-0.203125 0.375,-0.34375 0.578125,-0.34375 0.234375,0 0.328125,0.234375 0.328125,0.4375 0,0.1875 -0.109375,0.6875 -0.25,0.984375 -0.125,0.25 -0.359375,0.453125 -0.578125,0.453125 z m 0,0"
           id="path11501" />
      </g>
    </g>
    <g
       fill="#000000"
       fill-opacity="1"
       id="g7194"
       transform="matrix(0.35277777,0,0,0.35277777,-42.046537,105.50118)">
      <g
         id="use7192"
         transform="translate(424.38339,163.95419)">
        <path
           d="M 1.34375,-0.96875 C 1.421875,-1.046875 1.625,-1.203125 1.703125,-1.265625 2,-1.546875 2.28125,-1.8125 2.28125,-2.25 2.28125,-2.8125 1.796875,-3.171875 1.203125,-3.171875 0.625,-3.171875 0.25,-2.75 0.25,-2.3125 c 0,0.234375 0.1875,0.265625 0.25,0.265625 0.109375,0 0.25,-0.078125 0.25,-0.25 0,-0.25 -0.234375,-0.25 -0.296875,-0.25 0.140625,-0.359375 0.46875,-0.46875 0.703125,-0.46875 0.4375,0 0.671875,0.375 0.671875,0.765625 0,0.5 -0.34375,0.875 -0.921875,1.453125 L 0.3125,-0.1875 C 0.25,-0.125 0.25,-0.125 0.25,0 H 2.140625 L 2.28125,-0.859375 H 2.125 c 0,0.09375 -0.046875,0.34375 -0.109375,0.421875 C 2,-0.390625 1.625,-0.390625 1.546875,-0.390625 h -0.84375 z m 0,0"
           id="path11481" />
      </g>
    </g>
    <path
       fill="none"
       stroke-width="0.140582"
       stroke-linecap="butt"
       stroke-linejoin="miter"
       stroke="#ffffff"
       stroke-opacity="1"
       stroke-miterlimit="10"
       d="m 120.62673,150.36322 c 0,-0.96601 -0.7841,-1.74873 -1.7501,-1.74873 -0.96601,0 -1.74873,0.78272 -1.74873,1.74873 0,0.966 0.78272,1.7501 1.74873,1.7501 0.966,0 1.7501,-0.7841 1.7501,-1.7501 z m 0,0"
       id="path7196" />
    <g
       fill="#000000"
       fill-opacity="1"
       id="g7200"
       transform="matrix(0.35277777,0,0,0.35277777,-42.046537,105.50118)">
      <g
         id="use7198"
         transform="translate(455.01401,128.668)">
        <path
           d="m 1.140625,-3.046875 c -0.5,0 -0.875,0.390625 -0.875,0.875 0,0.5 0.390625,0.890625 0.875,0.890625 0.484375,0 0.890625,-0.40625 0.890625,-0.875 0,-0.5 -0.390625,-0.890625 -0.890625,-0.890625 z m 0,0"
           id="path11549" />
      </g>
    </g>
    <path
       fill="none"
       stroke-width="0.140582"
       stroke-linecap="butt"
       stroke-linejoin="miter"
       stroke="#000000"
       stroke-opacity="1"
       stroke-miterlimit="10"
       d="m 128.01853,148.79914 h -6.28385 v 3.12815 h 6.28385 z m 0,0"
       id="path7202" />
    <g
       fill="#000000"
       fill-opacity="1"
       id="g7210"
       transform="matrix(0.35277777,0,0,0.35277777,-42.046537,105.50118)">
      <g
         id="use7204"
         transform="translate(466.44199,129.355)">
        <path
           d="m 2.359375,-4.421875 c -1.25,0 -2.140625,0.9375 -2.140625,2.25 0,0.625 0.21875,1.21875 0.5625,1.59375 C 1.171875,-0.15625 1.75,0.09375 2.328125,0.09375 3.609375,0.09375 4.5,-0.828125 4.5,-2.140625 4.5,-2.78125 4.3125,-3.34375 3.953125,-3.734375 c -0.40625,-0.453125 -0.96875,-0.6875 -1.59375,-0.6875 z m 0,0.234375 c 0.3125,0 0.609375,0.109375 0.84375,0.328125 0.359375,0.3125 0.5625,0.9375 0.5625,1.71875 0,0.375 -0.09375,0.828125 -0.21875,1.171875 -0.0625,0.15625 -0.171875,0.328125 -0.328125,0.484375 -0.234375,0.21875 -0.515625,0.34375 -0.875,0.34375 -0.296875,0 -0.59375,-0.125 -0.8125,-0.328125 -0.34375,-0.296875 -0.5625,-0.953125 -0.5625,-1.6875 0,-0.671875 0.1875,-1.296875 0.453125,-1.609375 C 1.6875,-4.046875 2,-4.1875 2.359375,-4.1875 Z m 0,0"
           id="path11541" />
      </g>
      <g
         id="use7206"
         transform="translate(471.16782,129.355)">
        <path
           d="m 4,-3.375 c 0,-0.671875 0.078125,-0.765625 0.609375,-0.828125 v -0.125 H 3.09375 v 0.125 c 0.515625,0.03125 0.625,0.171875 0.625,0.828125 v 1.765625 c 0,0.453125 -0.046875,0.703125 -0.15625,0.890625 -0.171875,0.3125 -0.59375,0.515625 -1.09375,0.515625 -0.453125,0 -0.78125,-0.15625 -0.953125,-0.453125 C 1.390625,-0.875 1.34375,-1.109375 1.34375,-1.53125 V -3.625 c 0,-0.46875 0.078125,-0.53125 0.59375,-0.578125 v -0.125 H 0.09375 v 0.125 C 0.609375,-4.171875 0.6875,-4.09375 0.6875,-3.625 v 2.046875 c 0,1.140625 0.53125,1.671875 1.640625,1.671875 0.703125,0 1.203125,-0.234375 1.453125,-0.671875 C 3.9375,-0.859375 4,-1.15625 4,-1.65625 Z m 0,0"
           id="path11537" />
      </g>
      <g
         id="use7208"
         transform="translate(475.89365,129.355)">
        <path
           d="m 1.65625,-4.0625 v 3.28125 c 0,0.546875 -0.0625,0.625 -0.609375,0.65625 V 0 h 1.90625 v -0.125 c -0.53125,-0.03125 -0.625,-0.109375 -0.625,-0.59375 V -4.0625 H 2.6875 c 0.75,0 0.890625,0.125 1.03125,0.84375 H 3.875 L 3.84375,-4.328125 H 0.15625 L 0.109375,-3.21875 h 0.15625 C 0.421875,-3.9375 0.578125,-4.0625 1.3125,-4.0625 Z m 0,0"
           id="path11533" />
      </g>
    </g>
    <path
       fill="none"
       stroke-width="0.140582"
       stroke-linecap="butt"
       stroke-linejoin="miter"
       stroke="#000000"
       stroke-opacity="1"
       stroke-miterlimit="10"
       d="m 84.906607,150.36322 h 2.01607"
       id="path7212" />
    <path
       fill="none"
       stroke-width="0.112462"
       stroke-linecap="round"
       stroke-linejoin="round"
       stroke="#000000"
       stroke-opacity="1"
       stroke-miterlimit="10"
       d="m 86.500997,149.80098 c 0.03583,0.21084 0.42168,0.52779 0.527788,0.56224 -0.106108,0.0358 -0.491959,0.3514 -0.527788,0.56224"
       id="path7214" />
    <path
       fill="none"
       stroke-width="0.140582"
       stroke-linecap="butt"
       stroke-linejoin="miter"
       stroke="#000000"
       stroke-opacity="1"
       stroke-miterlimit="10"
       d="m 90.143152,149.0968 2.355067,-2.35507"
       id="path7216" />
    <path
       fill="none"
       stroke-width="0.11246"
       stroke-linecap="round"
       stroke-linejoin="round"
       stroke="#000000"
       stroke-opacity="1"
       stroke-miterlimit="10"
       d="m 91.80231,146.64251 c 0.173632,0.12402 0.671104,0.0744 0.770323,0.0248 -0.04961,0.0992 -0.09922,0.59669 0.02481,0.77032"
       id="path7218" />
    <path
       fill="none"
       stroke-width="0.140582"
       stroke-linecap="butt"
       stroke-linejoin="miter"
       stroke="#000000"
       stroke-opacity="1"
       stroke-miterlimit="10"
       d="m 90.143152,151.63101 2.40192,2.40192"
       id="path7220" />
    <path
       fill="none"
       stroke-width="0.112461"
       stroke-linecap="round"
       stroke-linejoin="round"
       stroke="#000000"
       stroke-opacity="1"
       stroke-miterlimit="10"
       d="m 92.644291,153.33702 c -0.124024,0.17363 -0.07441,0.67111 -0.02481,0.77032 -0.09922,-0.0496 -0.595313,-0.0992 -0.770323,0.0248"
       id="path7222" />
    <path
       fill="none"
       stroke-width="0.140582"
       stroke-linecap="butt"
       stroke-linejoin="miter"
       stroke="#0000ff"
       stroke-opacity="1"
       stroke-miterlimit="10"
       d="m 97.741654,142.93146 6.126756,-3.06476"
       id="path7224" />
    <path
       fill="none"
       stroke-width="0.112453"
       stroke-linecap="round"
       stroke-linejoin="round"
       stroke="#0000ff"
       stroke-opacity="1"
       stroke-miterlimit="10"
       d="m 103.24003,139.55251 c 0.1254,0.17363 0.61322,0.28249 0.72347,0.26733 -0.0785,0.0786 -0.28388,0.53468 -0.22049,0.73863"
       id="path7226" />
    <path
       fill="none"
       stroke-width="0.140582"
       stroke-linecap="butt"
       stroke-linejoin="miter"
       stroke="#0000ff"
       stroke-opacity="1"
       stroke-miterlimit="10"
       d="m 97.681021,157.76604 6.248029,3.12401"
       id="path7228" />
    <path
       fill="none"
       stroke-width="0.112457"
       stroke-linecap="round"
       stroke-linejoin="round"
       stroke="#0000ff"
       stroke-opacity="1"
       stroke-miterlimit="10"
       d="m 103.80365,160.19827 c -0.0634,0.20395 0.14056,0.66008 0.21911,0.73863 -0.11025,-0.0152 -0.59669,0.0951 -0.7221,0.26734"
       id="path7230" />
    <path
       fill="none"
       stroke-width="0.140582"
       stroke-linecap="butt"
       stroke-linejoin="miter"
       stroke="#0000ff"
       stroke-opacity="1"
       stroke-miterlimit="10"
       d="m 97.741654,145.79502 6.476776,3.23839"
       id="path7232" />
    <path
       fill="none"
       stroke-width="0.112457"
       stroke-linecap="round"
       stroke-linejoin="round"
       stroke="#0000ff"
       stroke-opacity="1"
       stroke-miterlimit="10"
       d="m 104.09303,148.34301 c -0.0634,0.20395 0.14194,0.66008 0.22049,0.73863 -0.11025,-0.0165 -0.59807,0.0937 -0.72347,0.26734"
       id="path7234" />
    <path
       fill="none"
       stroke-width="0.140582"
       stroke-linecap="butt"
       stroke-linejoin="miter"
       stroke="#0000ff"
       stroke-opacity="1"
       stroke-miterlimit="10"
       d="m 97.681021,154.96173 6.537409,-3.26871"
       id="path7236" />
    <path
       fill="none"
       stroke-width="0.112457"
       stroke-linecap="round"
       stroke-linejoin="round"
       stroke="#0000ff"
       stroke-opacity="1"
       stroke-miterlimit="10"
       d="m 103.59005,151.37883 c 0.1254,0.17225 0.61322,0.2825 0.72347,0.26734 -0.0785,0.0785 -0.28388,0.53468 -0.22049,0.73863"
       id="path7238" />
    <path
       fill="none"
       stroke-width="0.140582"
       stroke-linecap="butt"
       stroke-linejoin="miter"
       stroke="#000000"
       stroke-opacity="1"
       stroke-miterlimit="10"
       d="m 90.143152,149.0968 2.355067,-2.35507"
       id="path7240" />
    <path
       fill="none"
       stroke-width="0.11246"
       stroke-linecap="round"
       stroke-linejoin="round"
       stroke="#000000"
       stroke-opacity="1"
       stroke-miterlimit="10"
       d="m 91.80231,146.64251 c 0.173632,0.12402 0.671104,0.0744 0.770323,0.0248 -0.04961,0.0992 -0.09922,0.59669 0.02481,0.77032"
       id="path7242" />
    <path
       fill="none"
       stroke-width="0.140582"
       stroke-linecap="butt"
       stroke-linejoin="miter"
       stroke="#000000"
       stroke-opacity="1"
       stroke-miterlimit="10"
       d="m 109.14216,140.62738 8.35505,8.35504"
       id="path7244" />
    <path
       fill="none"
       stroke-width="0.112459"
       stroke-linecap="round"
       stroke-linejoin="round"
       stroke="#000000"
       stroke-opacity="1"
       stroke-miterlimit="10"
       d="m 117.59781,148.28651 c -0.1254,0.17363 -0.0758,0.6711 -0.0248,0.77032 -0.10059,-0.0496 -0.59669,-0.0992 -0.7717,0.0248"
       id="path7246" />
    <path
       fill="none"
       stroke-width="0.140582"
       stroke-linecap="butt"
       stroke-linejoin="miter"
       stroke="#000000"
       stroke-opacity="1"
       stroke-miterlimit="10"
       d="m 109.09531,160.14729 8.4019,-8.4019"
       id="path7248" />
    <path
       fill="none"
       stroke-width="0.112459"
       stroke-linecap="round"
       stroke-linejoin="round"
       stroke="#000000"
       stroke-opacity="1"
       stroke-miterlimit="10"
       d="m 116.8013,151.64616 c 0.17501,0.12403 0.67111,0.0744 0.7717,0.0248 -0.051,0.0992 -0.10059,0.59531 0.0248,0.77032"
       id="path7250" />
    <path
       fill="none"
       stroke-width="0.140582"
       stroke-linecap="butt"
       stroke-linejoin="miter"
       stroke="#000000"
       stroke-opacity="1"
       stroke-miterlimit="10"
       d="m 109.68925,150.36322 h 7.23607"
       id="path7252" />
    <path
       fill="none"
       stroke-width="0.112462"
       stroke-linecap="round"
       stroke-linejoin="round"
       stroke="#000000"
       stroke-opacity="1"
       stroke-miterlimit="10"
       d="m 116.50365,149.80098 c 0.0358,0.21084 0.42168,0.52779 0.52779,0.56224 -0.10611,0.0358 -0.49196,0.3514 -0.52779,0.56224"
       id="path7254" />
    <path
       fill="none"
       stroke-width="0.140582"
       stroke-linecap="butt"
       stroke-linejoin="miter"
       stroke="#000000"
       stroke-opacity="1"
       stroke-miterlimit="10"
       d="m 120.67083,150.36322 h 0.86265"
       id="path7256" />
    <path
       fill="none"
       stroke-width="0.112462"
       stroke-linecap="round"
       stroke-linejoin="round"
       stroke="#000000"
       stroke-opacity="1"
       stroke-miterlimit="10"
       d="m 121.1118,149.80098 c 0.0344,0.21084 0.42168,0.52779 0.52641,0.56224 -0.10473,0.0358 -0.49196,0.3514 -0.52641,0.56224"
       id="path7258" />
    <path
       fill="none"
       stroke-width="0.140582"
       stroke-linecap="butt"
       stroke-linejoin="miter"
       stroke="#ff0000"
       stroke-opacity="1"
       stroke-miterlimit="10"
       d="m 96.653004,147.02836 8.396386,12.59252"
       id="path7260" />
    <path
       fill="none"
       stroke-width="0.112457"
       stroke-linecap="round"
       stroke-linejoin="round"
       stroke="#ff0000"
       stroke-opacity="1"
       stroke-miterlimit="10"
       d="m 105.28365,158.95804 c -0.15709,0.14607 -0.20532,0.64355 -0.17639,0.75103 -0.0868,-0.0689 -0.56499,-0.21497 -0.75929,-0.12678"
       id="path7262" />
    <path
       fill="none"
       stroke-width="0.140582"
       stroke-linecap="butt"
       stroke-linejoin="miter"
       stroke="#ff0000"
       stroke-opacity="1"
       stroke-miterlimit="10"
       d="m 96.615797,153.75595 8.396383,-12.59389"
       id="path7264" />
    <path
       fill="none"
       stroke-width="0.112457"
       stroke-linecap="round"
       stroke-linejoin="round"
       stroke="#ff0000"
       stroke-opacity="1"
       stroke-miterlimit="10"
       d="m 104.30939,141.20063 c 0.19568,0.0882 0.67386,-0.0579 0.76068,-0.12678 -0.0289,0.10749 0.0193,0.60496 0.17639,0.75103"
       id="path7266" />
    <path
       fill="none"
       stroke-width="0.140582"
       stroke-linecap="butt"
       stroke-linejoin="miter"
       stroke="#000000"
       stroke-opacity="1"
       stroke-miterlimit="10"
       d="m 118.87938,148.57177 c 0,-20.99993 -30.002645,-20.99993 -30.002645,-0.16123"
       id="path7268" />
    <path
       fill="none"
       stroke-width="0.112462"
       stroke-linecap="round"
       stroke-linejoin="round"
       stroke="#000000"
       stroke-opacity="1"
       stroke-miterlimit="10"
       d="m 89.438974,147.98885 c -0.21084,0.0344 -0.527789,0.42168 -0.56224,0.52641 -0.03583,-0.10473 -0.351399,-0.49196 -0.562239,-0.52641"
       id="path7270" />
  </g>
</svg>
