<?xml version="1.0" encoding="UTF-8" standalone="no"?>
<svg
   xmlns:dc="http://purl.org/dc/elements/1.1/"
   xmlns:cc="http://creativecommons.org/ns#"
   xmlns:rdf="http://www.w3.org/1999/02/22-rdf-syntax-ns#"
   xmlns:svg="http://www.w3.org/2000/svg"
   xmlns="http://www.w3.org/2000/svg"
   xmlns:sodipodi="http://sodipodi.sourceforge.net/DTD/sodipodi-0.dtd"
   xmlns:inkscape="http://www.inkscape.org/namespaces/inkscape"
   width="217.48773mm"
   height="163.73729mm"
   viewBox="0 0 217.48773 163.73729"
   version="1.1"
   id="svg9156"
   sodipodi:docname="dnc.svg"
   inkscape:version="1.0.2 (e86c8708, 2021-01-15)">
  <sodipodi:namedview
     pagecolor="#ffffff"
     bordercolor="#666666"
     borderopacity="1"
     objecttolerance="10"
     gridtolerance="10"
     guidetolerance="10"
     inkscape:pageopacity="0"
     inkscape:pageshadow="2"
     inkscape:window-width="1440"
     inkscape:window-height="847"
     id="namedview10907"
     showgrid="false"
     fit-margin-top="0"
     fit-margin-left="0"
     fit-margin-right="0"
     fit-margin-bottom="0"
     inkscape:zoom="0.76393258"
     inkscape:cx="472.50427"
     inkscape:cy="301.14163"
     inkscape:window-x="0"
     inkscape:window-y="25"
     inkscape:window-maximized="1"
     inkscape:current-layer="svg9156" />
  <defs
     id="defs9150" />
  <metadata
     id="metadata9153">
    <rdf:RDF>
      <cc:Work
         rdf:about="">
        <dc:format>image/svg+xml</dc:format>
        <dc:type
           rdf:resource="http://purl.org/dc/dcmitype/StillImage" />
        <dc:title></dc:title>
      </cc:Work>
    </rdf:RDF>
  </metadata>
  <path
     d="M 0.18917701,44.318978 H 17.993557 V 163.10314 H 0.18917701 Z"
     style="fill:#aade87;fill-opacity:1;fill-rule:nonzero;stroke:#000000;stroke-width:0.378354;stroke-linecap:butt;stroke-linejoin:miter;stroke-miterlimit:4;stroke-dasharray:none;stroke-opacity:1"
     id="path5830" />
  <g
     id="g5832"
     transform="matrix(0.04752435,0,0,0.35277777,-5.935333,-721.70196)"
     style="stroke-width:2.71772;stroke-miterlimit:4;stroke-dasharray:none">
    <path
       d="M 503.348,2255.609 H 129.031"
       style="fill:none;stroke:#000000;stroke-width:2.71772;stroke-linecap:butt;stroke-linejoin:miter;stroke-miterlimit:4;stroke-dasharray:none;stroke-opacity:0.392157"
       id="path5834" />
  </g>
  <g
     id="g5836"
     transform="matrix(0.04752435,0,0,0.35277777,-5.935333,-721.70196)"
     style="stroke-width:2.71772;stroke-miterlimit:4;stroke-dasharray:none">
    <path
       d="M 503.348,2339.723 H 129.031"
       style="fill:none;stroke:#000000;stroke-width:2.71772;stroke-linecap:butt;stroke-linejoin:miter;stroke-miterlimit:4;stroke-dasharray:none;stroke-opacity:0.392157"
       id="path5838" />
  </g>
  <g
     id="g5840"
     transform="matrix(0.04752435,0,0,0.35277777,-5.935333,-721.70196)"
     style="stroke-width:2.71772;stroke-miterlimit:4;stroke-dasharray:none">
    <path
       d="M 503.348,2423.836 H 129.031"
       style="fill:none;stroke:#000000;stroke-width:2.71772;stroke-linecap:butt;stroke-linejoin:miter;stroke-miterlimit:4;stroke-dasharray:none;stroke-opacity:0.392157"
       id="path5842" />
  </g>
  <path
     d="m 59.655557,66.435319 c 0,3.83787 3.11326,6.950781 6.95219,6.950781 3.83928,0 6.95113,-3.112911 6.95113,-6.950781 0,-3.83928 -3.11185,-6.952191 -6.95113,-6.952191 -3.83893,0 -6.95219,3.112911 -6.95219,6.952191 z"
     style="fill:#afdde9;fill-opacity:0.992157;fill-rule:nonzero;stroke:none;stroke-width:0.352778"
     id="path5854" />
  <g
     id="g5856"
     transform="matrix(-0.35277777,0,0,0.35277777,-159.63287,-721.70196)">
    <path
       d="m -621.605,2234.09 c 0,10.879 -8.825,19.703 -19.708,19.703 -10.882,0 -19.703,-8.824 -19.703,-19.703 0,-10.883 8.821,-19.707 19.703,-19.707 10.883,0 19.708,8.824 19.708,19.707 z"
       style="fill:none;stroke:#808000;stroke-width:2.26847;stroke-linecap:butt;stroke-linejoin:miter;stroke-miterlimit:4;stroke-dasharray:none;stroke-opacity:1"
       id="path5858" />
  </g>
  <g
     id="g5860"
     transform="matrix(-0.35277777,0,0,0.35277777,-159.63287,-721.70196)">
    <path
       d="m -634.031,2234.09 c 0,4.019 -3.258,7.281 -7.282,7.281 -4.019,0 -7.281,-3.262 -7.281,-7.281 0,-4.024 3.262,-7.281 7.281,-7.281 4.024,0 7.282,3.257 7.282,7.281 z"
       style="fill:#808000;fill-opacity:1;fill-rule:nonzero;stroke:#808000;stroke-width:3.63242;stroke-linecap:butt;stroke-linejoin:miter;stroke-miterlimit:4;stroke-dasharray:none;stroke-opacity:1"
       id="path5862" />
  </g>
  <g
     id="g5864"
     transform="matrix(0.35277777,0,0,0.35277777,-159.63287,-721.70196)">
    <path
       d="M 661.016,2234.09 H 816"
       style="fill:none;stroke:#808000;stroke-width:1.75722;stroke-linecap:butt;stroke-linejoin:miter;stroke-miterlimit:4;stroke-dasharray:none;stroke-opacity:1"
       id="path5866" />
  </g>
  <g
     id="g5868"
     transform="matrix(-0.35277777,0,0,-0.35277777,-172.86212,-721.70196)">
    <path
       d="m -797.215,-2226.289 -21.117,-7.77 21.117,-7.765 c -3.375,4.586 -3.355,10.859 0,15.535 z"
       style="fill:#808000;fill-opacity:1;fill-rule:evenodd;stroke:#808000;stroke-width:1.20808;stroke-linecap:butt;stroke-linejoin:round;stroke-miterlimit:4;stroke-dasharray:none;stroke-opacity:1"
       id="path5870" />
  </g>
  <g
     id="g5872"
     transform="matrix(0.35277777,0,0,0.35277777,-159.63287,-721.70196)">
    <path
       d="M 622.316,2221.402 H 504.109"
       style="fill:none;stroke:#808000;stroke-width:1.731;stroke-linecap:butt;stroke-linejoin:miter;stroke-miterlimit:4;stroke-dasharray:none;stroke-opacity:1"
       id="path5874" />
  </g>
  <g
     id="g5876"
     transform="matrix(-0.35277777,0,0,-0.35277777,-159.63287,-721.70196)">
    <path
       d="m -603.809,-2213.723 -20.804,-7.652 20.804,-7.648 c -3.324,4.515 -3.304,10.695 0,15.3 z"
       style="fill:#808000;fill-opacity:1;fill-rule:evenodd;stroke:#808000;stroke-width:1.19006;stroke-linecap:butt;stroke-linejoin:round;stroke-miterlimit:4;stroke-dasharray:none;stroke-opacity:1"
       id="path5878" />
  </g>
  <path
     d="m 59.655557,96.154021 c 0,3.83928 3.11326,6.952199 6.95219,6.952199 3.83928,0 6.95113,-3.112919 6.95113,-6.952199 0,-3.83928 -3.11185,-6.950777 -6.95113,-6.950777 -3.83893,0 -6.95219,3.111497 -6.95219,6.950777 z"
     style="fill:#afdde9;fill-opacity:0.992157;fill-rule:nonzero;stroke:none;stroke-width:0.352778"
     id="path5890" />
  <g
     id="g5892"
     transform="matrix(-0.35277777,0,0,0.35277777,-159.63287,-721.70196)">
    <path
       d="m -621.605,2318.332 c 0,10.883 -8.825,19.707 -19.708,19.707 -10.882,0 -19.703,-8.824 -19.703,-19.707 0,-10.883 8.821,-19.703 19.703,-19.703 10.883,0 19.708,8.82 19.708,19.703 z"
       style="fill:none;stroke:#808000;stroke-width:2.26847;stroke-linecap:butt;stroke-linejoin:miter;stroke-miterlimit:4;stroke-dasharray:none;stroke-opacity:1"
       id="path5894" />
  </g>
  <g
     id="g5896"
     transform="matrix(-0.35277777,0,0,0.35277777,-159.63287,-721.70196)">
    <path
       d="m -634.031,2318.332 c 0,4.023 -3.258,7.281 -7.282,7.281 -4.019,0 -7.281,-3.258 -7.281,-7.281 0,-4.019 3.262,-7.281 7.281,-7.281 4.024,0 7.282,3.262 7.282,7.281 z"
       style="fill:#808000;fill-opacity:1;fill-rule:nonzero;stroke:#808000;stroke-width:3.63242;stroke-linecap:butt;stroke-linejoin:miter;stroke-miterlimit:4;stroke-dasharray:none;stroke-opacity:1"
       id="path5898" />
  </g>
  <g
     id="g5900"
     transform="matrix(0.35277777,0,0,0.35277777,-159.63287,-721.70196)">
    <path
       d="M 661.016,2318.332 H 816"
       style="fill:none;stroke:#808000;stroke-width:1.75722;stroke-linecap:butt;stroke-linejoin:miter;stroke-miterlimit:4;stroke-dasharray:none;stroke-opacity:1"
       id="path5902" />
  </g>
  <g
     id="g5904"
     transform="matrix(-0.35277777,0,0,-0.35277777,-172.86212,-721.70196)">
    <path
       d="m -797.215,-2310.535 -21.117,-7.766 21.117,-7.765 c -3.375,4.582 -3.355,10.855 0,15.531 z"
       style="fill:#808000;fill-opacity:1;fill-rule:evenodd;stroke:#808000;stroke-width:1.20808;stroke-linecap:butt;stroke-linejoin:round;stroke-miterlimit:4;stroke-dasharray:none;stroke-opacity:1"
       id="path5906" />
  </g>
  <g
     id="g5908"
     transform="matrix(0.35277777,0,0,0.35277777,-159.63287,-721.70196)">
    <path
       d="M 622.316,2305.648 H 504.109"
       style="fill:none;stroke:#808000;stroke-width:1.731;stroke-linecap:butt;stroke-linejoin:miter;stroke-miterlimit:4;stroke-dasharray:none;stroke-opacity:1"
       id="path5910" />
  </g>
  <g
     id="g5912"
     transform="matrix(-0.35277777,0,0,-0.35277777,-159.63287,-721.70196)">
    <path
       d="m -603.809,-2297.969 -20.804,-7.648 20.804,-7.653 c -3.324,4.516 -3.304,10.696 0,15.301 z"
       style="fill:#808000;fill-opacity:1;fill-rule:evenodd;stroke:#808000;stroke-width:1.19006;stroke-linecap:butt;stroke-linejoin:round;stroke-miterlimit:4;stroke-dasharray:none;stroke-opacity:1"
       id="path5914" />
  </g>
  <path
     d="m 59.655557,125.87415 c 0,3.83928 3.11326,6.95219 6.95219,6.95219 3.83928,0 6.95113,-3.11291 6.95113,-6.95219 0,-3.83928 -3.11185,-6.95078 -6.95113,-6.95078 -3.83893,0 -6.95219,3.1115 -6.95219,6.95078 z"
     style="fill:#afdde9;fill-opacity:0.992157;fill-rule:nonzero;stroke:none;stroke-width:0.352778"
     id="path5926" />
  <g
     id="g5928"
     transform="matrix(-0.35277777,0,0,0.35277777,-159.63287,-721.70196)">
    <path
       d="m -621.605,2402.578 c 0,10.883 -8.825,19.707 -19.708,19.707 -10.882,0 -19.703,-8.824 -19.703,-19.707 0,-10.883 8.821,-19.703 19.703,-19.703 10.883,0 19.708,8.82 19.708,19.703 z"
       style="fill:none;stroke:#808000;stroke-width:2.26847;stroke-linecap:butt;stroke-linejoin:miter;stroke-miterlimit:4;stroke-dasharray:none;stroke-opacity:1"
       id="path5930" />
  </g>
  <g
     id="g5932"
     transform="matrix(-0.35277777,0,0,0.35277777,-159.63287,-721.70196)">
    <path
       d="m -634.031,2402.578 c 0,4.024 -3.258,7.281 -7.282,7.281 -4.019,0 -7.281,-3.257 -7.281,-7.281 0,-4.019 3.262,-7.281 7.281,-7.281 4.024,0 7.282,3.262 7.282,7.281 z"
       style="fill:#808000;fill-opacity:1;fill-rule:nonzero;stroke:#808000;stroke-width:3.63242;stroke-linecap:butt;stroke-linejoin:miter;stroke-miterlimit:4;stroke-dasharray:none;stroke-opacity:1"
       id="path5934" />
  </g>
  <g
     id="g5936"
     transform="matrix(0.35277777,0,0,0.35277777,-159.63287,-721.70196)">
    <path
       d="M 661.016,2402.578 H 816"
       style="fill:none;stroke:#808000;stroke-width:1.75722;stroke-linecap:butt;stroke-linejoin:miter;stroke-miterlimit:4;stroke-dasharray:none;stroke-opacity:1"
       id="path5938" />
  </g>
  <g
     id="g5940"
     transform="matrix(-0.35277777,0,0,-0.35277777,-172.86212,-721.70196)">
    <path
       d="m -797.215,-2394.781 -21.117,-7.766 21.117,-7.766 c -3.375,4.583 -3.355,10.856 0,15.532 z"
       style="fill:#808000;fill-opacity:1;fill-rule:evenodd;stroke:#808000;stroke-width:1.20808;stroke-linecap:butt;stroke-linejoin:round;stroke-miterlimit:4;stroke-dasharray:none;stroke-opacity:1"
       id="path5942" />
  </g>
  <g
     id="g5944"
     transform="matrix(0.35277777,0,0,0.35277777,-159.63287,-721.70196)">
    <path
       d="M 622.316,2389.895 H 504.109"
       style="fill:none;stroke:#808000;stroke-width:1.731;stroke-linecap:butt;stroke-linejoin:miter;stroke-miterlimit:4;stroke-dasharray:none;stroke-opacity:1"
       id="path5946" />
  </g>
  <g
     id="g5948"
     transform="matrix(-0.35277777,0,0,-0.35277777,-159.63287,-721.70196)">
    <path
       d="m -603.809,-2382.215 -20.804,-7.648 20.804,-7.653 c -3.324,4.516 -3.304,10.696 0,15.301 z"
       style="fill:#808000;fill-opacity:1;fill-rule:evenodd;stroke:#808000;stroke-width:1.19006;stroke-linecap:butt;stroke-linejoin:round;stroke-miterlimit:4;stroke-dasharray:none;stroke-opacity:1"
       id="path5950" />
  </g>
  <path
     d="m 59.655557,155.59427 c 0,3.83928 3.11326,6.95078 6.95219,6.95078 3.83928,0 6.95113,-3.1115 6.95113,-6.95078 0,-3.83929 -3.11185,-6.95079 -6.95113,-6.95079 -3.83893,0 -6.95219,3.1115 -6.95219,6.95079 z"
     style="fill:#afdde9;fill-opacity:0.992157;fill-rule:nonzero;stroke:none;stroke-width:0.352778"
     id="path5962" />
  <g
     id="g5964"
     transform="matrix(-0.35277777,0,0,0.35277777,-159.63287,-721.70196)">
    <path
       d="m -621.605,2486.824 c 0,10.883 -8.825,19.703 -19.708,19.703 -10.882,0 -19.703,-8.82 -19.703,-19.703 0,-10.883 8.821,-19.703 19.703,-19.703 10.883,0 19.708,8.82 19.708,19.703 z"
       style="fill:none;stroke:#808000;stroke-width:2.26847;stroke-linecap:butt;stroke-linejoin:miter;stroke-miterlimit:4;stroke-dasharray:none;stroke-opacity:1"
       id="path5966" />
  </g>
  <g
     id="g5968"
     transform="matrix(-0.35277777,0,0,0.35277777,-159.63287,-721.70196)">
    <path
       d="m -634.031,2486.824 c 0,4.024 -3.258,7.281 -7.282,7.281 -4.019,0 -7.281,-3.257 -7.281,-7.281 0,-4.019 3.262,-7.281 7.281,-7.281 4.024,0 7.282,3.262 7.282,7.281 z"
       style="fill:#808000;fill-opacity:1;fill-rule:nonzero;stroke:#808000;stroke-width:3.63242;stroke-linecap:butt;stroke-linejoin:miter;stroke-miterlimit:4;stroke-dasharray:none;stroke-opacity:1"
       id="path5970" />
  </g>
  <g
     id="g5972"
     transform="matrix(0.35277777,0,0,0.35277777,-159.63287,-721.70196)">
    <path
       d="M 661.016,2486.824 H 816"
       style="fill:none;stroke:#808000;stroke-width:1.75722;stroke-linecap:butt;stroke-linejoin:miter;stroke-miterlimit:4;stroke-dasharray:none;stroke-opacity:1"
       id="path5974" />
  </g>
  <g
     id="g5976"
     transform="matrix(-0.35277777,0,0,-0.35277777,-172.86212,-721.70196)">
    <path
       d="m -797.215,-2479.027 -21.117,-7.766 21.117,-7.766 c -3.375,4.582 -3.355,10.856 0,15.532 z"
       style="fill:#808000;fill-opacity:1;fill-rule:evenodd;stroke:#808000;stroke-width:1.20808;stroke-linecap:butt;stroke-linejoin:round;stroke-miterlimit:4;stroke-dasharray:none;stroke-opacity:1"
       id="path5978" />
  </g>
  <g
     id="g5980"
     transform="matrix(0.35277777,0,0,0.35277777,-159.63287,-721.70196)">
    <path
       d="M 622.316,2474.141 H 504.109"
       style="fill:none;stroke:#808000;stroke-width:1.731;stroke-linecap:butt;stroke-linejoin:miter;stroke-miterlimit:4;stroke-dasharray:none;stroke-opacity:1"
       id="path5982" />
  </g>
  <g
     id="g5984"
     transform="matrix(-0.35277777,0,0,-0.35277777,-159.63287,-721.70196)">
    <path
       d="m -603.809,-2466.461 -20.804,-7.648 20.804,-7.653 c -3.324,4.52 -3.304,10.7 0,15.301 z"
       style="fill:#808000;fill-opacity:1;fill-rule:evenodd;stroke:#808000;stroke-width:1.19006;stroke-linecap:butt;stroke-linejoin:round;stroke-miterlimit:4;stroke-dasharray:none;stroke-opacity:1"
       id="path5986" />
  </g>
  <path
     d="m 7.249007,0.30994744 h 54.25193 V 19.088309 H 7.249007 Z"
     style="fill:#afdde9;fill-opacity:0.992157;fill-rule:nonzero;stroke:none;stroke-width:0.352778"
     id="path6020" />
  <g
     id="g6022"
     transform="matrix(-0.35277777,0,0,0.35277777,-159.63287,-721.70196)">
    <path
       d="m -473.051,2046.648 h -153.785 v 53.23 h 153.785 z"
       style="fill:none;stroke:#000080;stroke-width:1.75722;stroke-linecap:butt;stroke-linejoin:miter;stroke-miterlimit:4;stroke-dasharray:none;stroke-opacity:1"
       id="path6024" />
  </g>
  <path
     d="m 18.132547,5.0272921 h 1.9237 l 2.44193,6.5098089 2.45286,-6.5098089 h 1.92934 v 9.5634529 h -1.26223 V 6.1900471 l -2.46381,6.5595509 h -1.30104 l -2.46944,-6.5595509 v 8.4006979 h -1.25131 z"
     style="fill:#000000;fill-opacity:1;fill-rule:nonzero;stroke:none;stroke-width:0.352778"
     id="path6026" />
  <path
     d="m 32.668057,10.985709 c -0.95215,0 -1.6122,0.109009 -1.97873,0.325261 -0.36795,0.217664 -0.55104,0.588434 -0.55104,1.113367 0,0.4191 0.13758,0.752475 0.4131,0.997656 0.27587,0.246944 0.65052,0.369358 1.12465,0.369358 0.65053,0 1.17123,-0.231422 1.56528,-0.694267 0.39688,-0.463197 0.59549,-1.080558 0.59549,-1.852083 v -0.259292 z m 2.34844,-0.490361 v 4.095397 h -1.17969 v -1.091494 c -0.26882,0.43815 -0.6036,0.760589 -1.0033,0.970139 -0.40076,0.205316 -0.89147,0.30868 -1.47179,0.30868 -0.73589,0 -1.32009,-0.205316 -1.7526,-0.617361 -0.43427,-0.414866 -0.65052,-0.967316 -0.65052,-1.659114 0,-0.804686 0.26987,-1.412522 0.81033,-1.824566 0.5401,-0.410634 1.3462,-0.617361 2.4197,-0.617361 h 1.64818 V 9.9439561 c 0,-0.540103 -0.17921,-0.959203 -0.53481,-1.256595 -0.35666,-0.297744 -0.8569,-0.446617 -1.49931,-0.446617 -0.41204,0 -0.8128,0.04974 -1.20156,0.148873 -0.38594,0.09913 -0.75918,0.246591 -1.11901,0.440972 v -1.08585 c 0.43286,-0.168275 0.85161,-0.293511 1.25695,-0.375003 0.40357,-0.08396 0.79904,-0.126647 1.18498,-0.126647 1.03646,0 1.80939,0.269875 2.32057,0.81033 0.514,0.537281 0.77188,1.350434 0.77188,2.4419289 z"
     style="fill:#000000;fill-opacity:1;fill-rule:nonzero;stroke:none;stroke-width:0.352778"
     id="path6028" />
  <path
     d="m 42.026547,7.6290281 v 1.113366 c -0.33479,-0.168275 -0.68228,-0.294922 -1.04176,-0.380294 -0.35701,-0.08819 -0.72637,-0.132292 -1.10807,-0.132292 -0.58844,0 -1.02941,0.09066 -1.32292,0.269875 -0.29069,0.180623 -0.43533,0.449439 -0.43533,0.805039 0,0.27552 0.10478,0.490361 0.31398,0.644878 0.20955,0.1541649 0.6297,0.3030369 1.26223,0.4462649 l 0.40252,0.08819 c 0.83785,0.180623 1.43334,0.43427 1.78612,0.760942 0.35277,0.32773 0.52916,0.782461 0.52916,1.367014 0,0.665339 -0.26458,1.193094 -0.79375,1.581855 -0.52669,0.38982 -1.24989,0.5842 -2.17205,0.5842 -0.38558,0 -0.78669,-0.03845 -1.20156,-0.115711 -0.41628,-0.07302 -0.85443,-0.184503 -1.31727,-0.336197 v -1.21285 c 0.43674,0.224719 0.86677,0.394406 1.28975,0.507294 0.42157,0.1143 0.83926,0.170745 1.25131,0.170745 0.55386,0 0.98107,-0.0949 1.27882,-0.286456 0.30021,-0.190147 0.4519,-0.458964 0.4519,-0.804686 0,-0.319969 -0.109,-0.563739 -0.32526,-0.733425 -0.21343,-0.172155 -0.68615,-0.337608 -1.4164,-0.496005 l -0.40816,-0.09349 c -0.73167,-0.154517 -1.26083,-0.388761 -1.5875,-0.705556 -0.32385,-0.319969 -0.48507,-0.7567089 -0.48507,-1.3119809 0,-0.675217 0.23847,-1.197681 0.71684,-1.565628 0.48084,-0.366536 1.16029,-0.551039 2.03941,-0.551039 0.43674,0 0.84596,0.03316 1.22908,0.09913 0.38594,0.0635 0.74013,0.158398 1.06398,0.286809 z"
     style="fill:#000000;fill-opacity:1;fill-rule:nonzero;stroke:none;stroke-width:0.352778"
     id="path6030" />
  <path
     d="m 44.250807,4.6247721 h 1.18498 v 5.8868039 l 3.51684,-3.0977429 h 1.5046 l -3.8033,3.3570349 3.96311,3.819877 h -1.53776 l -3.64349,-3.505905 v 3.505905 h -1.18498 z"
     style="fill:#000000;fill-opacity:1;fill-rule:nonzero;stroke:none;stroke-width:0.352778"
     id="path6032" />
  <g
     id="g6034"
     transform="matrix(0.35277777,0,0,0.35277777,-159.63287,-721.70196)">
    <path
       d="m 549.5,2100.219 v 399.105 H 622"
       style="fill:none;stroke:#000080;stroke-width:1.75722;stroke-linecap:butt;stroke-linejoin:miter;stroke-miterlimit:4;stroke-dasharray:none;stroke-opacity:1"
       id="path6036" />
  </g>
  <g
     id="g6038"
     transform="matrix(-0.35277777,0,0,-0.35277777,-159.63287,-721.70196)">
    <path
       d="m -603.215,-2491.527 -21.121,-7.766 21.121,-7.766 c -3.375,4.586 -3.355,10.86 0,15.532 z"
       style="fill:#000080;fill-opacity:1;fill-rule:evenodd;stroke:#000080;stroke-width:1.20808;stroke-linecap:butt;stroke-linejoin:round;stroke-miterlimit:4;stroke-dasharray:none;stroke-opacity:1"
       id="path6040" />
  </g>
  <g
     id="g6042"
     transform="matrix(0.35277777,0,0,0.35277777,-159.63287,-721.70196)">
    <path
       d="m 549.969,2414.988 h 71.933"
       style="fill:none;stroke:#000080;stroke-width:1.74358;stroke-linecap:butt;stroke-linejoin:miter;stroke-miterlimit:4;stroke-dasharray:none;stroke-opacity:1"
       id="path6044" />
  </g>
  <g
     id="g6046"
     transform="matrix(-0.35277777,0,0,-0.35277777,-159.63287,-721.70196)">
    <path
       d="m -603.262,-2407.25 -20.953,-7.707 20.953,-7.703 c -3.347,4.547 -3.328,10.773 0,15.41 z"
       style="fill:#000080;fill-opacity:1;fill-rule:evenodd;stroke:#000080;stroke-width:1.19871;stroke-linecap:butt;stroke-linejoin:round;stroke-miterlimit:4;stroke-dasharray:none;stroke-opacity:1"
       id="path6048" />
  </g>
  <g
     id="g6050"
     transform="matrix(0.35277777,0,0,0.35277777,-159.63287,-721.70196)">
    <path
       d="m 549.969,2330.742 h 71.933"
       style="fill:none;stroke:#000080;stroke-width:1.74358;stroke-linecap:butt;stroke-linejoin:miter;stroke-miterlimit:4;stroke-dasharray:none;stroke-opacity:1"
       id="path6052" />
  </g>
  <g
     id="g6054"
     transform="matrix(-0.35277777,0,0,-0.35277777,-159.63287,-721.70196)">
    <path
       d="m -603.262,-2323.008 -20.953,-7.707 20.953,-7.703 c -3.347,4.547 -3.328,10.773 0,15.41 z"
       style="fill:#000080;fill-opacity:1;fill-rule:evenodd;stroke:#000080;stroke-width:1.19871;stroke-linecap:butt;stroke-linejoin:round;stroke-miterlimit:4;stroke-dasharray:none;stroke-opacity:1"
       id="path6056" />
  </g>
  <g
     id="g6058"
     transform="matrix(0.35277777,0,0,0.35277777,-159.63287,-721.70196)">
    <path
       d="m 549.969,2246.207 h 71.933"
       style="fill:none;stroke:#000080;stroke-width:1.74358;stroke-linecap:butt;stroke-linejoin:miter;stroke-miterlimit:4;stroke-dasharray:none;stroke-opacity:1"
       id="path6060" />
  </g>
  <g
     id="g6062"
     transform="matrix(-0.35277777,0,0,-0.35277777,-159.63287,-721.70196)">
    <path
       d="m -603.262,-2238.469 -20.953,-7.707 20.953,-7.707 c -3.347,4.551 -3.328,10.774 0,15.414 z"
       style="fill:#000080;fill-opacity:1;fill-rule:evenodd;stroke:#000080;stroke-width:1.19871;stroke-linecap:butt;stroke-linejoin:round;stroke-miterlimit:4;stroke-dasharray:none;stroke-opacity:1"
       id="path6064" />
  </g>
  <g
     id="g6066"
     transform="matrix(0.35277777,0,0,0.35277777,-159.63287,-721.70196)">
    <path
       d="m 550.238,2145.984 148.539,1.133"
       style="fill:none;stroke:#000080;stroke-width:1.75722;stroke-linecap:butt;stroke-linejoin:miter;stroke-miterlimit:4;stroke-dasharray:none;stroke-opacity:1"
       id="path6068" />
  </g>
  <g
     id="g6070"
     transform="matrix(-0.35277777,-0.0026913,0.0026913,-0.35277777,-159.63287,-721.70196)">
    <path
       d="m -696.33,-2133.867 -21.122,-7.765 21.121,-7.767 c -3.375,4.585 -3.355,10.858 10e-4,15.532 z"
       style="fill:#000080;fill-opacity:1;fill-rule:evenodd;stroke:#000080;stroke-width:1.20805;stroke-linecap:butt;stroke-linejoin:round;stroke-miterlimit:4;stroke-dasharray:none;stroke-opacity:1"
       id="path6072" />
  </g>
  <g
     id="g6074"
     transform="matrix(-0.35277777,0,0,0.35277777,-159.63287,-721.70196)">
    <path
       d="m -645.66,2046.648 h -153.785 v 53.23 h 153.785 z"
       style="fill:#ffffff;fill-opacity:1;fill-rule:nonzero;stroke:#ff0000;stroke-width:1.75722;stroke-linecap:butt;stroke-linejoin:miter;stroke-miterlimit:4;stroke-dasharray:none;stroke-opacity:1"
       id="path6076" />
  </g>
  <path
     d="m 80.313867,4.5171751 c -0.94121,0 -1.68945,0.351367 -2.24332,1.053042 -0.55139,0.6985 -0.82691,1.652058 -0.82691,2.860675 0,1.205794 0.27552,2.1593529 0.82691,2.8606759 0.55387,0.698852 1.30211,1.047397 2.24332,1.047397 0.93698,0 1.67852,-0.348545 2.22709,-1.047397 0.55103,-0.701323 0.82655,-1.6548819 0.82655,-2.8606759 0,-1.208617 -0.27552,-2.162175 -0.82655,-2.860675 -0.54857,-0.701675 -1.29011,-1.053042 -2.22709,-1.053042 z m 1.81363,8.5164089 1.70321,1.86302 h -1.56563 l -1.4164,-1.532467 c -0.14076,0.0071 -0.248,0.0127 -0.32526,0.01658 -0.0744,0.0071 -0.14323,0.01094 -0.20955,0.01094 -1.34479,0 -2.4197,-0.449086 -3.22474,-1.350434 -0.80469,-0.899583 -1.20686,-2.1029089 -1.20686,-3.6103279 0,-1.510242 0.40217,-2.713214 1.20686,-3.610328 0.80504,-0.899936 1.87995,-1.350786 3.22474,-1.350786 1.34091,0 2.41159,0.45085 3.21345,1.350786 0.80504,0.897114 1.20721,2.100086 1.20721,3.610328 0,1.110544 -0.22437,2.0602229 -0.6724,2.8497399 -0.4452,0.790927 -1.09008,1.37548 -1.93463,1.752952 z"
     style="fill:#000000;fill-opacity:1;fill-rule:nonzero;stroke:none;stroke-width:0.352778"
     id="path6078" />
  <path
     d="M 86.585197,10.37117 V 6.0274171 h 1.17969 v 4.2996559 c 0,0.680861 0.13229,1.190625 0.39687,1.532467 0.26459,0.339019 0.66146,0.506941 1.19063,0.506941 0.63535,0 1.137,-0.201083 1.50495,-0.606425 0.37077,-0.407811 0.55668,-0.961672 0.55668,-1.664405 V 6.0274171 h 1.17969 v 7.1769119 h -1.17969 v -1.102431 c -0.28398,0.43815 -0.61454,0.763411 -0.99236,0.975783 -0.37889,0.20955 -0.81845,0.313973 -1.31727,0.313973 -0.82409,0 -1.44957,-0.254706 -1.8796,-0.765881 -0.42722,-0.513997 -0.63959,-1.265061 -0.63959,-2.254603 z m 2.9658,-4.5144979 z"
     style="fill:#000000;fill-opacity:1;fill-rule:nonzero;stroke:none;stroke-width:0.352778"
     id="path6080" />
  <path
     d="m 101.17609,9.3237721 v 0.573264 h -5.423963 c 0.0508,0.8131539 0.29492,1.4319259 0.73307,1.8577289 0.44097,0.42298 1.04987,0.633941 1.82986,0.633941 0.45226,0 0.89041,-0.05539 1.31762,-0.165452 0.425813,-0.11042 0.848793,-0.27552 1.267893,-0.496006 v 1.113367 c -0.42333,0.180622 -0.85725,0.316794 -1.301053,0.407811 -0.4452,0.09525 -0.8957,0.143228 -1.35043,0.143228 -1.14653,0 -2.05458,-0.331964 -2.72309,-0.997656 -0.66957,-0.668161 -1.0033,-1.570919 -1.0033,-2.7065119 0,-1.175455 0.31574,-2.106789 0.94827,-2.794353 0.63535,-0.690386 1.49084,-1.036461 2.56857,-1.036461 0.96591,0 1.73073,0.311503 2.293063,0.931686 0.56232,0.621242 0.84349,1.466145 0.84349,2.535414 z m -1.179693,-0.347133 c -0.0109,-0.642056 -0.19297,-1.157464 -0.54575,-1.543403 -0.34995,-0.385939 -0.81421,-0.578908 -1.39453,-0.578908 -0.65864,0 -1.18498,0.187325 -1.58185,0.562328 -0.39441,0.37218 -0.6216,0.89288 -0.68369,1.565275 z"
     style="fill:#000000;fill-opacity:1;fill-rule:nonzero;stroke:none;stroke-width:0.352778"
     id="path6082" />
  <path
     d="m 107.26433,7.1298471 c -0.13229,-0.07691 -0.27588,-0.132291 -0.43004,-0.1651 -0.15452,-0.03598 -0.32526,-0.05539 -0.51259,-0.05539 -0.66992,0 -1.18251,0.218017 -1.53811,0.650522 -0.35665,0.43427 -0.53445,1.055511 -0.53445,1.86302 V 13.204325 H 103.0638 V 6.0274131 h 1.18534 v 1.119011 c 0.24941,-0.436739 0.57326,-0.760589 0.97013,-0.970139 0.39688,-0.212019 0.87772,-0.319617 1.44392,-0.319617 0.0801,0 0.1711,0.0056 0.27023,0.01658 0.0991,0.01094 0.20673,0.02752 0.32526,0.04974 z"
     style="fill:#000000;fill-opacity:1;fill-rule:nonzero;stroke:none;stroke-width:0.352778"
     id="path6084" />
  <path
     d="m 111.50295,13.871431 c -0.33478,0.851606 -0.66005,1.408289 -0.97543,1.67005 -0.31715,0.26035 -0.73872,0.391584 -1.26788,0.391584 h -0.94262 v -0.98672 h 0.69462 c 0.32243,0 0.57467,-0.07726 0.75494,-0.231775 0.17921,-0.154164 0.37782,-0.516466 0.59549,-1.08585 l 0.20955,-0.540102 -2.89948,-7.0612009 h 1.2513 l 2.23767,5.6116369 2.24367,-5.6116369 h 1.2513 z"
     style="fill:#000000;fill-opacity:1;fill-rule:nonzero;stroke:none;stroke-width:0.352778"
     id="path6086" />
  <path
     d="m 88.316277,35.714725 c 0,3.839281 3.11291,6.950781 6.95219,6.950781 3.83928,0 6.950783,-3.1115 6.950783,-6.950781 0,-3.83928 -3.111503,-6.952191 -6.950783,-6.952191 -3.83928,0 -6.95219,3.112911 -6.95219,6.952191 z"
     style="fill:#afdde9;fill-opacity:0.992157;fill-rule:nonzero;stroke:none;stroke-width:0.352778"
     id="path6088" />
  <g
     id="g6090"
     transform="matrix(-0.35277777,0,0,0.35277777,-159.63287,-721.70196)">
    <path
       d="m -702.848,2147.008 c 0,10.883 -8.824,19.703 -19.707,19.703 -10.883,0 -19.703,-8.82 -19.703,-19.703 0,-10.883 8.82,-19.707 19.703,-19.707 10.883,0 19.707,8.824 19.707,19.707 z"
       style="fill:none;stroke:#ff0000;stroke-width:2.26847;stroke-linecap:butt;stroke-linejoin:miter;stroke-miterlimit:4;stroke-dasharray:none;stroke-opacity:1"
       id="path6092" />
  </g>
  <g
     id="g6094"
     transform="matrix(-0.35277777,0,0,0.35277777,-159.63287,-721.70196)">
    <path
       d="m -715.273,2147.008 c 0,4.019 -3.258,7.281 -7.282,7.281 -4.019,0 -7.281,-3.262 -7.281,-7.281 0,-4.024 3.262,-7.281 7.281,-7.281 4.024,0 7.282,3.257 7.282,7.281 z"
       style="fill:#ff0000;fill-opacity:1;fill-rule:nonzero;stroke:#ff0000;stroke-width:3.63242;stroke-linecap:butt;stroke-linejoin:miter;stroke-miterlimit:4;stroke-dasharray:none;stroke-opacity:1"
       id="path6096" />
  </g>
  <g
     id="g6098"
     transform="matrix(0.35277777,0,0,0.35277777,-159.63287,-721.70196)">
    <path
       d="m 722.211,2167.078 v 285.215 h 93.734"
       style="fill:none;stroke:#ff0000;stroke-width:1.75722;stroke-linecap:butt;stroke-linejoin:miter;stroke-miterlimit:4;stroke-dasharray:none;stroke-opacity:1"
       id="path6100" />
  </g>
  <g
     id="g6102"
     transform="matrix(-0.35277777,0,0,-0.35277777,-172.86212,-721.70196)">
    <path
       d="m -797.16,-2444.496 -21.117,-7.766 21.117,-7.765 c -3.375,4.582 -3.356,10.855 0,15.531 z"
       style="fill:#ff0000;fill-opacity:1;fill-rule:evenodd;stroke:#ff0000;stroke-width:1.20808;stroke-linecap:butt;stroke-linejoin:round;stroke-miterlimit:4;stroke-dasharray:none;stroke-opacity:1"
       id="path6104" />
  </g>
  <g
     id="g6106"
     transform="matrix(0.35277777,0,0,0.35277777,-159.63287,-721.70196)">
    <path
       d="M 721.949,2367.965 H 815.91"
       style="fill:none;stroke:#ff0000;stroke-width:1.72475;stroke-linecap:butt;stroke-linejoin:miter;stroke-miterlimit:4;stroke-dasharray:none;stroke-opacity:1"
       id="path6108" />
  </g>
  <g
     id="g6110"
     transform="matrix(-0.35277777,0,0,-0.35277777,-172.86212,-721.70196)">
    <path
       d="m -797.473,-2360.312 -20.726,-7.622 20.726,-7.625 c -3.308,4.5 -3.293,10.661 0,15.247 z"
       style="fill:#ff0000;fill-opacity:1;fill-rule:evenodd;stroke:#ff0000;stroke-width:1.18576;stroke-linecap:butt;stroke-linejoin:round;stroke-miterlimit:4;stroke-dasharray:none;stroke-opacity:1"
       id="path6112" />
  </g>
  <g
     id="g6114"
     transform="matrix(0.35277777,0,0,0.35277777,-159.63287,-721.70196)">
    <path
       d="m 722.363,2282.453 h 93.961"
       style="fill:none;stroke:#ff0000;stroke-width:1.72475;stroke-linecap:butt;stroke-linejoin:miter;stroke-miterlimit:4;stroke-dasharray:none;stroke-opacity:1"
       id="path6116" />
  </g>
  <g
     id="g6118"
     transform="matrix(-0.35277777,0,0,-0.35277777,-172.86212,-721.70196)">
    <path
       d="m -797.887,-2274.797 -20.73,-7.625 20.73,-7.621 c -3.312,4.5 -3.293,10.656 0,15.246 z"
       style="fill:#ff0000;fill-opacity:1;fill-rule:evenodd;stroke:#ff0000;stroke-width:1.18576;stroke-linecap:butt;stroke-linejoin:round;stroke-miterlimit:4;stroke-dasharray:none;stroke-opacity:1"
       id="path6120" />
  </g>
  <g
     id="g6122"
     transform="matrix(0.35277777,0,0,0.35277777,-159.63287,-721.70196)">
    <path
       d="m 722.191,2198.184 h 93.961"
       style="fill:none;stroke:#ff0000;stroke-width:1.72475;stroke-linecap:butt;stroke-linejoin:miter;stroke-miterlimit:4;stroke-dasharray:none;stroke-opacity:1"
       id="path6124" />
  </g>
  <g
     id="g6126"
     transform="matrix(-0.35277777,0,0,-0.35277777,-172.86212,-721.70196)">
    <path
       d="m -797.715,-2190.531 -20.73,-7.621 20.73,-7.621 c -3.312,4.5 -3.293,10.656 0,15.242 z"
       style="fill:#ff0000;fill-opacity:1;fill-rule:evenodd;stroke:#ff0000;stroke-width:1.18576;stroke-linecap:butt;stroke-linejoin:round;stroke-miterlimit:4;stroke-dasharray:none;stroke-opacity:1"
       id="path6128" />
  </g>
  <g
     id="g6130"
     transform="matrix(0.35277777,0,0,0.35277777,-159.63287,-721.70196)">
    <path
       d="m 722.555,2099.879 v 23.746"
       style="fill:none;stroke:#ff0000;stroke-width:1.75722;stroke-linecap:butt;stroke-linejoin:miter;stroke-miterlimit:4;stroke-dasharray:none;stroke-opacity:1"
       id="path6132" />
  </g>
  <g
     id="g6134"
     transform="matrix(0,-0.35277777,0.35277777,0,-159.63287,-721.70196)">
    <path
       d="m -2104.84,730.352 -21.117,-7.766 21.117,-7.766 c -3.371,4.582 -3.351,10.856 0,15.532 z"
       style="fill:#ff0000;fill-opacity:1;fill-rule:evenodd;stroke:#ff0000;stroke-width:1.20808;stroke-linecap:butt;stroke-linejoin:round;stroke-miterlimit:4;stroke-dasharray:none;stroke-opacity:1"
       id="path6136" />
  </g>
  <g
     id="g11125"
     transform="rotate(-90,44.497255,124.77865)">
    <path
       d="m 39.713467,83.226841 h 1.92405 l 2.441575,6.509809 2.453217,-6.509809 h 1.928988 v 9.563456 h -1.262238 v -8.4007 l -2.4638,6.55955 h -1.301045 l -2.469444,-6.55955 v 8.4007 h -1.251303 z"
       style="fill:#000000;fill-opacity:1;fill-rule:nonzero;stroke:none;stroke-width:0.352778"
       id="path6184" />
    <path
       d="m 57.126578,88.909739 v 0.573263 H 51.70262 c 0.0508,0.813153 0.294922,1.431573 0.733072,1.857728 0.440972,0.422981 1.049866,0.633587 1.829858,0.633587 0.452261,0 0.890411,-0.055 1.317625,-0.165098 0.425803,-0.110419 0.848783,-0.275872 1.267883,-0.496358 v 1.113716 c -0.423333,0.18027 -0.85725,0.3168 -1.301044,0.40781 -0.445206,0.0949 -0.895703,0.14323 -1.350433,0.14323 -1.146528,0 -2.054578,-0.33196 -2.723092,-0.99765 -0.669572,-0.668517 -1.0033,-1.570923 -1.0033,-2.706515 0,-1.175455 0.315736,-2.107141 0.948267,-2.794705 0.635352,-0.690386 1.490839,-1.036108 2.568575,-1.036108 0.965905,0 1.730727,0.311502 2.293055,0.931333 0.562328,0.621594 0.843492,1.466497 0.843492,2.535767 z m -1.179689,-0.347487 c -0.01094,-0.642055 -0.19297,-1.157463 -0.545747,-1.543049 -0.349956,-0.385939 -0.814211,-0.578909 -1.394531,-0.578909 -0.658636,0 -1.18498,0.187325 -1.581855,0.562328 -0.394406,0.371828 -0.621595,0.89288 -0.683684,1.565275 z"
       style="fill:#000000;fill-opacity:1;fill-rule:nonzero;stroke:none;stroke-width:0.352778"
       id="path6186" />
    <path
       d="m 64.6478,86.991333 c 0.293511,-0.529167 0.644878,-0.917575 1.052689,-1.1684 0.410986,-0.253647 0.894644,-0.380294 1.449916,-0.380294 0.74542,0 1.320095,0.263172 1.725084,0.788105 0.408163,0.522464 0.612069,1.265061 0.612069,2.227086 v 4.332467 h -1.185333 v -4.294014 c 0,-0.686153 -0.121003,-1.196269 -0.363714,-1.526822 -0.242358,-0.333375 -0.614539,-0.50165 -1.113367,-0.50165 -0.610305,0 -1.094316,0.203905 -1.449564,0.611717 -0.352777,0.405341 -0.529166,0.95638 -0.529166,1.653822 v 4.056947 H 63.66108 v -4.294014 c 0,-0.690386 -0.123825,-1.201561 -0.369358,-1.532467 -0.242358,-0.330552 -0.617361,-0.496005 -1.124303,-0.496005 -0.603602,0 -1.083027,0.203905 -1.438627,0.611717 -0.352778,0.408163 -0.529167,0.959202 -0.529167,1.653822 v 4.056947 h -1.185333 v -7.176914 h 1.185333 v 1.119011 c 0.267405,-0.440972 0.589844,-0.766233 0.964494,-0.975783 0.377473,-0.209197 0.826911,-0.313972 1.345142,-0.313972 0.517878,0 0.95885,0.132291 1.322917,0.396875 0.366536,0.264583 0.639233,0.649111 0.815622,1.151819 z"
       style="fill:#000000;fill-opacity:1;fill-rule:nonzero;stroke:none;stroke-width:0.352778"
       id="path6188" />
    <path
       d="m 74.630352,86.440294 c -0.63253,0 -1.132769,0.248003 -1.499305,0.744008 -0.367947,0.493537 -0.551392,1.167342 -0.551392,2.023181 0,0.859719 0.182034,1.536347 0.545747,2.028472 0.364067,0.493184 0.865364,0.738362 1.50495,0.738362 0.624064,0 1.120423,-0.245178 1.48837,-0.738362 0.366536,-0.496358 0.551039,-1.171575 0.551039,-2.028472 0,-0.849136 -0.184503,-1.521531 -0.551039,-2.017536 -0.367947,-0.498828 -0.864306,-0.749653 -1.48837,-0.749653 z m 0,-0.997655 c 1.025173,0 1.829859,0.334786 2.414411,1.002947 0.5842,0.665692 0.8763,1.586441 0.8763,2.761897 0,1.176867 -0.2921,2.098675 -0.8763,2.766834 -0.584552,0.66993 -1.389238,1.0033 -2.414411,1.0033 -1.029405,0 -1.835502,-0.33337 -2.419702,-1.0033 -0.584553,-0.668159 -0.876653,-1.589967 -0.876653,-2.766834 0,-1.175456 0.2921,-2.096205 0.876653,-2.761897 0.5842,-0.668161 1.390297,-1.002947 2.419702,-1.002947 z"
       style="fill:#000000;fill-opacity:1;fill-rule:nonzero;stroke:none;stroke-width:0.352778"
       id="path6190" />
    <path
       d="m 84.024472,86.715814 c -0.132292,-0.07726 -0.27552,-0.132292 -0.430037,-0.165453 -0.154163,-0.03563 -0.325261,-0.05503 -0.512586,-0.05503 -0.669572,0 -1.182511,0.217663 -1.537758,0.650522 -0.357011,0.433916 -0.534811,1.055511 -0.534811,1.863019 v 3.781425 h -1.184981 v -7.176911 h 1.184981 v 1.119011 c 0.249414,-0.436739 0.573264,-0.760589 0.970139,-0.970139 0.396875,-0.212372 0.877711,-0.319616 1.444272,-0.319616 0.07973,0 0.170744,0.0053 0.269875,0.01658 0.09948,0.01094 0.206728,0.02752 0.325261,0.04939 z"
       style="fill:#000000;fill-opacity:1;fill-rule:nonzero;stroke:none;stroke-width:0.352778"
       id="path6192" />
    <path
       d="m 88.263449,93.457397 c -0.335139,0.85161 -0.6604,1.40829 -0.975783,1.67005 -0.317147,0.26035 -0.738717,0.39123 -1.267883,0.39123 H 85.07716 v -0.98672 h 0.69462 c 0.322439,0 0.574675,-0.0769 0.755297,-0.23142 0.178858,-0.15417 0.377472,-0.51682 0.595136,-1.08585 l 0.20955,-0.5401 -2.89948,-7.061204 h 1.251302 l 2.238023,5.611283 2.243313,-5.611283 h 1.251303 z"
       style="fill:#000000;fill-opacity:1;fill-rule:nonzero;stroke:none;stroke-width:0.352778"
       id="path6194" />
  </g>
  <path
     d="m 202.88867,44.228311 h 14.28891 V 163.42734 h -14.28891 z"
     style="fill:#ffb380;fill-opacity:0.992157;fill-rule:nonzero;stroke:none;stroke-width:0.352778"
     id="path6138" />
  <g
     id="g6140"
     transform="matrix(-0.35277777,0,0,0.35277777,-207.25798,-721.70196)">
    <path
       d="m -1162.621,2171.141 h -40.504 v 337.887 h 40.504 z"
       style="fill:none;stroke:#000000;stroke-width:1.75722;stroke-linecap:butt;stroke-linejoin:miter;stroke-miterlimit:4;stroke-dasharray:none;stroke-opacity:1"
       id="path6142" />
  </g>
  <g
     id="g6144"
     transform="matrix(0.35277777,0,0,0.35277777,-207.25798,-721.70196)">
    <path
       d="m 1203.105,2255.645 h -40.468"
       style="fill:none;stroke:#000000;stroke-width:1.75722;stroke-linecap:butt;stroke-linejoin:miter;stroke-miterlimit:4;stroke-dasharray:none;stroke-opacity:0.392157"
       id="path6146" />
  </g>
  <g
     id="g6148"
     transform="matrix(0.35277777,0,0,0.35277777,-207.25798,-721.70196)">
    <path
       d="m 1203.105,2340.051 h -40.468"
       style="fill:none;stroke:#000000;stroke-width:1.75722;stroke-linecap:butt;stroke-linejoin:miter;stroke-miterlimit:4;stroke-dasharray:none;stroke-opacity:0.392157"
       id="path6150" />
  </g>
  <g
     id="g6152"
     transform="matrix(0.35277777,0,0,0.35277777,-207.25798,-721.70196)">
    <path
       d="m 1203.105,2424.461 h -40.468"
       style="fill:none;stroke:#000000;stroke-width:1.75722;stroke-linecap:butt;stroke-linejoin:miter;stroke-miterlimit:4;stroke-dasharray:none;stroke-opacity:0.392157"
       id="path6154" />
  </g>
  <path
     d="m 206.42492,145.62159 h 1.25095 c -0.37042,0.39688 -0.6477,0.82127 -0.8322,1.27318 -0.18733,0.4519 -0.28117,0.93415 -0.28117,1.44427 0,1.0033 0.30727,1.772 0.92075,2.30399 0.61454,0.5334 1.49931,0.79939 2.65677,0.79939 1.15746,0 2.04364,-0.26599 2.65677,-0.79939 0.61066,-0.53199 0.91511,-1.30069 0.91511,-2.30399 0,-0.51012 -0.091,-0.99237 -0.27552,-1.44427 -0.18345,-0.45191 -0.46038,-0.8763 -0.83256,-1.27318 h 1.23472 c 0.28399,0.41593 0.49601,0.85443 0.63959,1.31727 0.13899,0.4632 0.2092,0.95356 0.2092,1.47179 0,1.32715 -0.40499,2.37314 -1.21815,3.13655 -0.81174,0.76059 -1.92087,1.14088 -3.32916,1.14088 -1.40688,0 -2.51636,-0.38029 -3.32952,-1.14088 -0.81138,-0.76341 -1.21814,-1.8094 -1.21814,-3.13655 0,-0.52493 0.0702,-1.01988 0.20955,-1.48272 0.13653,-0.4632 0.34431,-0.89853 0.62301,-1.30634 z"
     style="fill:#000000;fill-opacity:1;fill-rule:nonzero;stroke:none;stroke-width:0.352778"
     id="path6156" />
  <path
     d="m 208.69575,141.2736 c 0,0.58173 0.22613,1.0407 0.67804,1.37831 0.45191,0.33478 1.07209,0.50165 1.85773,0.50165 0.79092,0 1.41111,-0.16687 1.86301,-0.50165 0.45191,-0.33373 0.67804,-0.79375 0.67804,-1.37831 0,-0.57573 -0.22613,-1.03187 -0.67804,-1.36701 -0.45473,-0.33761 -1.07632,-0.50694 -1.86301,-0.50694 -0.77894,0 -1.3963,0.16933 -1.85209,0.50694 -0.45508,0.33514 -0.68368,0.79128 -0.68368,1.36701 z m -0.91511,0 c 0,-0.9398 0.30586,-1.67816 0.91511,-2.21579 0.6103,-0.53587 1.45521,-0.80469 2.53577,-0.80469 1.07738,0 1.92228,0.26882 2.53541,0.80469 0.61454,0.53763 0.9204,1.27599 0.9204,2.21579 0,0.94545 -0.30586,1.68558 -0.9204,2.22145 -0.61313,0.5334 -1.45803,0.79939 -2.53541,0.79939 -1.08056,0 -1.92547,-0.26599 -2.53577,-0.79939 -0.60925,-0.53587 -0.91511,-1.276 -0.91511,-2.22145 z"
     style="fill:#000000;fill-opacity:1;fill-rule:nonzero;stroke:none;stroke-width:0.352778"
     id="path6158" />
  <path
     d="m 210.54783,130.99895 h 3.96875 v 1.08056 h -3.93559 c -0.62018,0 -1.08585,0.12418 -1.39453,0.36936 -0.3115,0.24236 -0.46849,0.60642 -0.46849,1.09149 0,0.58138 0.18733,1.04034 0.56198,1.37795 0.37218,0.33902 0.87912,0.50694 1.52153,0.50694 h 3.7151 v 1.08585 h -6.57613 v -1.08585 h 1.01988 c -0.39687,-0.26035 -0.6918,-0.56479 -0.88759,-0.91475 -0.19402,-0.3489 -0.2921,-0.75247 -0.2921,-1.21285 0,-0.75635 0.23566,-1.32856 0.70556,-1.71415 0.46708,-0.38876 1.15499,-0.58455 2.06163,-0.58455 z"
     style="fill:#000000;fill-opacity:1;fill-rule:nonzero;stroke:none;stroke-width:0.352778"
     id="path6160" />
  <path
     d="m 206.07214,127.76363 h 1.86831 v -2.22144 h 0.83785 v 2.22144 h 3.57187 c 0.53764,0 0.88195,-0.072 1.03646,-0.2152 0.1517,-0.14605 0.22614,-0.44626 0.22614,-0.89852 v -1.10772 h 0.90381 v 1.10772 c 0,0.83538 -0.15416,1.41111 -0.46284,1.73108 -0.31151,0.31679 -0.87948,0.47378 -1.70357,0.47378 h -3.57187 v 0.78846 h -0.83785 v -0.78846 h -1.86831 z"
     style="fill:#000000;fill-opacity:1;fill-rule:nonzero;stroke:none;stroke-width:0.352778"
     id="path6162" />
  <path
     d="m 210.95564,118.48804 h 0.52917 v 4.96641 c 0.74683,-0.0469 1.3148,-0.27164 1.70321,-0.67275 0.39017,-0.39935 0.58455,-0.95885 0.58455,-1.6757 0,-0.41451 -0.0512,-0.81703 -0.15451,-1.20685 -0.10196,-0.38876 -0.25506,-0.7747 -0.45756,-1.15781 h 1.01988 c 0.16546,0.38593 0.29069,0.78281 0.37465,1.19062 0.0882,0.40816 0.1323,0.82127 0.1323,1.24037 0,1.04739 -0.30445,1.87819 -0.91476,2.49131 -0.61348,0.6149 -1.44004,0.92075 -2.48073,0.92075 -1.07597,0 -1.9304,-0.28927 -2.56293,-0.871 -0.63112,-0.5842 -0.94827,-1.36843 -0.94827,-2.35374 0,-0.88476 0.2854,-1.58468 0.85443,-2.10008 0.57044,-0.514 1.34373,-0.77153 2.32057,-0.77153 z m -0.31397,1.08021 c -0.59125,0.008 -1.06398,0.17356 -1.41675,0.496 -0.35278,0.32385 -0.52917,0.75248 -0.52917,1.28447 0,0.6036 0.17074,1.08585 0.51258,1.44956 0.34185,0.36124 0.82127,0.56797 1.43863,0.62301 z"
     style="fill:#000000;fill-opacity:1;fill-rule:nonzero;stroke:none;stroke-width:0.352778"
     id="path6164" />
  <path
     d="m 210.54783,111.2434 h 3.96875 v 1.08055 h -3.93559 c -0.62018,0 -1.08585,0.12418 -1.39453,0.36936 -0.3115,0.24236 -0.46849,0.60643 -0.46849,1.0915 0,0.58138 0.18733,1.04034 0.56198,1.37795 0.37218,0.33902 0.87912,0.50694 1.52153,0.50694 h 3.7151 v 1.08585 h -6.57613 v -1.08585 h 1.01988 c -0.39687,-0.26035 -0.6918,-0.5648 -0.88759,-0.91475 -0.19402,-0.3489 -0.2921,-0.75248 -0.2921,-1.21285 0,-0.75636 0.23566,-1.32856 0.70556,-1.71415 0.46708,-0.38876 1.15499,-0.58455 2.06163,-0.58455 z"
     style="fill:#000000;fill-opacity:1;fill-rule:nonzero;stroke:none;stroke-width:0.352778"
     id="path6166" />
  <path
     d="m 206.07214,108.00666 h 1.86831 v -2.22144 h 0.83785 v 2.22144 h 3.57187 c 0.53764,0 0.88195,-0.0716 1.03646,-0.21519 0.1517,-0.14605 0.22614,-0.44627 0.22614,-0.89853 v -1.10772 h 0.90381 v 1.10772 c 0,0.83538 -0.15416,1.41111 -0.46284,1.73108 -0.31151,0.3168 -0.87948,0.47378 -1.70357,0.47378 h -3.57187 v 0.78846 h -0.83785 v -0.78846 h -1.86831 z"
     style="fill:#000000;fill-opacity:1;fill-rule:nonzero;stroke:none;stroke-width:0.352778"
     id="path6168" />
  <path
     d="m 211.20929,97.537621 c 0,0.87489 0.10195,1.48131 0.30304,1.81892 0.19861,0.33479 0.53904,0.50165 1.01988,0.50165 0.38311,0 0.68756,-0.12665 0.9151,-0.38029 0.22472,-0.25365 0.3362,-0.5969 0.3362,-1.03082 0,-0.59796 -0.21096,-1.07774 -0.63394,-1.43863 -0.4258,-0.36371 -0.99201,-0.54575 -1.69757,-0.54575 h -0.24271 z m -0.44662,-2.15512 h 3.75391 v 1.0802 h -0.99765 c 0.4011,0.2466 0.69709,0.55528 0.88759,0.92605 0.18732,0.36794 0.28081,0.81597 0.28081,1.34514 0,0.67627 -0.18874,1.21249 -0.56762,1.609379 -0.37748,0.39687 -0.88336,0.59549 -1.51589,0.59549 -0.74119,0 -1.30069,-0.24836 -1.67569,-0.74436 -0.37465,-0.496019 -0.56233,-1.234739 -0.56233,-2.215809 v -1.51589 h -0.10442 c -0.49918,0 -0.88477,0.16405 -1.15782,0.49072 -0.27129,0.32773 -0.40781,0.78669 -0.40781,1.37795 0,0.37465 0.0469,0.74118 0.13793,1.09678 0.0882,0.35701 0.22296,0.700279 0.40217,1.030829 h -0.99765 c -0.15029,-0.39687 -0.26459,-0.779999 -0.34185,-1.151829 -0.0769,-0.37077 -0.11571,-0.73342 -0.11571,-1.0862 0,-0.95074 0.24695,-1.66194 0.73872,-2.1329 0.49318,-0.47025 1.24037,-0.70555 2.24331,-0.70555 z"
     style="fill:#000000;fill-opacity:1;fill-rule:nonzero;stroke:none;stroke-width:0.352778"
     id="path6170" />
  <path
     d="m 208.93846,88.821538 h -3.56094 V 87.74098 h 9.13906 v 1.080558 h -0.98672 c 0.39406,0.2286 0.68616,0.51682 0.87666,0.865364 0.18732,0.345722 0.28081,0.760589 0.28081,1.245658 0,0.79375 -0.31539,1.441451 -0.94792,1.940281 -0.63535,0.50024 -1.47179,0.74965 -2.50789,0.74965 -1.03223,0 -1.86479,-0.24941 -2.49732,-0.74965 -0.635,-0.49883 -0.95356,-1.146531 -0.95356,-1.940281 0,-0.485069 0.0967,-0.899936 0.28681,-1.245658 0.18733,-0.348544 0.47802,-0.636764 0.87101,-0.865364 z m 2.29306,3.681943 c 0.79763,0 1.42204,-0.16263 1.87395,-0.49036 0.45191,-0.326675 0.67804,-0.774702 0.67804,-1.345144 0,-0.573264 -0.22613,-1.02235 -0.67804,-1.350433 -0.45191,-0.330553 -1.07632,-0.496006 -1.87395,-0.496006 -0.79375,0 -1.41676,0.165453 -1.86867,0.496006 -0.45226,0.328083 -0.67804,0.777169 -0.67804,1.350433 0,0.570442 0.22578,1.018469 0.67804,1.345144 0.45191,0.32773 1.07492,0.49036 1.86867,0.49036 z"
     style="fill:#000000;fill-opacity:1;fill-rule:nonzero;stroke:none;stroke-width:0.352778"
     id="path6172" />
  <path
     d="m 208.93846,81.187074 h -3.56094 v -1.080205 h 9.13906 v 1.080205 h -0.98672 c 0.39406,0.228953 0.68616,0.51682 0.87666,0.865364 0.18732,0.346075 0.28081,0.760942 0.28081,1.246011 0,0.79375 -0.31539,1.44145 -0.94792,1.940278 -0.63535,0.500239 -1.47179,0.749653 -2.50789,0.749653 -1.03223,0 -1.86479,-0.249414 -2.49732,-0.749653 -0.635,-0.498828 -0.95356,-1.146528 -0.95356,-1.940278 0,-0.485069 0.0967,-0.899936 0.28681,-1.246011 0.18733,-0.348544 0.47802,-0.636411 0.87101,-0.865364 z m 2.29306,3.682295 c 0.79763,0 1.42204,-0.162631 1.87395,-0.490714 0.45191,-0.326672 0.67804,-0.774347 0.67804,-1.344789 0,-0.573264 -0.22613,-1.022703 -0.67804,-1.350786 -0.45191,-0.330553 -1.07632,-0.496006 -1.87395,-0.496006 -0.79375,0 -1.41676,0.165453 -1.86867,0.496006 -0.45226,0.328083 -0.67804,0.777522 -0.67804,1.350786 0,0.570442 0.22578,1.018117 0.67804,1.344789 0.45191,0.328083 1.07492,0.490714 1.86867,0.490714 z"
     style="fill:#000000;fill-opacity:1;fill-rule:nonzero;stroke:none;stroke-width:0.352778"
     id="path6174" />
  <path
     d="m 208.9494,74.06943 c -0.0692,0.121356 -0.12136,0.253647 -0.15452,0.396875 -0.0328,0.143581 -0.0494,0.301978 -0.0494,0.474133 0,0.610659 0.19826,1.079148 0.59514,1.40582 0.39687,0.32773 0.96731,0.490361 1.70885,0.490361 h 3.4671 v 1.08585 h -6.57613 v -1.08585 h 1.01988 c -0.3997,-0.227189 -0.69603,-0.523522 -0.88759,-0.887236 -0.19402,-0.364067 -0.2921,-0.80645 -0.2921,-1.328561 0,-0.07303 0.006,-0.154517 0.0166,-0.242711 0.008,-0.09066 0.0222,-0.192617 0.0441,-0.303036 z"
     style="fill:#000000;fill-opacity:1;fill-rule:nonzero;stroke:none;stroke-width:0.352778"
     id="path6176" />
  <path
     d="m 210.95564,67.558211 h 0.52917 v 4.966758 c 0.74683,-0.04692 1.3148,-0.271639 1.70321,-0.672747 0.39017,-0.399697 0.58455,-0.95885 0.58455,-1.675695 0,-0.414513 -0.0512,-0.817033 -0.15451,-1.207205 -0.10196,-0.388408 -0.25506,-0.774347 -0.45756,-1.157464 h 1.01988 c 0.16546,0.385939 0.29069,0.782814 0.37465,1.190625 0.0882,0.407811 0.1323,0.821267 0.1323,1.240367 0,1.047397 -0.30445,1.878188 -0.91476,2.491316 -0.61348,0.614892 -1.44004,0.92075 -2.48073,0.92075 -1.07597,0 -1.9304,-0.28963 -2.56293,-0.871008 -0.63112,-0.5842 -0.94827,-1.368425 -0.94827,-2.353733 0,-0.884767 0.2854,-1.584678 0.85443,-2.100086 0.57044,-0.513998 1.34373,-0.771878 2.32057,-0.771878 z m -0.31397,1.080558 c -0.59125,0.0081 -1.06398,0.173567 -1.41675,0.496006 -0.35278,0.32385 -0.52917,0.752475 -0.52917,1.284464 0,0.603602 0.17074,1.08585 0.51258,1.449563 0.34185,0.361245 0.82127,0.567973 1.43863,0.623006 z"
     style="fill:#000000;fill-opacity:1;fill-rule:nonzero;stroke:none;stroke-width:0.352778"
     id="path6178" />
  <path
     d="m 208.13342,61.591328 h 1.01988 c -0.15452,0.306211 -0.27023,0.623005 -0.34713,0.953558 -0.0801,0.328083 -0.12136,0.667103 -0.12136,1.01988 0,0.537634 0.0825,0.9398 0.24801,1.207206 0.16545,0.268817 0.41204,0.402519 0.73871,0.402519 0.25083,0 0.44627,-0.09525 0.58985,-0.286808 0.14322,-0.19438 0.2794,-0.581378 0.40781,-1.163108 l 0.0825,-0.369359 c 0.16545,-0.763411 0.39969,-1.307747 0.70026,-1.631597 0.29739,-0.322439 0.71508,-0.485069 1.25095,-0.485069 0.61066,0 1.09432,0.242711 1.44992,0.72778 0.35666,0.482248 0.53446,1.145117 0.53446,1.989667 0,0.352778 -0.0356,0.720725 -0.10443,1.102783 -0.0663,0.382764 -0.16827,0.785284 -0.30868,1.206853 h -1.11372 c 0.20673,-0.399344 0.36266,-0.79375 0.46849,-1.179336 0.10337,-0.388761 0.15452,-0.773289 0.15452,-1.152172 0,-0.509764 -0.0854,-0.901347 -0.25894,-1.174045 -0.17639,-0.275519 -0.42192,-0.413455 -0.73872,-0.413455 -0.29351,0 -0.51823,0.09913 -0.67239,0.297744 -0.15734,0.198261 -0.31009,0.632531 -0.45755,1.300692 l -0.0882,0.375003 c -0.13934,0.669572 -0.35419,1.151819 -0.64488,1.449564 -0.29386,0.297744 -0.69461,0.446616 -1.20191,0.446616 -0.62018,0 -1.0982,-0.217664 -1.43298,-0.656166 -0.33761,-0.436739 -0.5073,-1.059745 -0.5073,-1.868664 0,-0.399345 0.0303,-0.774348 0.0882,-1.124303 0.0593,-0.352778 0.14746,-0.678039 0.26458,-0.975783 z"
     style="fill:#000000;fill-opacity:1;fill-rule:nonzero;stroke:none;stroke-width:0.352778"
     id="path6180" />
  <path
     d="m 208.13342,55.318586 h 1.01988 c -0.15452,0.305858 -0.27023,0.623006 -0.34713,0.953558 -0.0801,0.328084 -0.12136,0.667103 -0.12136,1.019881 0,0.53728 0.0825,0.9398 0.24801,1.207205 0.16545,0.268464 0.41204,0.402167 0.73871,0.402167 0.25083,0 0.44627,-0.0949 0.58985,-0.286455 0.14322,-0.194381 0.2794,-0.581731 0.40781,-1.163109 l 0.0825,-0.369358 c 0.16545,-0.763411 0.39969,-1.307747 0.70026,-1.631597 0.29739,-0.322439 0.71508,-0.48507 1.25095,-0.48507 0.61066,0 1.09432,0.242711 1.44992,0.727781 0.35666,0.482247 0.53446,1.145117 0.53446,1.989666 0,0.352778 -0.0356,0.720725 -0.10443,1.102431 -0.0663,0.383117 -0.16827,0.785636 -0.30868,1.207206 h -1.11372 c 0.20673,-0.399698 0.36266,-0.79375 0.46849,-1.179689 0.10337,-0.388409 0.15452,-0.772936 0.15452,-1.15182 0,-0.510116 -0.0854,-0.901347 -0.25894,-1.174044 -0.17639,-0.275872 -0.42192,-0.413456 -0.73872,-0.413456 -0.29351,0 -0.51823,0.09913 -0.67239,0.297392 -0.15734,0.198614 -0.31009,0.63253 -0.45755,1.301044 l -0.0882,0.37465 c -0.13934,0.669925 -0.35419,1.152173 -0.64488,1.449917 -0.29386,0.297744 -0.69461,0.446617 -1.20191,0.446617 -0.62018,0 -1.0982,-0.218017 -1.43298,-0.656167 -0.33761,-0.436739 -0.5073,-1.059744 -0.5073,-1.868664 0,-0.399697 0.0303,-0.774347 0.0882,-1.124303 0.0593,-0.352777 0.14746,-0.678038 0.26458,-0.975783 z"
     style="fill:#000000;fill-opacity:1;fill-rule:nonzero;stroke:none;stroke-width:0.352778"
     id="path6182" />
  <g
     id="g6216"
     transform="matrix(0.16783277,0,0,0.35277777,7.0533937,-721.70196)">
    <path
       d="m 1069.312,2216.293 h 89.473"
       style="fill:none;stroke:#ff6600;stroke-width:1.75722;stroke-linecap:butt;stroke-linejoin:miter;stroke-miterlimit:4;stroke-dasharray:none;stroke-opacity:1"
       id="path6218" />
  </g>
  <g
     id="g6220"
     transform="matrix(-0.35277777,0,0,-0.35277777,-207.25798,-721.70196)">
    <path
       d="m -1140,-2208.496 -21.121,-7.766 21.121,-7.765 c -3.375,4.586 -3.355,10.859 0,15.531 z"
       style="fill:#ff6600;fill-opacity:1;fill-rule:evenodd;stroke:#ff6600;stroke-width:1.20808;stroke-linecap:butt;stroke-linejoin:round;stroke-miterlimit:4;stroke-dasharray:none;stroke-opacity:1"
       id="path6222" />
  </g>
  <g
     id="g6224"
     transform="matrix(0.16783277,0,0,0.35277777,7.0533937,-721.70196)">
    <path
       d="m 1069.312,2300.535 h 89.473"
       style="fill:none;stroke:#ff6600;stroke-width:1.75722;stroke-linecap:butt;stroke-linejoin:miter;stroke-miterlimit:4;stroke-dasharray:none;stroke-opacity:1"
       id="path6226" />
  </g>
  <g
     id="g6228"
     transform="matrix(-0.35277777,0,0,-0.35277777,-207.25798,-721.70196)">
    <path
       d="m -1140,-2292.738 -21.121,-7.77 21.121,-7.765 c -3.375,4.585 -3.355,10.859 0,15.535 z"
       style="fill:#ff6600;fill-opacity:1;fill-rule:evenodd;stroke:#ff6600;stroke-width:1.20808;stroke-linecap:butt;stroke-linejoin:round;stroke-miterlimit:4;stroke-dasharray:none;stroke-opacity:1"
       id="path6230" />
  </g>
  <g
     id="g6232"
     transform="matrix(0.16783277,0,0,0.35277777,7.0533937,-721.70196)">
    <path
       d="m 1069.312,2384.781 h 89.473"
       style="fill:none;stroke:#ff6600;stroke-width:1.75722;stroke-linecap:butt;stroke-linejoin:miter;stroke-miterlimit:4;stroke-dasharray:none;stroke-opacity:1"
       id="path6234" />
  </g>
  <g
     id="g6236"
     transform="matrix(-0.35277777,0,0,-0.35277777,-207.25798,-721.70196)">
    <path
       d="m -1140,-2376.984 -21.121,-7.766 21.121,-7.77 c -3.375,4.586 -3.355,10.86 0,15.536 z"
       style="fill:#ff6600;fill-opacity:1;fill-rule:evenodd;stroke:#ff6600;stroke-width:1.20808;stroke-linecap:butt;stroke-linejoin:round;stroke-miterlimit:4;stroke-dasharray:none;stroke-opacity:1"
       id="path6238" />
  </g>
  <g
     id="g6240"
     transform="matrix(0.16783277,0,0,0.35277777,7.0533937,-721.70196)">
    <path
       d="m 1069.312,2469.027 h 89.473"
       style="fill:none;stroke:#ff6600;stroke-width:1.75722;stroke-linecap:butt;stroke-linejoin:miter;stroke-miterlimit:4;stroke-dasharray:none;stroke-opacity:1"
       id="path6242" />
  </g>
  <g
     id="g6244"
     transform="matrix(-0.35277777,0,0,-0.35277777,-207.25798,-721.70196)">
    <path
       d="m -1140,-2461.23 -21.121,-7.766 21.121,-7.766 c -3.375,4.582 -3.355,10.856 0,15.532 z"
       style="fill:#ff6600;fill-opacity:1;fill-rule:evenodd;stroke:#ff6600;stroke-width:1.20808;stroke-linecap:butt;stroke-linejoin:round;stroke-miterlimit:4;stroke-dasharray:none;stroke-opacity:1"
       id="path6246" />
  </g>
  <g
     id="g5844"
     transform="matrix(-0.35277777,0,0,0.35277777,-172.86212,-721.70196)">
    <path
       d="m -819.746,2187.078 h -114.785 v 58.426 h 114.785 z"
       style="fill:#ffffff;fill-opacity:1;fill-rule:nonzero;stroke:#000000;stroke-width:1.75722;stroke-linecap:butt;stroke-linejoin:miter;stroke-miterlimit:4;stroke-dasharray:none;stroke-opacity:1"
       id="path5846" />
  </g>
  <path
     d="m 130.6714,56.108103 v 1.361722 c -0.43815,-0.403931 -0.9024,-0.705556 -1.39453,-0.904169 -0.49318,-0.201084 -1.01706,-0.303037 -1.57092,-0.303037 -1.09573,0 -1.93357,0.334787 -2.51354,1.0033 -0.58173,0.665339 -0.87101,1.630186 -0.87101,2.893836 0,1.260828 0.28928,2.225323 0.87101,2.893836 0.57997,0.669573 1.41781,1.0033 2.51354,1.0033 0.55386,0 1.07774,-0.09948 1.57092,-0.297744 0.49213,-0.201083 0.95638,-0.507294 1.39453,-0.915106 v 1.350434 c -0.45191,0.30868 -0.93133,0.540455 -1.43863,0.694619 -0.50694,0.154517 -1.04175,0.231422 -1.60408,0.231422 -1.44815,0 -2.58939,-0.442383 -3.423,-1.328208 -0.83079,-0.889 -1.24566,-2.100086 -1.24566,-3.632553 0,-1.535288 0.41487,-2.746375 1.24566,-3.632552 0.83361,-0.884767 1.97485,-1.328561 3.423,-1.328561 0.57327,0 1.1109,0.07585 1.61502,0.22613 0.50729,0.151695 0.98249,0.378884 1.42769,0.683331 z"
     style="fill:#000000;fill-opacity:1;fill-rule:nonzero;stroke:none;stroke-width:0.352778"
     id="path5848" />
  <path
     d="m 132.68611,55.369739 h 1.9237 l 2.44193,6.509808 2.45286,-6.509808 h 1.92935 v 9.563452 h -1.26224 v -8.400344 l -2.46416,6.559197 h -1.30069 l -2.46944,-6.559197 v 8.400344 h -1.25131 z"
     style="fill:#000000;fill-opacity:1;fill-rule:nonzero;stroke:none;stroke-width:0.352778"
     id="path5850" />
  <path
     d="m 145.30356,56.433364 v 3.5941 h 1.6316 c 0.59796,0 1.06116,-0.155928 1.38889,-0.468489 0.3309,-0.311503 0.496,-0.756708 0.496,-1.334206 0,-0.56903 -0.1651,-1.010002 -0.496,-1.322916 -0.32773,-0.31115 -0.79093,-0.468489 -1.38889,-0.468489 z m -1.2901,-1.063625 h 2.9217 c 1.06927,0 1.87678,0.242358 2.42535,0.727428 0.55104,0.485069 0.82656,1.194858 0.82656,2.127602 0,0.945445 -0.27552,1.659467 -0.82656,2.144536 -0.54857,0.482248 -1.35608,0.721784 -2.42535,0.721784 h -1.6316 v 3.842102 h -1.2901 z"
     style="fill:#000000;fill-opacity:1;fill-rule:nonzero;stroke:none;stroke-width:0.352778"
     id="path5852" />
  <g
     id="g5880"
     transform="matrix(-0.35277777,0,0,0.35277777,-172.86212,-721.70196)">
    <path
       d="m -819.746,2271.324 h -114.785 v 58.426 h 114.785 z"
       style="fill:#ffffff;fill-opacity:1;fill-rule:nonzero;stroke:#000000;stroke-width:1.75722;stroke-linecap:butt;stroke-linejoin:miter;stroke-miterlimit:4;stroke-dasharray:none;stroke-opacity:1"
       id="path5882" />
  </g>
  <path
     d="m 130.6714,85.828219 v 1.361722 c -0.43815,-0.403931 -0.9024,-0.705556 -1.39453,-0.904169 -0.49318,-0.201084 -1.01706,-0.303037 -1.57092,-0.303037 -1.09573,0 -1.93357,0.334787 -2.51354,1.0033 -0.58173,0.665339 -0.87101,1.630186 -0.87101,2.893836 0,1.260828 0.28928,2.22532 0.87101,2.89384 0.57997,0.66957 1.41781,1.0033 2.51354,1.0033 0.55386,0 1.07774,-0.0995 1.57092,-0.29775 0.49213,-0.20108 0.95638,-0.50729 1.39453,-0.9151 v 1.35043 c -0.45191,0.30868 -0.93133,0.54046 -1.43863,0.69462 -0.50694,0.15452 -1.04175,0.23142 -1.60408,0.23142 -1.44815,0 -2.58939,-0.44238 -3.423,-1.32821 -0.83079,-0.889 -1.24566,-2.100083 -1.24566,-3.63255 0,-1.535288 0.41487,-2.746374 1.24566,-3.632552 0.83361,-0.884767 1.97485,-1.328561 3.423,-1.328561 0.57327,0 1.1109,0.07585 1.61502,0.22613 0.50729,0.151695 0.98249,0.378884 1.42769,0.683331 z"
     style="fill:#000000;fill-opacity:1;fill-rule:nonzero;stroke:none;stroke-width:0.352778"
     id="path5884" />
  <path
     d="m 132.68611,85.089855 h 1.9237 l 2.44193,6.509808 2.45286,-6.509808 h 1.92935 v 9.563456 h -1.26224 v -8.400348 l -2.46416,6.559198 h -1.30069 l -2.46944,-6.559198 v 8.400348 h -1.25131 z"
     style="fill:#000000;fill-opacity:1;fill-rule:nonzero;stroke:none;stroke-width:0.352778"
     id="path5886" />
  <path
     d="m 145.30356,86.15348 v 3.5941 h 1.6316 c 0.59796,0 1.06116,-0.155928 1.38889,-0.468489 0.3309,-0.311503 0.496,-0.756708 0.496,-1.334206 0,-0.56903 -0.1651,-1.010002 -0.496,-1.322916 -0.32773,-0.31115 -0.79093,-0.468489 -1.38889,-0.468489 z m -1.2901,-1.063625 h 2.9217 c 1.06927,0 1.87678,0.242358 2.42535,0.727428 0.55104,0.485069 0.82656,1.194858 0.82656,2.127602 0,0.945445 -0.27552,1.659467 -0.82656,2.144536 -0.54857,0.482248 -1.35608,0.722137 -2.42535,0.722137 h -1.6316 v 3.841753 h -1.2901 z"
     style="fill:#000000;fill-opacity:1;fill-rule:nonzero;stroke:none;stroke-width:0.352778"
     id="path5888" />
  <g
     id="g5916"
     transform="matrix(-0.35277777,0,0,0.35277777,-172.86212,-721.70196)">
    <path
       d="m -819.746,2355.57 h -114.785 v 58.426 h 114.785 z"
       style="fill:#ffffff;fill-opacity:1;fill-rule:nonzero;stroke:#000000;stroke-width:1.75722;stroke-linecap:butt;stroke-linejoin:miter;stroke-miterlimit:4;stroke-dasharray:none;stroke-opacity:1"
       id="path5918" />
  </g>
  <path
     d="m 130.6714,115.54729 v 1.36136 c -0.43815,-0.40357 -0.9024,-0.70555 -1.39453,-0.90381 -0.49318,-0.20144 -1.01706,-0.30339 -1.57092,-0.30339 -1.09573,0 -1.93357,0.33479 -2.51354,1.0033 -0.58173,0.66569 -0.87101,1.63019 -0.87101,2.89384 0,1.26082 0.28928,2.22567 0.87101,2.89383 0.57997,0.66993 1.41781,1.0033 2.51354,1.0033 0.55386,0 1.07774,-0.0991 1.57092,-0.29774 0.49213,-0.20109 0.95638,-0.50694 1.39453,-0.91511 v 1.35079 c -0.45191,0.30868 -0.93133,0.5401 -1.43863,0.69426 -0.50694,0.15452 -1.04175,0.23178 -1.60408,0.23178 -1.44815,0 -2.58939,-0.44238 -3.423,-1.32856 -0.83079,-0.889 -1.24566,-2.10009 -1.24566,-3.63255 0,-1.53494 0.41487,-2.74638 1.24566,-3.63256 0.83361,-0.88476 1.97485,-1.32821 3.423,-1.32821 0.57327,0 1.1109,0.0755 1.61502,0.22578 0.50729,0.1517 0.98249,0.37889 1.42769,0.68369 z"
     style="fill:#000000;fill-opacity:1;fill-rule:nonzero;stroke:none;stroke-width:0.352778"
     id="path5920" />
  <path
     d="m 132.68611,114.80857 h 1.9237 l 2.44193,6.50981 2.45286,-6.50981 h 1.92935 v 9.56345 h -1.26224 v -8.40034 l -2.46416,6.55955 h -1.30069 l -2.46944,-6.55955 v 8.40034 h -1.25131 z"
     style="fill:#000000;fill-opacity:1;fill-rule:nonzero;stroke:none;stroke-width:0.352778"
     id="path5922" />
  <path
     d="m 145.30356,115.87255 v 3.59374 h 1.6316 c 0.59796,0 1.06116,-0.15557 1.38889,-0.46849 0.3309,-0.3115 0.496,-0.7567 0.496,-1.33385 0,-0.56938 -0.1651,-1.01035 -0.496,-1.32291 -0.32773,-0.31151 -0.79093,-0.46849 -1.38889,-0.46849 z m -1.2901,-1.06398 h 2.9217 c 1.06927,0 1.87678,0.24236 2.42535,0.72743 0.55104,0.48507 0.82656,1.19485 0.82656,2.12795 0,0.94509 -0.27552,1.65912 -0.82656,2.14419 -0.54857,0.48224 -1.35608,0.72213 -2.42535,0.72213 h -1.6316 v 3.84175 h -1.2901 z"
     style="fill:#000000;fill-opacity:1;fill-rule:nonzero;stroke:none;stroke-width:0.352778"
     id="path5924" />
  <g
     id="g5952"
     transform="matrix(-0.35277777,0,0,0.35277777,-172.86212,-721.70196)">
    <path
       d="m -819.746,2439.816 h -114.785 v 58.426 h 114.785 z"
       style="fill:#ffffff;fill-opacity:1;fill-rule:nonzero;stroke:#000000;stroke-width:1.75722;stroke-linecap:butt;stroke-linejoin:miter;stroke-miterlimit:4;stroke-dasharray:none;stroke-opacity:1"
       id="path5954" />
  </g>
  <path
     d="m 130.6714,145.2674 v 1.36137 c -0.43815,-0.40358 -0.9024,-0.70555 -1.39453,-0.90382 -0.49318,-0.20143 -1.01706,-0.30338 -1.57092,-0.30338 -1.09573,0 -1.93357,0.33513 -2.51354,1.0033 -0.58173,0.66569 -0.87101,1.63018 -0.87101,2.89383 0,1.26083 0.28928,2.22568 0.87101,2.89384 0.57997,0.66992 1.41781,1.0033 2.51354,1.0033 0.55386,0 1.07774,-0.0991 1.57092,-0.29775 0.49213,-0.20108 0.95638,-0.50694 1.39453,-0.91475 v 1.35043 c -0.45191,0.30868 -0.93133,0.54011 -1.43863,0.69427 -0.50694,0.15452 -1.04175,0.23178 -1.60408,0.23178 -1.44815,0 -2.58939,-0.44239 -3.423,-1.32857 -0.83079,-0.889 -1.24566,-2.10008 -1.24566,-3.63255 0,-1.53493 0.41487,-2.74637 1.24566,-3.63255 0.83361,-0.88477 1.97485,-1.32821 3.423,-1.32821 0.57327,0 1.1109,0.0759 1.61502,0.22578 0.50729,0.15169 0.98249,0.37923 1.42769,0.68368 z"
     style="fill:#000000;fill-opacity:1;fill-rule:nonzero;stroke:none;stroke-width:0.352778"
     id="path5956" />
  <path
     d="m 132.68611,144.52868 h 1.9237 l 2.44193,6.50981 2.45286,-6.50981 h 1.92935 v 9.56346 h -1.26224 v -8.40035 l -2.46416,6.55955 h -1.30069 l -2.46944,-6.55955 v 8.40035 h -1.25131 z"
     style="fill:#000000;fill-opacity:1;fill-rule:nonzero;stroke:none;stroke-width:0.352778"
     id="path5958" />
  <path
     d="m 145.30356,145.59266 v 3.59375 h 1.6316 c 0.59796,0 1.06116,-0.15558 1.38889,-0.46849 0.3309,-0.3115 0.496,-0.75635 0.496,-1.33385 0,-0.56903 -0.1651,-1.01 -0.496,-1.32292 -0.32773,-0.3115 -0.79093,-0.46849 -1.38889,-0.46849 z m -1.2901,-1.06398 h 2.9217 c 1.06927,0 1.87678,0.24272 2.42535,0.72779 0.55104,0.48506 0.82656,1.1945 0.82656,2.1276 0,0.94509 -0.27552,1.65911 -0.82656,2.14418 -0.54857,0.48225 -1.35608,0.72214 -2.42535,0.72214 h -1.6316 v 3.84175 h -1.2901 z"
     style="fill:#000000;fill-opacity:1;fill-rule:nonzero;stroke:none;stroke-width:0.352778"
     id="path5960" />
  <g
     id="g5988"
     transform="matrix(0.16311062,0,0,0.35277777,4.3877852,-721.70196)"
     style="stroke-width:1.47028;stroke-miterlimit:4;stroke-dasharray:none">
    <path
       d="m 934.531,2216.293 h 89.477"
       style="fill:none;stroke:#ff6600;stroke-width:1.47028;stroke-linecap:butt;stroke-linejoin:miter;stroke-miterlimit:4;stroke-dasharray:none;stroke-opacity:1"
       id="path5990" />
  </g>
  <g
     id="g5992"
     transform="matrix(-0.35277777,0,0,-0.35277777,-190.32463,-721.70196)">
    <path
       d="m -1005.223,-2208.496 -21.117,-7.766 21.117,-7.765 c -3.375,4.586 -3.355,10.859 0,15.531 z"
       style="fill:#ff6600;fill-opacity:1;fill-rule:evenodd;stroke:#ff6600;stroke-width:1.20808;stroke-linecap:butt;stroke-linejoin:round;stroke-miterlimit:4;stroke-dasharray:none;stroke-opacity:1"
       id="path5994" />
  </g>
  <g
     id="g5996"
     transform="matrix(0.16311062,0,0,0.35277777,4.3877852,-721.70196)"
     style="stroke-width:1.47028;stroke-miterlimit:4;stroke-dasharray:none">
    <path
       d="m 934.531,2300.539 h 89.477"
       style="fill:none;stroke:#ff6600;stroke-width:1.47028;stroke-linecap:butt;stroke-linejoin:miter;stroke-miterlimit:4;stroke-dasharray:none;stroke-opacity:1"
       id="path5998" />
  </g>
  <g
     id="g6000"
     transform="matrix(-0.35277777,0,0,-0.35277777,-190.32463,-721.70196)">
    <path
       d="m -1005.223,-2292.742 -21.117,-7.766 21.117,-7.765 c -3.375,4.585 -3.355,10.859 0,15.531 z"
       style="fill:#ff6600;fill-opacity:1;fill-rule:evenodd;stroke:#ff6600;stroke-width:1.20808;stroke-linecap:butt;stroke-linejoin:round;stroke-miterlimit:4;stroke-dasharray:none;stroke-opacity:1"
       id="path6002" />
  </g>
  <g
     id="g6004"
     transform="matrix(0.16311062,0,0,0.35277777,4.3877852,-721.70196)"
     style="stroke-width:1.47028;stroke-miterlimit:4;stroke-dasharray:none">
    <path
       d="m 934.531,2384.781 h 89.477"
       style="fill:none;stroke:#ff6600;stroke-width:1.47028;stroke-linecap:butt;stroke-linejoin:miter;stroke-miterlimit:4;stroke-dasharray:none;stroke-opacity:1"
       id="path6006" />
  </g>
  <g
     id="g6008"
     transform="matrix(-0.35277777,0,0,-0.35277777,-190.32463,-721.70196)">
    <path
       d="m -1005.223,-2376.984 -21.117,-7.77 21.117,-7.766 c -3.375,4.586 -3.355,10.86 0,15.536 z"
       style="fill:#ff6600;fill-opacity:1;fill-rule:evenodd;stroke:#ff6600;stroke-width:1.20808;stroke-linecap:butt;stroke-linejoin:round;stroke-miterlimit:4;stroke-dasharray:none;stroke-opacity:1"
       id="path6010" />
  </g>
  <g
     id="g6012"
     transform="matrix(0.16311062,0,0,0.35277777,4.3877852,-721.70196)"
     style="stroke-width:1.47028;stroke-miterlimit:4;stroke-dasharray:none">
    <path
       d="m 934.531,2469.027 h 89.477"
       style="fill:none;stroke:#ff6600;stroke-width:1.47028;stroke-linecap:butt;stroke-linejoin:miter;stroke-miterlimit:4;stroke-dasharray:none;stroke-opacity:1"
       id="path6014" />
  </g>
  <g
     id="g6016"
     transform="matrix(-0.35277777,0,0,-0.35277777,-190.32463,-721.70196)">
    <path
       d="m -1005.223,-2461.23 -21.117,-7.766 21.117,-7.77 c -3.375,4.586 -3.355,10.86 0,15.536 z"
       style="fill:#ff6600;fill-opacity:1;fill-rule:evenodd;stroke:#ff6600;stroke-width:1.20808;stroke-linecap:butt;stroke-linejoin:round;stroke-miterlimit:4;stroke-dasharray:none;stroke-opacity:1"
       id="path6018" />
  </g>
  <path
     d="M 172.30189,44.228311 H 186.5908 V 163.42734 h -14.28891 z"
     style="fill:#ffffff;fill-opacity:0.992157;fill-rule:nonzero;stroke:none;stroke-width:0.352778"
     id="path6196" />
  <g
     id="g6198"
     transform="matrix(-0.35277777,0,0,0.35277777,-190.32463,-721.70196)">
    <path
       d="m -1027.918,2171.141 h -40.504 v 337.887 h 40.504 z"
       style="fill:none;stroke:#000000;stroke-width:1.75722;stroke-linecap:butt;stroke-linejoin:miter;stroke-miterlimit:4;stroke-dasharray:none;stroke-opacity:1"
       id="path6200" />
  </g>
  <path
     d="m 175.4522,122.56157 h 1.15181 c -0.21201,0.4519 -0.37182,0.87912 -0.47942,1.27846 -0.10619,0.39723 -0.15981,0.78141 -0.15981,1.15217 0,0.6477 0.12665,1.14653 0.3803,1.49931 0.25082,0.34996 0.60501,0.52352 1.06397,0.52352 0.38982,0 0.68333,-0.11571 0.88195,-0.34713 0.19544,-0.23425 0.35278,-0.67804 0.47378,-1.32856 l 0.14887,-0.71649 c 0.16969,-0.88477 0.46708,-1.53776 0.89288,-1.95686 0.42333,-0.42157 0.99095,-0.63359 1.70357,-0.63359 0.84878,0 1.49366,0.28504 1.93463,0.85407 0.43815,0.5708 0.65581,1.40582 0.65581,2.50825 0,0.41593 -0.048,0.8569 -0.14323,1.32292 -0.091,0.46708 -0.2286,0.95215 -0.41345,1.45521 h -1.22379 c 0.27305,-0.48119 0.47696,-0.95356 0.61207,-1.41676 0.13653,-0.46284 0.20391,-0.91651 0.20391,-1.36137 0,-0.67521 -0.13229,-1.19768 -0.39688,-1.56562 -0.2674,-0.37077 -0.6477,-0.55669 -1.14088,-0.55669 -0.43004,0 -0.76623,0.13229 -1.00894,0.39688 -0.24236,0.26458 -0.4244,0.69885 -0.54575,1.30104 l -0.14323,0.72179 c -0.17639,0.88617 -0.45191,1.52717 -0.82691,1.92405 -0.37465,0.39405 -0.89853,0.58984 -1.57092,0.58984 -0.77435,0 -1.38501,-0.27164 -1.82986,-0.81597 -0.44379,-0.54716 -0.6671,-1.3007 -0.6671,-2.2599 0,-0.41063 0.0374,-0.82973 0.11042,-1.25695 0.0741,-0.4258 0.18591,-0.86254 0.3362,-1.31162 z"
     style="fill:#000000;fill-opacity:1;fill-rule:nonzero;stroke:none;stroke-width:0.352778"
     id="path6202" />
  <path
     d="m 178.10896,117.68159 c 0,0.58173 0.22614,1.0407 0.67804,1.3783 0.45191,0.33479 1.0721,0.50165 1.85738,0.50165 0.79128,0 1.41111,-0.16686 1.86337,-0.50165 0.45191,-0.33372 0.67804,-0.79375 0.67804,-1.3783 0,-0.57573 -0.22613,-1.03187 -0.67804,-1.36701 -0.45473,-0.33761 -1.07632,-0.50694 -1.86337,-0.50694 -0.77858,0 -1.39594,0.16933 -1.85208,0.50694 -0.45474,0.33514 -0.68334,0.79128 -0.68334,1.36701 z m -0.9151,0 c 0,-0.9398 0.30586,-1.67816 0.9151,-2.2158 0.61031,-0.53587 1.45521,-0.80468 2.53542,-0.80468 1.07773,0 1.92264,0.26881 2.53577,0.80468 0.61453,0.53764 0.92039,1.276 0.92039,2.2158 0,0.94545 -0.30586,1.68557 -0.92039,2.22144 -0.61313,0.5334 -1.45804,0.7994 -2.53577,0.7994 -1.08021,0 -1.92511,-0.266 -2.53542,-0.7994 -0.60924,-0.53587 -0.9151,-1.27599 -0.9151,-2.22144 z"
     style="fill:#000000;fill-opacity:1;fill-rule:nonzero;stroke:none;stroke-width:0.352778"
     id="path6204" />
  <path
     d="m 174.79074,109.54583 h 0.89852 v 1.03611 c 0,0.38594 0.0797,0.65475 0.23672,0.80504 0.15451,0.15134 0.43568,0.22577 0.84349,0.22577 h 0.5842 v -1.78046 h 0.83784 v 1.78046 h 5.73829 v 1.08585 h -5.73829 v 1.03647 h -0.83784 v -1.03647 h -0.45756 c -0.73448,0 -1.26894,-0.16792 -1.60372,-0.50694 -0.33373,-0.34184 -0.50165,-0.88194 -0.50165,-1.62066 z"
     style="fill:#000000;fill-opacity:1;fill-rule:nonzero;stroke:none;stroke-width:0.352778"
     id="path6206" />
  <path
     d="m 175.485,107.78864 h 1.86867 v -2.22108 h 0.83784 v 2.22108 h 3.57188 c 0.53763,0 0.88194,-0.0716 1.03646,-0.21484 0.15134,-0.14605 0.22578,-0.44626 0.22578,-0.89852 v -1.10772 h 0.90417 v 1.10772 c 0,0.83502 -0.15452,1.41111 -0.4632,1.73073 -0.31115,0.31714 -0.87912,0.47413 -1.70321,0.47413 h -3.57188 v 0.78846 h -0.83784 v -0.78846 H 175.485 Z"
     style="fill:#000000;fill-opacity:1;fill-rule:nonzero;stroke:none;stroke-width:0.352778"
     id="path6208" />
  <path
     d="m 178.61591,99.016111 c -0.48507,-0.26705 -0.84314,-0.58985 -1.07456,-0.9645 -0.23178,-0.37747 -0.34749,-0.82126 -0.34749,-1.32856 0,-0.68615 0.2413,-1.21532 0.72214,-1.5875 0.47836,-0.37041 1.16028,-0.55668 2.04505,-0.55668 h 3.96875 v 1.08585 h -3.93559 c -0.62865,0 -1.09432,0.11324 -1.40018,0.3362 -0.30868,0.22048 -0.46319,0.56091 -0.46319,1.01988 0,0.5595 0.18767,1.00189 0.56232,1.32856 0.37219,0.32385 0.87913,0.48507 1.52154,0.48507 h 3.7151 v 1.08585 h -3.93559 c -0.63112,0 -1.09996,0.112899 -1.40582,0.336209 -0.30445,0.22472 -0.45755,0.57044 -0.45755,1.0361 0,0.5514 0.18767,0.99096 0.56232,1.31763 0.37501,0.32385 0.88195,0.48507 1.52154,0.48507 h 3.7151 v 1.08585 h -6.57613 v -1.08585 h 1.01988 c -0.40393,-0.24553 -0.70132,-0.54152 -0.89288,-0.88759 -0.19015,-0.34431 -0.28681,-0.75494 -0.28681,-1.22908 0,-0.47695 0.12135,-0.88335 0.36371,-1.218149 0.24271,-0.33373 0.59549,-0.58173 1.05834,-0.74436 z"
     style="fill:#000000;fill-opacity:1;fill-rule:nonzero;stroke:none;stroke-width:0.352778"
     id="path6210" />
  <path
     d="m 180.62251,89.426552 c 0,0.874889 0.10195,1.481314 0.30303,1.818922 0.19862,0.334786 0.53905,0.50165 1.01988,0.50165 0.38312,0 0.68757,-0.127 0.91511,-0.380294 0.22437,-0.253647 0.3362,-0.5969 0.3362,-1.030817 0,-0.597958 -0.21097,-1.077736 -0.63395,-1.438628 -0.4258,-0.364066 -0.99236,-0.545747 -1.69792,-0.545747 h -0.24235 z m -0.44662,-2.155472 h 3.75391 v 1.080558 h -0.99766 c 0.40111,0.246592 0.69709,0.555272 0.88724,0.926042 0.18768,0.367947 0.28116,0.815622 0.28116,1.344789 0,0.676627 -0.18873,1.21285 -0.56762,1.609722 -0.37747,0.39688 -0.88335,0.59514 -1.51588,0.59514 -0.74154,0 -1.30069,-0.248 -1.6757,-0.74401 -0.37465,-0.496005 -0.56233,-1.234722 -0.56233,-2.215797 v -1.515886 h -0.10477 c -0.49883,0 -0.88441,0.164042 -1.15746,0.490361 -0.27129,0.328084 -0.40782,0.787047 -0.40782,1.378303 0,0.37465 0.0469,0.741186 0.13794,1.096786 0.0882,0.357011 0.22296,0.699913 0.40217,1.030813 h -0.99766 c -0.15028,-0.39687 -0.26458,-0.779988 -0.34184,-1.152168 -0.0769,-0.370417 -0.11571,-0.733073 -0.11571,-1.08585 0,-0.950737 0.24659,-1.661937 0.73872,-2.133248 0.49318,-0.4699 1.24036,-0.705555 2.24331,-0.705555 z"
     style="fill:#000000;fill-opacity:1;fill-rule:nonzero;stroke:none;stroke-width:0.352778"
     id="path6212" />
  <path
     d="m 177.35367,79.569236 3.19722,2.38125 3.37891,-2.502253 v 1.273175 l -2.58516,1.918052 2.58516,1.912762 v 1.273527 l -3.43959,-2.552347 -3.13654,2.337153 V 84.33738 l 2.34279,-1.747308 -2.34279,-1.742017 z"
     style="fill:#000000;fill-opacity:1;fill-rule:nonzero;stroke:none;stroke-width:0.352778"
     id="path6214" />
</svg>
