<?xml version="1.0" encoding="UTF-8" standalone="no"?>
<!-- Created with Inkscape (http://www.inkscape.org/) -->

<svg
   width="82.549675mm"
   height="31.929806mm"
   viewBox="0 0 82.549675 31.929806"
   version="1.1"
   id="svg5545"
   xmlns="http://www.w3.org/2000/svg"
   xmlns:svg="http://www.w3.org/2000/svg">
  <defs
     id="defs5542">
    <clipPath
       clipPathUnits="userSpaceOnUse"
       id="clipPath1114">
      <path
         d="M 0,0 H 416.3833 V 174.55653 H 0 Z"
         id="path1112" />
    </clipPath>
  </defs>
  <g
     id="layer1"
     transform="translate(-157.20112,-3.549518)">
    <g
       id="g1110"
       transform="matrix(0.19825405,0,0,-0.19825405,157.20112,38.156057)" />
    <g
       id="g1360"
       transform="matrix(0.19825405,0,0,-0.19825405,157.20112,38.156057)">
      <g
         clip-path="url(#clipPath1114)"
         id="g1358">
        <g
           transform="matrix(1,0,0,-1,0,174.55653)"
           id="g1356">
          <g
             id="g1354">
            <path
               d="m 150.32,98.664 c 0.203,-0.023 0.336,-0.043 0.473,-0.043 0.473,0 0.605,0.199 0.605,0.875 v 6.93 c 0,0.742 -0.043,0.789 -1.078,0.945 v 0.227 h 3.375 v -0.227 h -0.293 c -0.586,-0.023 -0.785,-0.223 -0.785,-0.742 v -2.633 l 2,2.68 0.047,0.066 c 0.02,0.043 0.066,0.09 0.109,0.113 0.114,0.157 0.161,0.247 0.161,0.313 0,0.137 -0.137,0.203 -0.317,0.203 h -0.269 v 0.227 h 3.129 v -0.227 c -0.633,-0.023 -1.082,-0.312 -1.668,-1.035 l -2.204,-2.789 0.407,-0.383 c 1.035,-0.945 1.91,-1.621 2.34,-1.73 0.203,-0.047 0.402,-0.09 0.652,-0.09 h 0.113 v -0.203 h -2.926 v 0.203 c 0.563,0 0.719,0.066 0.719,0.269 0,0.11 -0.137,0.313 -0.336,0.492 l -1.957,1.735 v -6.008 l -0.07,-0.047 c -0.539,0.184 -0.945,0.293 -1.777,0.52 l -0.45,0.113 z"
               style="fill:#000000;fill-opacity:1;fill-rule:nonzero;stroke:none"
               id="path1116" />
            <path
               d="m 163.109,105.234 c -0.675,1.102 -1.304,1.508 -2.226,1.508 -0.809,0 -1.418,-0.406 -1.844,-1.238 -0.25,-0.539 -0.363,-1.012 -0.383,-1.891 h 4.41 c -0.113,-0.922 -0.25,-1.347 -0.609,-1.797 -0.426,-0.519 -1.102,-0.812 -1.844,-0.812 -0.722,0 -1.394,0.25 -1.937,0.742 -0.672,0.586 -1.055,1.598 -1.055,2.77 0,2 1.035,3.214 2.676,3.214 1.375,0 2.453,-0.832 3.062,-2.382 z m -4.433,-2.07 c 0.16,-1.125 0.652,-1.664 1.531,-1.664 0.879,0 1.215,0.406 1.395,1.664 z"
               style="fill:#000000;fill-opacity:1;fill-rule:nonzero;stroke:none"
               id="path1118" />
            <path
               d="m 170.23,101.141 h -1.933 v 0.203 c 0.449,0 0.699,0.133 0.699,0.359 0,0.067 -0.023,0.156 -0.07,0.246 l -1.395,3.961 -1.64,-3.625 c -0.09,-0.199 -0.161,-0.379 -0.161,-0.539 0,-0.269 0.227,-0.359 0.836,-0.402 v -0.203 h -2.949 v 0.203 c 0.383,0.043 0.606,0.199 0.719,0.449 l 1.644,3.531 0.043,0.114 0.227,0.425 c 0.406,0.723 0.629,1.239 0.629,1.465 0,0.203 -0.336,1.125 -0.586,1.551 -0.199,0.359 -0.516,0.629 -0.719,0.629 -0.066,0 -0.203,-0.02 -0.359,-0.09 -0.27,-0.09 -0.52,-0.156 -0.742,-0.156 -0.34,0 -0.629,0.293 -0.629,0.629 0,0.472 0.472,0.832 1.054,0.832 0.969,0 1.668,-0.809 2.43,-2.879 l 2.207,-5.848 c 0.203,-0.453 0.36,-0.609 0.695,-0.652 z"
               style="fill:#000000;fill-opacity:1;fill-rule:nonzero;stroke:none"
               id="path1120" />
            <path
               d="m 151.531,60.414 h -1.98 v 0.199 c 0.449,0.047 0.676,0.203 0.676,0.473 0,0.137 -0.047,0.293 -0.09,0.43 l -1.418,3.711 -1.465,-3.668 c -0.09,-0.204 -0.133,-0.403 -0.133,-0.539 0,-0.247 0.156,-0.36 0.652,-0.407 v -0.199 h -2.812 v 0.199 c 0.539,0.047 0.652,0.18 1.305,1.668 l 1.73,4.117 c 0.024,0.09 0.07,0.18 0.113,0.293 0.09,0.27 0.18,0.379 0.25,0.379 0.09,0 0.2,-0.179 0.403,-0.718 l 1.847,-4.614 c 0.403,-0.965 0.493,-1.078 0.922,-1.125 z"
               style="fill:#000000;fill-opacity:1;fill-rule:nonzero;stroke:none"
               id="path1122" />
            <path
               d="m 157.852,65.926 c -0.25,0.203 -0.43,0.269 -0.633,0.269 -0.336,0 -0.426,-0.203 -0.426,-0.832 V 62.57 c 0,-0.761 -0.066,-1.168 -0.293,-1.504 -0.316,-0.519 -0.922,-0.789 -1.777,-0.789 -1.352,0 -2.407,0.7 -2.407,1.598 0,0.336 0.27,0.605 0.606,0.605 0.34,0 0.652,-0.269 0.652,-0.582 0,-0.07 -0.023,-0.136 -0.023,-0.25 -0.043,-0.109 -0.043,-0.222 -0.043,-0.336 0,-0.382 0.449,-0.699 1.035,-0.699 0.695,0 1.078,0.407 1.078,1.196 v 0.875 c -2.203,0.878 -2.453,0.992 -3.059,1.554 -0.316,0.27 -0.519,0.766 -0.519,1.239 0,0.898 0.633,1.527 1.508,1.527 0.633,0 1.215,-0.293 2.094,-1.035 0.066,0.742 0.316,1.035 0.921,1.035 0.473,0 0.789,-0.156 1.286,-0.719 z m -2.231,-0.813 c 0,0.43 -0.066,0.563 -0.359,0.742 -0.36,0.204 -0.766,0.317 -1.059,0.317 -0.492,0 -0.898,-0.473 -0.898,-1.102 v -0.047 c 0,-0.855 0.586,-1.371 2.316,-2 z"
               style="fill:#000000;fill-opacity:1;fill-rule:nonzero;stroke:none"
               id="path1124" />
            <path
               d="m 158.145,57.938 h 0.089 c 0.157,-0.024 0.336,-0.047 0.45,-0.047 0.449,0 0.609,0.203 0.609,0.879 v 6.839 c 0,0.789 -0.203,0.969 -1.125,1.036 v 0.226 h 3.398 v -0.226 c -0.902,-0.043 -1.082,-0.204 -1.082,-0.989 v -8.551 l -0.043,-0.046 c -0.765,0.25 -1.308,0.382 -2.296,0.632 z"
               style="fill:#000000;fill-opacity:1;fill-rule:nonzero;stroke:none"
               id="path1126" />
            <path
               d="m 168.746,66.148 h -0.09 c -0.652,0 -0.808,-0.156 -0.808,-0.808 v -4.926 h -2.274 v 0.246 c 0.903,0.043 1.059,0.18 1.059,0.899 v 3.375 c 0,0.406 -0.067,0.609 -0.27,0.765 -0.383,0.317 -0.832,0.473 -1.261,0.473 -0.563,0 -1.012,-0.473 -1.012,-1.078 v -4.68 h -2.094 v 0.199 c 0.676,0.047 0.879,0.25 0.879,0.926 v 3.598 c 0,1.148 0.699,1.867 1.734,1.867 0.539,0 1.102,-0.223 1.485,-0.606 l 0.629,-0.609 v 1.172 l 0.047,0.043 c 0.718,-0.293 1.234,-0.449 1.976,-0.652 z"
               style="fill:#000000;fill-opacity:1;fill-rule:nonzero;stroke:none"
               id="path1128" />
            <path
               d="m 174.887,64.508 c -0.676,1.101 -1.305,1.508 -2.227,1.508 -0.812,0 -1.418,-0.407 -1.848,-1.239 -0.246,-0.539 -0.359,-1.011 -0.382,-1.89 h 4.41 c -0.113,-0.922 -0.246,-1.348 -0.606,-1.801 -0.429,-0.516 -1.105,-0.809 -1.847,-0.809 -0.719,0 -1.395,0.246 -1.934,0.743 -0.676,0.585 -1.058,1.597 -1.058,2.769 0,2 1.035,3.215 2.679,3.215 1.371,0 2.453,-0.832 3.059,-2.383 z m -4.434,-2.07 c 0.156,-1.126 0.652,-1.665 1.531,-1.665 0.875,0 1.215,0.403 1.395,1.665 z"
               style="fill:#000000;fill-opacity:1;fill-rule:nonzero;stroke:none"
               id="path1130" />
            <path
               d="m 195.785,111.062 c -0.652,-0.382 -1.058,-0.519 -1.621,-0.519 -1.754,0 -3.105,1.598 -3.105,3.668 0,1.824 0.921,3.082 2.25,3.082 0.808,0 1.597,-0.359 2.207,-1.055 v 2.7 c 0,0.808 -0.25,1.011 -1.239,1.101 v 0.227 h 3.305 v -0.18 c -0.762,-0.184 -0.875,-0.293 -0.875,-0.902 v -8.594 h -0.156 z m -0.269,4.274 c 0,0.34 -0.047,0.539 -0.204,0.652 -0.292,0.27 -0.765,0.43 -1.195,0.43 -0.449,0 -0.832,-0.137 -1.101,-0.43 -0.45,-0.402 -0.743,-1.347 -0.743,-2.293 0,-1.687 0.743,-2.746 1.934,-2.746 0.879,0 1.309,0.473 1.309,1.442 z"
               style="fill:#000000;fill-opacity:1;fill-rule:nonzero;stroke:none"
               id="path1132" />
            <path
               d="m 204.48,116.438 h -0.07 c -0.629,0 -0.785,-0.157 -0.785,-0.809 v -4.926 h -2.23 v 0.246 c 0.878,0.047 1.035,0.18 1.035,0.899 v 3.375 c 0,0.406 -0.067,0.609 -0.27,0.765 -0.383,0.317 -0.808,0.473 -1.238,0.473 -0.539,0 -0.988,-0.473 -0.988,-1.078 v -4.68 h -2.047 v 0.199 c 0.675,0.047 0.855,0.25 0.855,0.926 v 3.598 c 0,1.148 0.676,1.867 1.707,1.867 0.52,0 1.082,-0.223 1.442,-0.605 l 0.609,-0.61 v 1.172 l 0.066,0.043 c 0.696,-0.293 1.215,-0.449 1.914,-0.652 z"
               style="fill:#000000;fill-opacity:1;fill-rule:nonzero;stroke:none"
               id="path1134" />
            <path
               d="m 210.52,114.797 c -0.676,1.101 -1.286,1.508 -2.184,1.508 -0.789,0 -1.395,-0.407 -1.801,-1.239 -0.269,-0.539 -0.359,-1.011 -0.383,-1.89 h 4.321 c -0.114,-0.922 -0.246,-1.348 -0.606,-1.801 -0.406,-0.516 -1.058,-0.809 -1.801,-0.809 -0.699,0 -1.351,0.246 -1.89,0.743 -0.653,0.586 -1.035,1.597 -1.035,2.769 0,2 1.011,3.215 2.632,3.215 1.329,0 2.383,-0.832 2.969,-2.383 z m -4.344,-2.07 c 0.156,-1.125 0.629,-1.665 1.484,-1.665 0.856,0 1.192,0.403 1.371,1.665 z"
               style="fill:#000000;fill-opacity:1;fill-rule:nonzero;stroke:none"
               id="path1136" />
            <path
               d="m 211.113,111.559 c 0.203,-0.047 0.336,-0.047 0.496,-0.047 0.36,0 0.493,0.226 0.493,0.855 v 3.578 c 0,0.719 -0.11,0.832 -1.012,0.989 v 0.226 h 3.375 v -0.226 c -0.945,-0.024 -1.192,-0.246 -1.192,-1.059 v -3.238 c 0,-0.449 0.606,-1.172 0.989,-1.172 0.09,0 0.203,0.07 0.359,0.203 0.227,0.203 0.383,0.293 0.563,0.293 0.339,0 0.543,-0.246 0.543,-0.652 0,-0.473 -0.293,-0.743 -0.766,-0.743 -0.586,0 -0.992,0.317 -1.688,1.329 v -1.305 l -0.066,-0.024 c -0.742,0.317 -1.262,0.496 -2.094,0.766 z"
               style="fill:#000000;fill-opacity:1;fill-rule:nonzero;stroke:none"
               id="path1138" />
            <path
               d="m 222.387,110.703 h -1.891 v 0.199 c 0.449,0 0.676,0.137 0.676,0.364 0,0.066 -0.024,0.156 -0.067,0.246 l -1.375,3.961 -1.597,-3.625 c -0.09,-0.2 -0.156,-0.383 -0.156,-0.539 0,-0.27 0.226,-0.36 0.832,-0.407 v -0.199 h -2.903 v 0.199 c 0.36,0.047 0.61,0.203 0.723,0.453 l 1.598,3.532 0.043,0.113 0.203,0.426 c 0.406,0.722 0.629,1.238 0.629,1.465 0,0.199 -0.336,1.125 -0.563,1.55 -0.203,0.36 -0.516,0.629 -0.719,0.629 -0.066,0 -0.203,-0.019 -0.34,-0.09 -0.269,-0.089 -0.515,-0.156 -0.742,-0.156 -0.336,0 -0.605,0.293 -0.605,0.629 0,0.473 0.449,0.832 1.035,0.832 0.945,0 1.621,-0.808 2.383,-2.879 l 2.16,-5.847 c 0.18,-0.454 0.34,-0.61 0.676,-0.657 z"
               style="fill:#000000;fill-opacity:1;fill-rule:nonzero;stroke:none"
               id="path1140" />
            <path
               d="m 71.094,157.164 c 0.226,0 0.496,0 0.496,-0.293 0,-0.269 -0.27,-0.269 -0.496,-0.269 h -6.098 c 0.18,-1.934 1.824,-3.309 3.848,-3.309 h 2.25 c 0.226,0 0.496,0 0.496,-0.293 0,-0.289 -0.27,-0.289 -0.496,-0.289 H 68.82 c -2.449,0 -4.406,1.867 -4.406,4.16 0,2.317 1.957,4.184 4.406,4.184 h 2.274 c 0.226,0 0.496,0 0.496,-0.289 0,-0.293 -0.27,-0.293 -0.496,-0.293 h -2.25 c -2.024,0 -3.668,-1.375 -3.848,-3.309 z"
               style="fill:#000000;fill-opacity:1;fill-rule:nonzero;stroke:none"
               id="path1142" />
            <path
               d="m 80.617,155.973 h 0.516 l 2.16,3.328 c 0.137,0.226 0.473,0.789 0.629,0.992 0.113,0.18 0.16,0.18 0.473,0.18 h 1.98 c 0.27,0 0.496,0 0.496,-0.25 0,-0.133 -0.09,-0.223 -0.226,-0.246 -0.54,-0.114 -1.235,-1.079 -1.575,-1.532 -0.113,-0.133 -0.832,-1.078 -1.777,-2.633 1.262,-0.246 2.5,-0.785 2.5,-2.496 0,-1.98 -2.094,-2.675 -3.805,-2.675 h -4.5 c -0.269,0 -0.496,0 -0.496,0.246 0,0.246 0.27,0.246 0.383,0.246 0.832,0 0.902,0.113 0.902,0.832 v 7.18 c 0,0.718 -0.07,0.832 -0.902,0.832 -0.113,0 -0.383,0 -0.383,0.246 0,0.25 0.227,0.25 0.496,0.25 h 3.938 c 0.246,0 0.472,0 0.472,-0.25 0,-0.246 -0.246,-0.246 -0.406,-0.246 -0.808,0 -0.875,-0.114 -0.875,-0.832 z m 2.766,-0.723 c 0.406,-0.516 0.449,-1.281 0.449,-1.91 0,-0.699 -0.09,-1.465 -0.539,-2.047 0.586,0.133 2.004,0.582 2.004,2.023 0,0.946 -0.43,1.664 -1.914,1.934 z m -2.766,-3.328 c 0,-0.317 0,-0.789 0.899,-0.789 1.214,0 1.824,0.519 1.824,2.207 0,1.844 -0.453,2.113 -2.723,2.113 z m -1.957,8.055 c 0.11,-0.27 0.11,-0.676 0.11,-0.789 v -7.266 c 0,-0.137 0,-0.52 -0.11,-0.789 h 1.641 c -0.18,0.25 -0.18,0.519 -0.18,0.742 v 7.313 c 0,0.136 0,0.519 0.113,0.789 z m 3.059,-4.004 c 0.113,-0.024 0.156,-0.047 0.269,-0.047 0.227,0 0.539,-0.024 0.742,-0.043 0.227,0.336 1.778,2.902 2.969,4.094 h -1.394 z"
               style="fill:#000000;fill-opacity:1;fill-rule:nonzero;stroke:none"
               id="path1144" />
            <path
               d="m 90.684,147.035 c -1.891,1.328 -2.407,3.465 -2.407,4.992 0,1.418 0.426,3.625 2.407,5.02 0.089,0 0.203,0 0.203,-0.113 0,-0.067 -0.024,-0.09 -0.09,-0.157 -1.352,-1.215 -1.824,-2.902 -1.824,-4.726 0,-2.723 1.035,-4.051 1.847,-4.793 0.043,-0.043 0.067,-0.067 0.067,-0.113 0,-0.11 -0.114,-0.11 -0.203,-0.11 z"
               style="fill:#000000;fill-opacity:1;fill-rule:nonzero;stroke:none"
               id="path1146" />
            <path
               d="m 97.352,147.891 c 0,-0.024 0.023,-0.161 0.023,-0.161 0,-0.066 -0.023,-0.156 -0.16,-0.156 -0.203,0 -1.035,0.09 -1.281,0.114 -0.067,0 -0.227,0.019 -0.227,0.222 0,0.137 0.16,0.137 0.273,0.137 0.469,0 0.469,0.09 0.469,0.156 0,0.067 0,0.137 -0.019,0.227 l -0.586,2.293 c -0.203,-0.336 -0.539,-0.606 -1.035,-0.606 -1.282,0 -2.586,1.418 -2.586,2.856 0,0.992 0.652,1.668 1.527,1.668 0.543,0 1.012,-0.293 1.418,-0.7 0.18,0.61 0.766,0.7 1.035,0.7 0.359,0 0.609,-0.203 0.789,-0.52 0.223,-0.406 0.36,-0.969 0.36,-1.012 0,-0.136 -0.137,-0.136 -0.157,-0.136 -0.16,0 -0.16,0.047 -0.226,0.316 -0.137,0.496 -0.317,1.078 -0.742,1.078 -0.247,0 -0.34,-0.222 -0.34,-0.492 0,-0.18 0.023,-0.27 0.07,-0.406 z m -2.137,5.398 c -0.07,0.293 -0.293,0.496 -0.52,0.676 -0.09,0.09 -0.496,0.402 -0.922,0.402 -0.382,0 -0.742,-0.269 -0.742,-0.965 0,-0.539 0.293,-1.644 0.539,-2.047 0.45,-0.812 0.969,-0.945 1.239,-0.945 0.699,0 0.898,0.766 0.898,0.875 0,0.024 -0.019,0.113 -0.019,0.137 z"
               style="fill:#000000;fill-opacity:1;fill-rule:nonzero;stroke:none"
               id="path1148" />
            <path
               d="m 99.387,152.676 c -0.946,0 -1.598,0.699 -1.598,1.687 0,0.969 0.672,1.688 1.574,1.688 0.899,0 1.598,-0.766 1.598,-1.754 0,-0.922 -0.652,-1.621 -1.574,-1.621 z m -0.09,0.203 c 0.582,0 1.012,0.695 1.012,1.687 0,0.809 -0.317,1.282 -0.856,1.282 -0.293,0 -0.539,-0.157 -0.699,-0.45 -0.203,-0.382 -0.313,-0.878 -0.313,-1.394 0,-0.676 0.336,-1.125 0.856,-1.125 z"
               style="fill:#000000;fill-opacity:1;fill-rule:nonzero;stroke:none"
               id="path1150" />
            <path
               d="m 104.613,155.625 h -0.043 c -0.316,0 -0.406,-0.07 -0.406,-0.406 v -2.477 h -1.125 v 0.137 c 0.426,0.023 0.52,0.09 0.52,0.449 v 1.688 c 0,0.203 -0.024,0.293 -0.137,0.382 -0.18,0.157 -0.406,0.247 -0.629,0.247 -0.27,0 -0.52,-0.247 -0.52,-0.563 v -2.34 h -1.035 v 0.113 c 0.34,0.024 0.45,0.137 0.45,0.45 v 1.824 c 0,0.562 0.339,0.922 0.855,0.922 0.269,0 0.543,-0.113 0.742,-0.317 l 0.317,-0.293 v 0.586 l 0.023,0.024 c 0.359,-0.156 0.629,-0.227 0.988,-0.317 z"
               style="fill:#000000;fill-opacity:1;fill-rule:nonzero;stroke:none"
               id="path1152" />
            <path
               d="m 106.582,152.742 h -0.723 v -0.832 c 0,-0.066 0,-0.09 -0.043,-0.09 -0.046,0.067 -0.089,0.137 -0.136,0.203 -0.293,0.407 -0.582,0.743 -0.696,0.766 -0.089,0.066 -0.136,0.113 -0.136,0.133 0,0.023 0,0.047 0.023,0.07 h 0.383 v 2.16 c 0,0.582 0.223,0.899 0.652,0.899 0.336,0 0.606,-0.156 0.856,-0.539 l -0.09,-0.09 c -0.16,0.18 -0.27,0.269 -0.43,0.269 -0.269,0 -0.383,-0.203 -0.383,-0.652 v -2.047 h 0.723 z"
               style="fill:#000000;fill-opacity:1;fill-rule:nonzero;stroke:none"
               id="path1154" />
            <path
               d="m 112.105,152.277 h 3.083 c 0.132,0 0.359,0 0.359,-0.226 0,-0.27 -0.227,-0.27 -0.359,-0.27 h -3.083 v -3.082 c 0,-0.113 0,-0.359 -0.226,-0.359 -0.246,0 -0.246,0.222 -0.246,0.359 v 3.082 h -3.082 c -0.137,0 -0.383,0 -0.383,0.246 0,0.25 0.223,0.25 0.383,0.25 h 3.082 v 3.082 c 0,0.133 0,0.383 0.222,0.383 0.25,0 0.25,-0.25 0.25,-0.383 z"
               style="fill:#000000;fill-opacity:1;fill-rule:nonzero;stroke:none"
               id="path1156" />
            <path
               d="m 122.016,147.891 c 0,-0.024 0.019,-0.161 0.019,-0.161 0,-0.066 -0.019,-0.156 -0.156,-0.156 -0.203,0 -1.035,0.09 -1.281,0.114 -0.071,0 -0.227,0.019 -0.227,0.222 0,0.137 0.156,0.137 0.27,0.137 0.472,0 0.472,0.09 0.472,0.156 0,0.067 0,0.137 -0.023,0.227 l -0.582,2.293 c -0.203,-0.336 -0.543,-0.606 -1.035,-0.606 -1.285,0 -2.59,1.418 -2.59,2.856 0,0.992 0.652,1.668 1.531,1.668 0.539,0 1.012,-0.293 1.418,-0.7 0.18,0.61 0.766,0.7 1.035,0.7 0.36,0 0.606,-0.203 0.785,-0.52 0.227,-0.406 0.364,-0.969 0.364,-1.012 0,-0.136 -0.137,-0.136 -0.161,-0.136 -0.156,0 -0.156,0.047 -0.222,0.316 -0.137,0.496 -0.317,1.078 -0.742,1.078 -0.25,0 -0.34,-0.222 -0.34,-0.492 0,-0.18 0.023,-0.27 0.066,-0.406 z m -2.141,5.398 c -0.066,0.293 -0.293,0.496 -0.516,0.676 -0.089,0.09 -0.496,0.402 -0.921,0.402 -0.383,0 -0.743,-0.269 -0.743,-0.965 0,-0.539 0.293,-1.644 0.539,-2.047 0.45,-0.812 0.969,-0.945 1.239,-0.945 0.695,0 0.898,0.766 0.898,0.875 0,0.024 -0.023,0.113 -0.023,0.137 z"
               style="fill:#000000;fill-opacity:1;fill-rule:nonzero;stroke:none"
               id="path1158" />
            <path
               d="m 123.508,152.676 -1.125,0.406 v 0.109 l 0.066,-0.019 c 0.09,0 0.18,-0.024 0.25,-0.024 0.156,0 0.223,0.114 0.223,0.426 v 1.668 c 0,0.516 -0.067,0.606 -0.563,0.629 v 0.113 h 1.711 v -0.113 c -0.472,-0.023 -0.539,-0.113 -0.539,-0.629 v -2.543 z m -0.336,-1.598 c -0.203,0 -0.36,0.156 -0.36,0.36 0,0.203 0.157,0.382 0.36,0.382 0.203,0 0.359,-0.156 0.359,-0.382 0,-0.204 -0.156,-0.36 -0.359,-0.36 z"
               style="fill:#000000;fill-opacity:1;fill-rule:nonzero;stroke:none"
               id="path1160" />
            <path
               d="m 124.355,153.125 c 0.043,-0.023 0.114,-0.023 0.204,-0.023 0.199,0 0.269,0.113 0.269,0.453 v 1.777 c 0,0.402 -0.09,0.516 -0.449,0.539 v 0.113 h 1.504 v -0.113 c -0.36,-0.023 -0.469,-0.113 -0.469,-0.359 v -2.028 c 0.359,-0.312 0.516,-0.402 0.742,-0.402 0.36,0 0.516,0.223 0.516,0.695 v 1.485 c 0,0.472 -0.09,0.586 -0.449,0.609 v 0.113 h 1.507 v -0.113 c -0.359,-0.023 -0.449,-0.113 -0.449,-0.473 v -1.644 c 0,-0.672 -0.316,-1.078 -0.836,-1.078 -0.336,0 -0.562,0.136 -1.054,0.586 v -0.563 l -0.047,-0.023 c -0.36,0.136 -0.586,0.226 -0.989,0.336 z"
               style="fill:#000000;fill-opacity:1;fill-rule:nonzero;stroke:none"
               id="path1162" />
            <path
               d="m 129.445,147.035 c -0.066,0 -0.179,0 -0.179,0.11 0,0.046 0.023,0.07 0.089,0.16 0.856,0.785 1.825,2.136 1.825,4.722 0,2.094 -0.653,3.692 -1.735,4.661 -0.179,0.179 -0.179,0.179 -0.179,0.246 0,0.046 0.023,0.113 0.113,0.113 0.137,0 1.082,-0.652 1.754,-1.914 0.429,-0.832 0.722,-1.91 0.722,-3.082 0,-1.418 -0.429,-3.621 -2.41,-5.016 z"
               style="fill:#000000;fill-opacity:1;fill-rule:nonzero;stroke:none"
               id="path1164" />
            <path
               d="m 140.051,149.848 c 0.109,-0.114 0.133,-0.18 0.133,-0.25 0,-0.157 -0.114,-0.246 -0.223,-0.246 -0.113,0 -0.137,0.023 -0.25,0.156 l -2.203,2.183 -2.207,-2.203 c -0.113,-0.093 -0.133,-0.136 -0.223,-0.136 -0.16,0 -0.269,0.113 -0.269,0.246 0,0.09 0.043,0.113 0.156,0.25 l 2.183,2.179 -2.183,2.184 c -0.137,0.156 -0.156,0.203 -0.156,0.246 0,0.16 0.109,0.273 0.269,0.273 0.09,0 0.11,-0.046 0.223,-0.16 l 2.207,-2.179 2.293,2.269 c 0.047,0.047 0.09,0.07 0.16,0.07 0.109,0 0.223,-0.089 0.223,-0.273 0,-0.066 0,-0.09 -0.043,-0.109 -0.024,-0.047 -1.957,-2.004 -2.274,-2.297 z"
               style="fill:#000000;fill-opacity:1;fill-rule:nonzero;stroke:none"
               id="path1166" />
            <path
               d="m 146.879,148.473 c 0.066,-0.293 0.09,-0.313 0.316,-0.336 0.043,0 0.383,0 0.582,0 0.633,0 0.879,0 1.125,0.066 0.453,0.137 0.473,0.43 0.473,0.789 0,0.156 0,0.293 -0.066,0.809 l -0.024,0.113 c 0,0.113 0.07,0.156 0.18,0.156 0.16,0 0.16,-0.09 0.18,-0.246 l 0.273,-1.914 c 0,-0.133 -0.113,-0.133 -0.293,-0.133 h -6.168 c -0.246,0 -0.269,0 -0.336,0.203 l -0.652,1.778 c 0,0.043 -0.047,0.133 -0.047,0.18 0,0.042 0.023,0.132 0.183,0.132 0.133,0 0.133,-0.043 0.2,-0.246 0.586,-1.597 0.925,-1.687 2.453,-1.687 h 0.406 c 0.316,0 0.316,0 0.316,0.09 0,0 0,0.066 -0.046,0.203 l -1.329,5.285 c -0.089,0.363 -0.113,0.473 -1.167,0.473 -0.36,0 -0.454,0 -0.454,0.226 0,0.024 0.024,0.137 0.184,0.137 0.27,0 0.582,-0.024 0.852,-0.024 0.292,0 0.585,-0.023 0.855,-0.023 0.293,0 0.633,0 0.922,0.023 0.273,0 0.562,0.024 0.836,0.024 0.09,0 0.222,0 0.222,-0.227 0,-0.136 -0.089,-0.136 -0.402,-0.136 -0.183,0 -0.383,-0.02 -0.586,-0.02 -0.34,-0.023 -0.359,-0.07 -0.359,-0.18 0,-0.093 0,-0.093 0.043,-0.25 z"
               style="fill:#000000;fill-opacity:1;fill-rule:nonzero;stroke:none"
               id="path1168" />
            <g
               id="g1172">
              <path
                 d="M 0.297,37.887 H 137.082 V 140.614 H 0.297 Z"
                 style="fill:#e6e6e6;fill-opacity:1;fill-rule:nonzero;stroke:#000000;stroke-width:0.596186;stroke-linecap:butt;stroke-linejoin:miter;stroke-miterlimit:4;stroke-dasharray:none;stroke-opacity:1"
                 id="path1170" />
            </g>
            <g
               id="g1176">
              <path
                 d="m 13.41,45.254 h 9.336 V 70.086 H 13.41 Z"
                 style="fill:#f0f0fa;fill-opacity:1;fill-rule:nonzero;stroke:#000000;stroke-width:0.604596;stroke-linecap:butt;stroke-linejoin:miter;stroke-miterlimit:4;stroke-dasharray:none;stroke-opacity:1"
                 id="path1174" />
            </g>
            <g
               id="g1180">
              <path
                 d="m 58.605,46.242 h 9.352 v 23.539 h -9.352 z"
                 style="fill:#f0f0fa;fill-opacity:1;fill-rule:nonzero;stroke:#000000;stroke-width:0.589128;stroke-linecap:butt;stroke-linejoin:miter;stroke-miterlimit:4;stroke-dasharray:none;stroke-opacity:1"
                 id="path1178" />
            </g>
            <g
               id="g1184">
              <path
                 d="m 105.746,44.941 h 9.367 v 22.914 h -9.367 z"
                 style="fill:#f0f0fa;fill-opacity:1;fill-rule:nonzero;stroke:#000000;stroke-width:0.581752;stroke-linecap:butt;stroke-linejoin:miter;stroke-miterlimit:4;stroke-dasharray:none;stroke-opacity:1"
                 id="path1182" />
            </g>
            <path
               d="m 108.398,76.98 c 0.946,0 1.891,-0.089 2.497,-0.292 1.214,-0.407 1.417,-1.239 1.417,-1.688 0,-0.832 -0.789,-1.371 -1.98,-1.371 -2.586,0 -4.434,1.777 -4.434,4.004 0,1.664 1.106,2.586 3.016,2.586 0.359,0 1.352,-0.024 2.207,-0.336 0.832,-0.34 1.418,-0.922 1.418,-1.102 0,-0.113 -0.227,-0.363 -0.363,-0.363 -0.09,0 -0.11,0.047 -0.223,0.16 -0.765,0.809 -1.891,1.125 -2.992,1.125 -1.035,0 -1.418,-0.562 -1.418,-1.394 0,-0.274 0.066,-0.743 0.227,-1.329 z m -0.519,-0.519 c 0.269,-1.055 0.609,-1.438 0.855,-1.664 0.496,-0.496 1.172,-0.652 1.598,-0.652 0.52,0 1.125,0.226 1.125,0.878 0,1.438 -2.184,1.438 -3.578,1.438 z"
               style="fill:#000000;fill-opacity:1;fill-rule:nonzero;stroke:none"
               id="path1186" />
            <path
               d="m 118.027,76.184 c 0.067,-0.293 0.09,-0.317 0.317,-0.336 0.043,0 0.379,0 0.582,0 0.633,0 0.879,0 1.125,0.066 0.449,0.133 0.472,0.426 0.472,0.785 0,0.16 0,0.293 -0.066,0.813 l -0.023,0.113 c 0,0.109 0.066,0.156 0.179,0.156 0.16,0 0.16,-0.09 0.18,-0.246 l 0.269,-1.914 c 0,-0.137 -0.109,-0.137 -0.289,-0.137 h -6.168 c -0.246,0 -0.269,0 -0.335,0.204 l -0.653,1.777 c 0,0.047 -0.047,0.137 -0.047,0.18 0,0.046 0.024,0.136 0.18,0.136 0.137,0 0.137,-0.047 0.203,-0.246 0.586,-1.597 0.922,-1.687 2.453,-1.687 h 0.406 c 0.313,0 0.313,0 0.313,0.09 0,0 0,0.066 -0.043,0.199 l -1.328,5.289 c -0.09,0.359 -0.113,0.472 -1.168,0.472 -0.363,0 -0.453,0 -0.453,0.227 0,0.02 0.023,0.133 0.179,0.133 0.274,0 0.586,-0.024 0.856,-0.024 0.293,0 0.586,-0.019 0.855,-0.019 0.293,0 0.633,0 0.922,0.019 0.274,0 0.563,0.024 0.836,0.024 0.09,0 0.223,0 0.223,-0.223 0,-0.137 -0.09,-0.137 -0.406,-0.137 -0.18,0 -0.379,-0.023 -0.582,-0.023 -0.34,-0.023 -0.36,-0.066 -0.36,-0.18 0,-0.09 0,-0.09 0.043,-0.246 z"
               style="fill:#000000;fill-opacity:1;fill-rule:nonzero;stroke:none"
               id="path1188" />
            <path
               d="m 66.828,76.742 c 0.945,0 1.891,-0.09 2.496,-0.293 1.215,-0.402 1.418,-1.234 1.418,-1.687 0,-0.832 -0.785,-1.371 -1.98,-1.371 -2.586,0 -4.43,1.777 -4.43,4.004 0,1.667 1.102,2.589 3.012,2.589 0.363,0 1.351,-0.023 2.207,-0.339 0.832,-0.336 1.418,-0.922 1.418,-1.102 0,-0.113 -0.227,-0.359 -0.36,-0.359 -0.089,0 -0.113,0.043 -0.226,0.156 -0.766,0.812 -1.891,1.125 -2.992,1.125 -1.036,0 -1.418,-0.563 -1.418,-1.395 0,-0.269 0.066,-0.742 0.226,-1.328 z m -0.516,-0.515 c 0.27,-1.059 0.606,-1.442 0.852,-1.665 0.496,-0.496 1.172,-0.652 1.598,-0.652 0.519,0 1.125,0.223 1.125,0.875 0,1.442 -2.18,1.442 -3.575,1.442 z"
               style="fill:#000000;fill-opacity:1;fill-rule:nonzero;stroke:none"
               id="path1190" />
            <path
               d="m 74.051,79.562 h 1.011 c 0.204,0 0.317,0 0.317,-0.226 0,-0.133 -0.113,-0.133 -0.293,-0.133 H 74.141 L 74.5,77.719 c 0.023,-0.047 0.043,-0.114 0.043,-0.137 0,-0.203 -0.156,-0.336 -0.359,-0.336 -0.246,0 -0.383,0.18 -0.473,0.426 -0.066,0.269 0.07,-0.227 -0.383,1.531 h -1.012 c -0.179,0 -0.312,0 -0.312,0.223 0,0.136 0.109,0.136 0.289,0.136 h 0.945 l -0.582,2.364 c -0.07,0.246 -0.16,0.605 -0.16,0.742 0,0.586 0.52,0.945 1.082,0.945 1.125,0 1.754,-1.394 1.754,-1.531 0,-0.137 -0.133,-0.137 -0.156,-0.137 -0.137,0 -0.137,0.024 -0.227,0.203 -0.269,0.633 -0.785,1.196 -1.328,1.196 -0.223,0 -0.359,-0.137 -0.359,-0.496 0,-0.09 0.047,-0.317 0.066,-0.407 z"
               style="fill:#000000;fill-opacity:1;fill-rule:nonzero;stroke:none"
               id="path1192" />
            <path
               d="m 22.07,77.035 c 0.946,0 1.891,-0.09 2.496,-0.293 1.215,-0.406 1.418,-1.238 1.418,-1.687 0,-0.832 -0.785,-1.375 -1.98,-1.375 -2.586,0 -4.43,1.777 -4.43,4.008 0,1.664 1.102,2.585 3.012,2.585 0.363,0 1.352,-0.023 2.207,-0.335 0.832,-0.34 1.418,-0.926 1.418,-1.106 0,-0.109 -0.227,-0.359 -0.359,-0.359 -0.09,0 -0.114,0.047 -0.227,0.16 -0.766,0.808 -1.891,1.125 -2.992,1.125 -1.035,0 -1.418,-0.563 -1.418,-1.399 0,-0.269 0.066,-0.742 0.226,-1.324 z m -0.519,-0.519 c 0.273,-1.059 0.609,-1.442 0.855,-1.664 0.496,-0.497 1.172,-0.653 1.598,-0.653 0.519,0 1.125,0.223 1.125,0.875 0,1.442 -2.18,1.442 -3.578,1.442 z"
               style="fill:#000000;fill-opacity:1;fill-rule:nonzero;stroke:none"
               id="path1194" />
            <path
               d="m 30.172,77.422 c 0,-0.27 0,-0.27 -0.293,-0.27 -0.652,0.629 -1.555,0.629 -1.957,0.629 v 0.36 c 0.223,0 0.898,0 1.437,-0.27 v 5.109 c 0,0.336 0,0.473 -0.988,0.473 h -0.383 v 0.359 c 0.18,0 1.418,-0.046 1.778,-0.046 0.316,0 1.574,0.046 1.8,0.046 v -0.359 h -0.382 c -1.012,0 -1.012,-0.137 -1.012,-0.473 z"
               style="fill:#000000;fill-opacity:1;fill-rule:nonzero;stroke:none"
               id="path1196" />
            <g
               id="g1200">
              <path
                 d="m 12.637,96.645 h 9.27 v 22.863 h -9.27 z"
                 style="fill:#f0f0fa;fill-opacity:1;fill-rule:nonzero;stroke:#000000;stroke-width:0.578064;stroke-linecap:butt;stroke-linejoin:miter;stroke-miterlimit:4;stroke-dasharray:none;stroke-opacity:1"
                 id="path1198" />
            </g>
            <g
               id="g1204">
              <path
                 d="m 59.34,97.199 h 9.27 v 21.809 h -9.27 z"
                 style="fill:#f0f0fa;fill-opacity:1;fill-rule:nonzero;stroke:#000000;stroke-width:0.564555;stroke-linecap:butt;stroke-linejoin:miter;stroke-miterlimit:4;stroke-dasharray:none;stroke-opacity:1"
                 id="path1202" />
            </g>
            <g
               id="g1208">
              <path
                 d="m 106.488,96.344 h 9.27 v 23.535 h -9.27 z"
                 style="fill:#f0f0fa;fill-opacity:1;fill-rule:nonzero;stroke:#000000;stroke-width:0.586476;stroke-linecap:butt;stroke-linejoin:miter;stroke-miterlimit:4;stroke-dasharray:none;stroke-opacity:1"
                 id="path1206" />
            </g>
            <path
               d="m 24.828,126.59 c -0.516,0.156 -0.766,0.629 -0.766,0.988 0,0.317 0.227,0.676 0.7,0.676 0.515,0 1.035,-0.43 1.035,-1.125 0,-0.766 -0.742,-1.262 -1.621,-1.262 -0.832,0 -1.348,0.61 -1.551,0.879 -0.359,-0.609 -1.148,-0.879 -1.98,-0.879 -1.801,0 -2.77,1.758 -2.77,2.231 0,0.199 0.203,0.199 0.34,0.199 0.18,0 0.269,0 0.336,-0.18 0.406,-1.305 1.441,-1.73 2.027,-1.73 0.539,0 0.809,0.246 0.809,0.695 0,0.293 -0.203,1.082 -0.336,1.598 l -0.496,1.957 c -0.203,0.879 -0.719,1.308 -1.215,1.308 -0.067,0 -0.406,0 -0.676,-0.203 0.516,-0.16 0.766,-0.652 0.766,-0.992 0,-0.312 -0.25,-0.676 -0.719,-0.676 -0.496,0 -1.035,0.43 -1.035,1.125 0,0.766 0.762,1.262 1.64,1.262 0.809,0 1.352,-0.606 1.532,-0.879 0.359,0.609 1.168,0.879 1.98,0.879 1.82,0 2.789,-1.754 2.789,-2.227 0,-0.203 -0.226,-0.203 -0.34,-0.203 -0.179,0 -0.269,0 -0.336,0.18 -0.406,1.305 -1.441,1.734 -2.046,1.734 -0.54,0 -0.79,-0.25 -0.79,-0.722 0,-0.293 0.18,-1.055 0.317,-1.598 0.09,-0.359 0.426,-1.707 0.496,-1.934 0.223,-0.879 0.719,-1.304 1.215,-1.304 0.09,0 0.402,0 0.695,0.203 z"
               style="fill:#000000;fill-opacity:1;fill-rule:nonzero;stroke:none"
               id="path1210" />
            <path
               d="m 29.941,128.109 c 0,-0.269 0,-0.269 -0.293,-0.269 -0.652,0.629 -1.55,0.629 -1.957,0.629 v 0.359 c 0.227,0 0.899,0 1.442,-0.269 v 5.109 c 0,0.336 0,0.473 -0.992,0.473 h -0.383 v 0.359 c 0.18,0 1.418,-0.047 1.777,-0.047 0.317,0 1.578,0.047 1.801,0.047 v -0.359 h -0.383 c -1.012,0 -1.012,-0.137 -1.012,-0.473 z"
               style="fill:#000000;fill-opacity:1;fill-rule:nonzero;stroke:none"
               id="path1212" />
            <path
               d="m 115.902,127.023 c -0.519,0.161 -0.765,0.633 -0.765,0.993 0,0.312 0.222,0.675 0.695,0.675 0.52,0 1.035,-0.429 1.035,-1.125 0,-0.765 -0.742,-1.261 -1.617,-1.261 -0.832,0 -1.352,0.609 -1.555,0.879 -0.359,-0.61 -1.148,-0.879 -1.98,-0.879 -1.797,0 -2.766,1.754 -2.766,2.226 0,0.203 0.203,0.203 0.336,0.203 0.18,0 0.27,0 0.34,-0.179 0.402,-1.305 1.437,-1.731 2.023,-1.731 0.54,0 0.809,0.246 0.809,0.696 0,0.292 -0.199,1.082 -0.336,1.597 l -0.496,1.957 c -0.203,0.879 -0.719,1.305 -1.215,1.305 -0.066,0 -0.402,0 -0.676,-0.203 0.52,-0.156 0.766,-0.653 0.766,-0.988 0,-0.317 -0.246,-0.676 -0.719,-0.676 -0.496,0 -1.035,0.429 -1.035,1.125 0,0.765 0.766,1.261 1.641,1.261 0.812,0 1.351,-0.609 1.531,-0.878 0.359,0.609 1.172,0.878 1.98,0.878 1.825,0 2.79,-1.757 2.79,-2.23 0,-0.199 -0.223,-0.199 -0.336,-0.199 -0.18,0 -0.27,0 -0.34,0.179 -0.403,1.305 -1.438,1.731 -2.047,1.731 -0.539,0 -0.785,-0.246 -0.785,-0.719 0,-0.293 0.179,-1.058 0.312,-1.598 0.09,-0.359 0.43,-1.71 0.496,-1.933 0.227,-0.879 0.719,-1.305 1.215,-1.305 0.09,0 0.406,0 0.699,0.199 z"
               style="fill:#000000;fill-opacity:1;fill-rule:nonzero;stroke:none"
               id="path1214" />
            <path
               d="m 122.543,128.859 c 0.066,-0.289 0.09,-0.312 0.316,-0.336 0.043,0 0.383,0 0.586,0 0.629,0 0.875,0 1.125,0.067 0.45,0.137 0.473,0.43 0.473,0.789 0,0.156 0,0.293 -0.07,0.809 l -0.02,0.113 c 0,0.113 0.067,0.156 0.18,0.156 0.156,0 0.156,-0.09 0.179,-0.246 l 0.27,-1.914 c 0,-0.133 -0.113,-0.133 -0.293,-0.133 h -6.164 c -0.25,0 -0.27,0 -0.34,0.203 l -0.652,1.778 c 0,0.043 -0.043,0.132 -0.043,0.179 0,0.043 0.019,0.133 0.18,0.133 0.132,0 0.132,-0.043 0.203,-0.246 0.582,-1.598 0.922,-1.688 2.449,-1.688 h 0.406 c 0.317,0 0.317,0 0.317,0.09 0,0 0,0.067 -0.047,0.203 l -1.328,5.289 c -0.09,0.36 -0.11,0.473 -1.168,0.473 -0.36,0 -0.45,0 -0.45,0.223 0,0.023 0.02,0.137 0.18,0.137 0.27,0 0.586,-0.024 0.856,-0.024 0.292,0 0.582,-0.023 0.855,-0.023 0.289,0 0.629,0 0.922,0.023 0.269,0 0.562,0.024 0.832,0.024 0.09,0 0.223,0 0.223,-0.227 0,-0.133 -0.09,-0.133 -0.403,-0.133 -0.179,0 -0.383,-0.023 -0.586,-0.023 -0.336,-0.024 -0.359,-0.071 -0.359,-0.18 0,-0.09 0,-0.09 0.043,-0.25 z"
               style="fill:#000000;fill-opacity:1;fill-rule:nonzero;stroke:none"
               id="path1216" />
            <path
               d="m 76.621,132.043 h 1.012 c 0.203,0 0.316,0 0.316,-0.223 0,-0.136 -0.113,-0.136 -0.293,-0.136 h -0.945 l 0.359,-1.485 c 0.024,-0.047 0.047,-0.113 0.047,-0.137 0,-0.203 -0.16,-0.335 -0.359,-0.335 -0.25,0 -0.383,0.179 -0.473,0.425 -0.07,0.27 0.067,-0.222 -0.383,1.532 h -1.015 c -0.18,0 -0.313,0 -0.313,0.226 0,0.133 0.114,0.133 0.293,0.133 h 0.945 l -0.585,2.363 c -0.067,0.246 -0.157,0.606 -0.157,0.742 0,0.586 0.516,0.946 1.078,0.946 1.125,0 1.754,-1.395 1.754,-1.532 0,-0.132 -0.132,-0.132 -0.156,-0.132 -0.137,0 -0.137,0.019 -0.226,0.203 -0.27,0.629 -0.786,1.191 -1.325,1.191 -0.226,0 -0.363,-0.136 -0.363,-0.496 0,-0.09 0.047,-0.316 0.07,-0.406 z"
               style="fill:#000000;fill-opacity:1;fill-rule:nonzero;stroke:none"
               id="path1218" />
            <path
               d="m 72.375,126.301 c -0.52,0.156 -0.766,0.629 -0.766,0.988 0,0.316 0.227,0.676 0.7,0.676 0.515,0 1.031,-0.43 1.031,-1.125 0,-0.766 -0.742,-1.262 -1.617,-1.262 -0.832,0 -1.352,0.61 -1.555,0.879 -0.359,-0.609 -1.145,-0.879 -1.98,-0.879 -1.797,0 -2.766,1.758 -2.766,2.227 0,0.203 0.203,0.203 0.336,0.203 0.18,0 0.269,0 0.34,-0.18 0.402,-1.305 1.437,-1.73 2.023,-1.73 0.539,0 0.813,0.246 0.813,0.695 0,0.293 -0.204,1.082 -0.34,1.598 l -0.496,1.957 c -0.2,0.879 -0.719,1.304 -1.215,1.304 -0.067,0 -0.403,0 -0.672,-0.199 0.516,-0.16 0.762,-0.652 0.762,-0.992 0,-0.313 -0.246,-0.676 -0.719,-0.676 -0.496,0 -1.035,0.43 -1.035,1.125 0,0.766 0.765,1.262 1.644,1.262 0.809,0 1.348,-0.61 1.528,-0.879 0.359,0.609 1.171,0.879 1.98,0.879 1.824,0 2.789,-1.754 2.789,-2.227 0,-0.203 -0.222,-0.203 -0.336,-0.203 -0.179,0 -0.269,0 -0.336,0.18 -0.406,1.305 -1.441,1.73 -2.05,1.73 -0.54,0 -0.786,-0.246 -0.786,-0.718 0,-0.293 0.18,-1.059 0.313,-1.598 0.094,-0.359 0.43,-1.711 0.496,-1.934 0.227,-0.879 0.723,-1.304 1.215,-1.304 0.09,0 0.406,0 0.699,0.203 z"
               style="fill:#000000;fill-opacity:1;fill-rule:nonzero;stroke:none"
               id="path1220" />
            <g
               id="g1224">
              <path
                 d="M 29.504,58.484 C 53.062,58.047 53.062,58.047 53.062,58.047"
                 style="fill:none;stroke:#000000;stroke-width:0.75;stroke-linecap:butt;stroke-linejoin:miter;stroke-miterlimit:4;stroke-dasharray:0.75, 2.25;stroke-dashoffset:0;stroke-opacity:1"
                 id="path1222" />
            </g>
            <g
               id="g1228">
              <path
                 d="M 73.895,58.477 C 97.453,58.039 97.453,58.039 97.453,58.039"
                 style="fill:none;stroke:#000000;stroke-width:0.75;stroke-linecap:butt;stroke-linejoin:miter;stroke-miterlimit:4;stroke-dasharray:0.75, 2.25;stroke-dashoffset:0;stroke-opacity:1"
                 id="path1226" />
            </g>
            <g
               id="g1232">
              <path
                 d="m 79.078,109.656 c 23.559,-0.437 23.559,-0.437 23.559,-0.437"
                 style="fill:none;stroke:#000000;stroke-width:0.75;stroke-linecap:butt;stroke-linejoin:miter;stroke-miterlimit:4;stroke-dasharray:0.75, 2.25;stroke-dashoffset:0;stroke-opacity:1"
                 id="path1230" />
            </g>
            <g
               id="g1236">
              <path
                 d="m 30.32,108.781 c 23.559,-0.437 23.559,-0.437 23.559,-0.437"
                 style="fill:none;stroke:#000000;stroke-width:0.75;stroke-linecap:butt;stroke-linejoin:miter;stroke-miterlimit:4;stroke-dasharray:0.75, 2.25;stroke-dashoffset:0;stroke-opacity:1"
                 id="path1234" />
            </g>
            <g
               id="g1240">
              <path
                 d="m 189.836,67.422 h 73.484 v 36.996 h -73.484 z"
                 style="fill:#e3dedb;fill-opacity:1;fill-rule:nonzero;stroke:#000000;stroke-width:0.262242;stroke-linecap:butt;stroke-linejoin:miter;stroke-miterlimit:4;stroke-dasharray:none;stroke-opacity:1"
                 id="path1238" />
            </g>
            <path
               d="m 201.082,80.559 c -0.066,-0.18 -0.113,-0.293 -0.336,-0.293 -0.226,0 -0.273,0.089 -0.34,0.293 l -2.968,8.574 c -0.27,0.742 -0.833,0.965 -1.622,0.965 v 0.453 c 0.34,-0.024 0.969,-0.047 1.465,-0.047 0.449,0 1.192,0.023 1.664,0.047 v -0.453 c -0.722,0 -1.082,-0.36 -1.082,-0.719 0,-0.043 0.024,-0.203 0.024,-0.227 l 0.675,-1.867 h 3.532 l 0.765,2.184 c 0.024,0.066 0.047,0.156 0.047,0.203 0,0.426 -0.812,0.426 -1.195,0.426 v 0.453 c 0.519,-0.047 1.531,-0.047 2.07,-0.047 0.61,0 1.285,0.023 1.867,0.047 v -0.453 h -0.246 c -0.855,0 -1.058,-0.09 -1.214,-0.563 z m -0.766,1.597 1.622,4.68 h -3.219 z"
               style="fill:#000000;fill-opacity:1;fill-rule:nonzero;stroke:none"
               id="path1242" />
            <path
               d="m 208.199,84.812 h 2.071 v -0.449 h -2.071 V 81.73 h -0.359 c 0,1.168 -0.426,2.7 -1.844,2.766 v 0.316 h 1.215 v 3.961 c 0,1.754 1.348,1.934 1.867,1.934 1.012,0 1.418,-1.012 1.418,-1.934 v -0.812 h -0.359 v 0.789 c 0,1.059 -0.43,1.598 -0.969,1.598 -0.969,0 -0.969,-1.305 -0.969,-1.555 z"
               style="fill:#000000;fill-opacity:1;fill-rule:nonzero;stroke:none"
               id="path1244" />
            <path
               d="m 213.777,84.812 h 2.071 v -0.449 h -2.071 V 81.73 h -0.359 c 0,1.168 -0.426,2.7 -1.844,2.766 v 0.316 h 1.215 v 3.961 c 0,1.754 1.352,1.934 1.867,1.934 1.012,0 1.418,-1.012 1.418,-1.934 v -0.812 h -0.359 v 0.789 c 0,1.059 -0.43,1.598 -0.969,1.598 -0.969,0 -0.969,-1.305 -0.969,-1.555 z"
               style="fill:#000000;fill-opacity:1;fill-rule:nonzero;stroke:none"
               id="path1246" />
            <path
               d="m 218.48,86.926 c 0.09,-2.137 1.305,-2.496 1.801,-2.496 1.461,0 1.621,1.933 1.621,2.496 z m 0,0.316 h 4.004 c 0.317,0 0.364,0 0.364,-0.316 0,-1.418 -0.789,-2.813 -2.567,-2.813 -1.664,0 -2.992,1.485 -2.992,3.285 0,1.914 1.508,3.309 3.149,3.309 1.753,0 2.41,-1.598 2.41,-1.867 0,-0.137 -0.114,-0.18 -0.203,-0.18 -0.114,0 -0.161,0.09 -0.18,0.203 -0.496,1.485 -1.801,1.485 -1.938,1.485 -0.718,0 -1.281,-0.43 -1.617,-0.969 -0.43,-0.676 -0.43,-1.621 -0.43,-2.137 z"
               style="fill:#000000;fill-opacity:1;fill-rule:nonzero;stroke:none"
               id="path1248" />
            <path
               d="m 224.832,85.621 v 3.848 c 0,0.629 -0.156,0.629 -1.125,0.629 v 0.453 c 0.52,-0.024 1.238,-0.047 1.645,-0.047 0.359,0 1.101,0.023 1.597,0.047 v -0.453 c -0.969,0 -1.125,0 -1.125,-0.629 v -2.657 c 0,-1.484 1.035,-2.292 1.934,-2.292 0.922,0 1.082,0.765 1.082,1.597 v 3.352 c 0,0.629 -0.16,0.629 -1.125,0.629 v 0.453 c 0.492,-0.024 1.238,-0.047 1.617,-0.047 0.363,0 1.125,0.023 1.598,0.047 v -0.453 c -0.742,0 -1.102,0 -1.102,-0.426 v -2.746 c 0,-1.238 0,-1.664 -0.449,-2.18 -0.203,-0.25 -0.676,-0.543 -1.508,-0.543 -1.059,0 -1.73,0.609 -2.137,1.508 v -1.508 l -2.027,0.16 v 0.449 c 1.016,0 1.125,0.09 1.125,0.809 z"
               style="fill:#000000;fill-opacity:1;fill-rule:nonzero;stroke:none"
               id="path1250" />
            <path
               d="m 233.305,84.812 h 2.066 v -0.449 h -2.066 V 81.73 h -0.364 c 0,1.168 -0.425,2.7 -1.843,2.766 v 0.316 h 1.214 v 3.961 c 0,1.754 1.352,1.934 1.868,1.934 1.011,0 1.418,-1.012 1.418,-1.934 v -0.812 h -0.36 v 0.789 c 0,1.059 -0.429,1.598 -0.968,1.598 -0.965,0 -0.965,-1.305 -0.965,-1.555 z"
               style="fill:#000000;fill-opacity:1;fill-rule:nonzero;stroke:none"
               id="path1252" />
            <path
               d="m 238.949,84.203 -2.004,0.16 v 0.449 c 0.926,0 1.059,0.09 1.059,0.786 v 3.871 c 0,0.629 -0.156,0.629 -1.125,0.629 v 0.453 c 0.449,-0.024 1.238,-0.047 1.574,-0.047 0.52,0 1.016,0.023 1.508,0.047 v -0.453 c -0.965,0 -1.012,-0.067 -1.012,-0.629 z m 0.047,-2.496 c 0,-0.449 -0.34,-0.766 -0.742,-0.766 -0.453,0 -0.766,0.383 -0.766,0.766 0,0.383 0.313,0.766 0.766,0.766 0.402,0 0.742,-0.317 0.742,-0.766 z"
               style="fill:#000000;fill-opacity:1;fill-rule:nonzero;stroke:none"
               id="path1254" />
            <path
               d="m 247.141,87.465 c 0,-1.82 -1.414,-3.352 -3.149,-3.352 -1.801,0 -3.195,1.575 -3.195,3.352 0,1.871 1.484,3.242 3.172,3.242 1.734,0 3.172,-1.418 3.172,-3.242 z m -3.149,2.883 c -0.629,0 -1.262,-0.293 -1.64,-0.969 -0.364,-0.629 -0.364,-1.508 -0.364,-2.024 0,-0.562 0,-1.328 0.34,-1.957 0.383,-0.652 1.059,-0.968 1.641,-0.968 0.633,0 1.238,0.316 1.621,0.945 0.383,0.605 0.383,1.437 0.383,1.98 0,0.516 0,1.305 -0.317,1.934 -0.336,0.652 -0.965,1.059 -1.664,1.059 z"
               style="fill:#000000;fill-opacity:1;fill-rule:nonzero;stroke:none"
               id="path1256" />
            <path
               d="m 249.141,85.621 v 3.848 c 0,0.629 -0.157,0.629 -1.125,0.629 v 0.453 c 0.515,-0.024 1.238,-0.047 1.64,-0.047 0.364,0 1.106,0.023 1.598,0.047 v -0.453 c -0.965,0 -1.125,0 -1.125,-0.629 v -2.657 c 0,-1.484 1.035,-2.292 1.937,-2.292 0.922,0 1.079,0.765 1.079,1.597 v 3.352 c 0,0.629 -0.157,0.629 -1.125,0.629 v 0.453 c 0.496,-0.024 1.238,-0.047 1.621,-0.047 0.359,0 1.125,0.023 1.597,0.047 v -0.453 c -0.742,0 -1.101,0 -1.101,-0.426 v -2.746 c 0,-1.238 0,-1.664 -0.453,-2.18 -0.2,-0.25 -0.672,-0.543 -1.504,-0.543 -1.059,0 -1.735,0.609 -2.141,1.508 v -1.508 l -2.023,0.16 v 0.449 c 1.011,0 1.125,0.09 1.125,0.809 z"
               style="fill:#000000;fill-opacity:1;fill-rule:nonzero;stroke:none"
               id="path1258" />
            <path
               d="m 230.031,151.984 c -0.515,0.157 -0.765,0.629 -0.765,0.993 0,0.312 0.226,0.671 0.699,0.671 0.515,0 1.035,-0.425 1.035,-1.125 0,-0.761 -0.742,-1.257 -1.621,-1.257 -0.832,0 -1.352,0.605 -1.551,0.875 -0.363,-0.606 -1.148,-0.875 -1.98,-0.875 -1.801,0 -2.77,1.754 -2.77,2.226 0,0.203 0.203,0.203 0.34,0.203 0.18,0 0.27,0 0.336,-0.179 0.406,-1.305 1.441,-1.735 2.023,-1.735 0.543,0 0.813,0.25 0.813,0.699 0,0.293 -0.203,1.079 -0.34,1.598 l -0.492,1.957 c -0.203,0.879 -0.723,1.305 -1.215,1.305 -0.07,0 -0.406,0 -0.676,-0.203 0.516,-0.157 0.766,-0.653 0.766,-0.989 0,-0.316 -0.25,-0.675 -0.723,-0.675 -0.492,0 -1.035,0.425 -1.035,1.125 0,0.765 0.766,1.257 1.645,1.257 0.808,0 1.347,-0.605 1.527,-0.875 0.363,0.606 1.172,0.875 1.98,0.875 1.825,0 2.793,-1.753 2.793,-2.226 0,-0.203 -0.226,-0.203 -0.34,-0.203 -0.179,0 -0.269,0 -0.335,0.179 -0.407,1.309 -1.442,1.735 -2.047,1.735 -0.543,0 -0.789,-0.246 -0.789,-0.719 0,-0.293 0.179,-1.059 0.316,-1.598 0.09,-0.359 0.426,-1.711 0.492,-1.937 0.227,-0.875 0.723,-1.305 1.215,-1.305 0.09,0 0.406,0 0.699,0.203 z"
               style="fill:#000000;fill-opacity:1;fill-rule:nonzero;stroke:none"
               id="path1260" />
            <g
               id="g1264">
              <path
                 d="m 227.246,146.965 c 0,-31.399 0,-31.399 0,-31.399"
                 style="fill:none;stroke:#000000;stroke-width:0.890947;stroke-linecap:butt;stroke-linejoin:miter;stroke-miterlimit:4;stroke-dasharray:none;stroke-opacity:1"
                 id="path1262" />
            </g>
            <g
               transform="rotate(-90)"
               id="g1268">
              <path
                 d="m -111.453,227.246 -6.164,3.563 v -7.129 z"
                 style="fill:#000000;fill-opacity:1;fill-rule:evenodd;stroke:#000000;stroke-width:0.950344;stroke-linecap:butt;stroke-linejoin:miter;stroke-miterlimit:4;stroke-dasharray:none;stroke-opacity:1"
                 id="path1266" />
            </g>
            <g
               id="g1272">
              <path
                 d="m 377.742,66.621 h 38.547 v 37.027 h -38.547 z"
                 style="fill:#f0f0fa;fill-opacity:1;fill-rule:nonzero;stroke:#000000;stroke-width:0.190002;stroke-linecap:butt;stroke-linejoin:miter;stroke-miterlimit:4;stroke-dasharray:none;stroke-opacity:1"
                 id="path1270" />
            </g>
            <path
               d="m 400.836,80.648 c 0.18,-0.293 0.359,-0.539 1.262,-0.562 0.179,0 0.425,0 0.425,-0.406 0,-0.133 -0.109,-0.27 -0.246,-0.27 -0.406,0 -0.832,0.047 -1.238,0.047 -0.539,0 -1.101,-0.047 -1.641,-0.047 -0.113,0 -0.382,0 -0.382,0.43 0,0.246 0.246,0.246 0.359,0.246 0.043,0 0.629,0 0.988,0.156 l -4.136,6.57 -0.856,-6.636 c 0.27,-0.067 0.719,-0.09 0.922,-0.09 0.312,0 0.539,0 0.539,-0.406 0,-0.02 0,-0.27 -0.316,-0.27 -0.473,0 -1.618,0.047 -2.09,0.047 -0.317,0 -0.633,0 -0.922,0 -0.43,0 -0.945,-0.047 -0.969,-0.047 -0.09,0 -0.383,0 -0.383,0.43 0,0.246 0.246,0.246 0.473,0.246 0.203,0 0.496,0.023 0.676,0.047 l 0.203,1.418 c 0,0.043 0,0.09 -0.113,0.246 l -3.172,5.015 -0.879,-6.636 c 0.293,-0.067 0.719,-0.09 0.945,-0.09 0.336,0 0.336,0 0.406,-0.09 0.09,-0.066 0.11,-0.316 0.11,-0.316 0,-0.02 0,-0.27 -0.293,-0.27 -0.469,0 -1.641,0.047 -2.113,0.047 -0.317,0 -0.629,0 -0.922,0 -0.383,0 -0.946,-0.047 -0.946,-0.047 -0.113,0 -0.406,0 -0.406,0.43 0,0.246 0.25,0.246 0.496,0.246 0.203,0 0.496,0.023 0.676,0.047 l 1.168,8.953 c 0.047,0.269 0.07,0.43 0.406,0.43 0.317,0 0.426,-0.114 0.61,-0.383 l 4.16,-6.594 0.832,6.547 c 0.047,0.316 0.09,0.43 0.429,0.43 0.313,0 0.426,-0.114 0.582,-0.383 z"
               style="fill:#000000;fill-opacity:1;fill-rule:nonzero;stroke:none"
               id="path1274" />
            <path
               d="m 406.055,88.223 c 0,-1.102 -0.133,-1.914 -0.582,-2.61 -0.317,-0.449 -0.946,-0.855 -1.735,-0.855 -2.34,0 -2.34,2.746 -2.34,3.465 0,0.718 0,3.398 2.34,3.398 2.317,0 2.317,-2.68 2.317,-3.398 z m -2.317,3.105 c -0.472,0 -1.078,-0.269 -1.281,-1.082 -0.137,-0.582 -0.137,-1.414 -0.137,-2.156 0,-0.746 0,-1.508 0.137,-2.051 0.223,-0.785 0.855,-1.012 1.281,-1.012 0.539,0 1.059,0.34 1.239,0.922 0.156,0.543 0.179,1.262 0.179,2.141 0,0.742 0,1.484 -0.136,2.113 -0.2,0.922 -0.875,1.125 -1.282,1.125 z"
               style="fill:#000000;fill-opacity:1;fill-rule:nonzero;stroke:none"
               id="path1276" />
            <g
               id="g1280">
              <path
                 d="m 291.055,66.949 h 62.164 v 37.016 h -62.164 z"
                 style="fill:#e3dedb;fill-opacity:1;fill-rule:nonzero;stroke:#000000;stroke-width:0.241264;stroke-linecap:butt;stroke-linejoin:miter;stroke-miterlimit:4;stroke-dasharray:none;stroke-opacity:1"
                 id="path1278" />
            </g>
            <path
               d="m 300.008,84.562 v 3.848 c 0,0.629 -0.156,0.629 -1.125,0.629 v 0.449 c 0.519,-0.019 1.238,-0.043 1.644,-0.043 0.36,0 1.102,0.024 1.598,0.043 v -0.449 c -0.969,0 -1.125,0 -1.125,-0.629 v -2.656 c 0,-1.484 1.035,-2.293 1.934,-2.293 0.921,0 1.082,0.766 1.082,1.598 v 3.351 c 0,0.629 -0.161,0.629 -1.125,0.629 v 0.449 c 0.492,-0.019 1.238,-0.043 1.617,-0.043 0.363,0 1.125,0.024 1.597,0.043 v -0.449 c -0.945,0 -1.101,0 -1.101,-0.629 v -2.656 c 0,-1.484 1.012,-2.293 1.937,-2.293 0.899,0 1.055,0.766 1.055,1.598 v 3.351 c 0,0.629 -0.156,0.629 -1.125,0.629 v 0.449 c 0.496,-0.019 1.238,-0.043 1.621,-0.043 0.383,0 1.125,0.024 1.621,0.043 v -0.449 c -0.742,0 -1.105,0 -1.125,-0.426 v -2.746 c 0,-1.238 0,-1.664 -0.453,-2.183 -0.199,-0.246 -0.672,-0.539 -1.504,-0.539 -1.195,0 -1.847,0.855 -2.07,1.417 -0.203,-1.261 -1.262,-1.417 -1.914,-1.417 -1.059,0 -1.731,0.609 -2.137,1.507 v -1.507 l -2.027,0.156 v 0.453 c 1.015,0 1.125,0.09 1.125,0.808 z"
               style="fill:#000000;fill-opacity:1;fill-rule:nonzero;stroke:none"
               id="path1282" />
            <path
               d="m 315.16,88.41 c 0.067,0.563 0.449,1.168 1.125,1.168 0.313,0 1.192,-0.199 1.192,-1.371 v -0.809 h -0.36 v 0.809 c 0,0.832 -0.359,0.922 -0.519,0.922 -0.473,0 -0.539,-0.652 -0.539,-0.719 v -2.859 c 0,-0.606 0,-1.168 -0.516,-1.707 -0.563,-0.563 -1.285,-0.789 -1.957,-0.789 -1.195,0 -2.184,0.675 -2.184,1.621 0,0.426 0.293,0.676 0.676,0.676 0.402,0 0.652,-0.293 0.652,-0.653 0,-0.183 -0.07,-0.652 -0.742,-0.652 0.403,-0.52 1.102,-0.676 1.551,-0.676 0.719,0 1.531,0.563 1.531,1.844 v 0.519 c -0.742,0.043 -1.734,0.09 -2.632,0.516 -1.083,0.496 -1.442,1.238 -1.442,1.867 0,1.172 1.395,1.531 2.297,1.531 0.945,0 1.598,-0.586 1.867,-1.238 z m -0.09,-2.363 v 1.441 c 0,1.348 -1.035,1.844 -1.687,1.844 -0.699,0 -1.285,-0.496 -1.285,-1.215 0,-0.789 0.609,-1.98 2.972,-2.07 z"
               style="fill:#000000;fill-opacity:1;fill-rule:nonzero;stroke:none"
               id="path1284" />
            <path
               d="m 320.039,83.754 h 2.066 v -0.453 h -2.066 v -2.629 h -0.363 c 0,1.168 -0.426,2.699 -1.844,2.766 v 0.316 h 1.215 v 3.957 c 0,1.758 1.351,1.937 1.867,1.937 1.012,0 1.418,-1.011 1.418,-1.937 v -0.809 h -0.359 v 0.789 c 0,1.055 -0.43,1.598 -0.969,1.598 -0.965,0 -0.965,-1.305 -0.965,-1.555 z"
               style="fill:#000000;fill-opacity:1;fill-rule:nonzero;stroke:none"
               id="path1286" />
            <path
               d="m 324.715,84.562 v 3.848 c 0,0.629 -0.156,0.629 -1.125,0.629 v 0.449 c 0.519,-0.019 1.238,-0.043 1.644,-0.043 0.36,0 1.102,0.024 1.598,0.043 v -0.449 c -0.969,0 -1.125,0 -1.125,-0.629 v -2.656 c 0,-1.484 1.035,-2.293 1.934,-2.293 0.921,0 1.082,0.766 1.082,1.598 v 3.351 c 0,0.629 -0.161,0.629 -1.125,0.629 v 0.449 c 0.492,-0.019 1.234,-0.043 1.617,-0.043 0.363,0 1.125,0.024 1.597,0.043 v -0.449 c -0.945,0 -1.101,0 -1.101,-0.629 v -2.656 c 0,-1.484 1.012,-2.293 1.934,-2.293 0.902,0 1.058,0.766 1.058,1.598 v 3.351 c 0,0.629 -0.156,0.629 -1.125,0.629 v 0.449 c 0.496,-0.019 1.238,-0.043 1.621,-0.043 0.383,0 1.125,0.024 1.621,0.043 v -0.449 c -0.742,0 -1.105,0 -1.125,-0.426 v -2.746 c 0,-1.238 0,-1.664 -0.453,-2.183 -0.199,-0.246 -0.672,-0.539 -1.504,-0.539 -1.195,0 -1.847,0.855 -2.07,1.417 -0.203,-1.261 -1.262,-1.417 -1.914,-1.417 -1.059,0 -1.734,0.609 -2.137,1.507 v -1.507 l -2.027,0.156 v 0.453 c 1.015,0 1.125,0.09 1.125,0.808 z"
               style="fill:#000000;fill-opacity:1;fill-rule:nonzero;stroke:none"
               id="path1288" />
            <path
               d="m 340.297,88.363 v 1.285 l 2.07,-0.16 v -0.449 c -0.992,0 -1.101,-0.09 -1.101,-0.809 v -5.085 l -2.118,0.156 v 0.453 c 0.993,0 1.125,0.09 1.125,0.808 v 2.543 c 0,1.258 -0.695,2.227 -1.753,2.227 -1.192,0 -1.262,-0.676 -1.262,-1.418 v -4.769 l -2.113,0.156 v 0.453 c 1.125,0 1.125,0.043 1.125,1.305 v 2.16 c 0,1.125 0,2.429 2.183,2.429 0.809,0 1.438,-0.406 1.844,-1.285 z"
               style="fill:#000000;fill-opacity:1;fill-rule:nonzero;stroke:none"
               id="path1290" />
            <path
               d="m 345.207,79.523 -2.07,0.157 v 0.449 c 1.011,0 1.125,0.09 1.125,0.812 v 7.469 c 0,0.629 -0.157,0.629 -1.125,0.629 v 0.449 c 0.472,-0.019 1.238,-0.043 1.597,-0.043 0.36,0 1.059,0.024 1.598,0.043 v -0.449 c -0.969,0 -1.125,0 -1.125,-0.629 z"
               style="fill:#000000;fill-opacity:1;fill-rule:nonzero;stroke:none"
               id="path1292" />
            <g
               id="g1296">
              <path
                 d="m 138.605,95.551 c 42.051,-0.438 42.59,-0.438 42.59,-0.438"
                 style="fill:none;stroke:#000000;stroke-width:0.833685;stroke-linecap:butt;stroke-linejoin:miter;stroke-miterlimit:4;stroke-dasharray:none;stroke-opacity:1"
                 id="path1294" />
            </g>
            <g
               id="g1300">
              <path
                 d="m 185.043,95.113 -5.77,3.336 v -6.668 z"
                 style="fill:#000000;fill-opacity:1;fill-rule:evenodd;stroke:#000000;stroke-width:0.889264;stroke-linecap:butt;stroke-linejoin:miter;stroke-miterlimit:4;stroke-dasharray:none;stroke-opacity:1"
                 id="path1298" />
            </g>
            <g
               id="g1304">
              <path
                 d="m 138.605,74.551 c 42.051,-0.438 42.59,-0.438 42.59,-0.438"
                 style="fill:none;stroke:#000000;stroke-width:0.833685;stroke-linecap:butt;stroke-linejoin:miter;stroke-miterlimit:4;stroke-dasharray:none;stroke-opacity:1"
                 id="path1302" />
            </g>
            <g
               id="g1308">
              <path
                 d="m 185.043,74.113 -5.77,3.336 v -6.668 z"
                 style="fill:#000000;fill-opacity:1;fill-rule:evenodd;stroke:#000000;stroke-width:0.889264;stroke-linecap:butt;stroke-linejoin:miter;stroke-miterlimit:4;stroke-dasharray:none;stroke-opacity:1"
                 id="path1306" />
            </g>
            <g
               id="g1312">
              <path
                 d="m 225.965,63.391 c 0,-15.211 0,-15.211 0,-15.211"
                 style="fill:none;stroke:#000000;stroke-width:0.620154;stroke-linecap:butt;stroke-linejoin:miter;stroke-miterlimit:4;stroke-dasharray:none;stroke-opacity:1"
                 id="path1310" />
            </g>
            <g
               transform="rotate(-90)"
               id="g1316">
              <path
                 d="m -45.316,225.965 -4.289,2.48 v -4.961 z"
                 style="fill:#000000;fill-opacity:1;fill-rule:evenodd;stroke:#000000;stroke-width:0.661498;stroke-linecap:butt;stroke-linejoin:miter;stroke-miterlimit:4;stroke-dasharray:none;stroke-opacity:1"
                 id="path1314" />
            </g>
            <path
               d="m 230.605,1.059 c 0.067,-0.25 0.067,-0.27 0.067,-0.317 0,-0.316 -0.223,-0.629 -0.676,-0.629 -0.742,0 -0.922,0.676 -1.012,1.059 l -0.382,1.484 c -0.157,0.696 -0.426,1.797 -0.582,2.383 -0.094,0.316 -0.52,0.676 -0.563,0.699 -0.16,0.09 -0.519,0.336 -0.992,0.336 -0.832,0 -0.856,-0.719 -0.856,-1.035 0,-0.875 0.45,-2 0.856,-3.035 0.137,-0.383 0.18,-0.473 0.18,-0.723 0,-0.832 -0.833,-1.281 -1.622,-1.281 -1.527,0 -2.25,1.934 -2.25,2.227 0,0.203 0.227,0.203 0.364,0.203 0.156,0 0.269,0 0.312,-0.18 0.473,-1.598 1.285,-1.734 1.485,-1.734 0.113,0 0.25,0 0.25,0.293 0,0.339 -0.161,0.699 -0.25,0.925 -0.563,1.438 -0.852,2.27 -0.852,2.993 0,1.64 1.438,1.867 2.27,1.867 0.359,0 0.855,-0.047 1.394,-0.43 -0.402,1.758 -1.484,2.699 -2.473,2.699 -0.203,0 -0.585,-0.019 -0.878,-0.199 0.449,-0.18 0.675,-0.586 0.675,-0.969 0,-0.519 -0.406,-0.652 -0.699,-0.652 -0.516,0 -1.035,0.449 -1.035,1.078 0,0.742 0.766,1.262 1.937,1.262 1.641,0 3.532,-1.102 3.981,-2.879 z"
               style="fill:#000000;fill-opacity:1;fill-rule:nonzero;stroke:none"
               id="path1318" />
            <g
               id="g1322">
              <path
                 d="m 227.707,126.305 c 93.801,0 93.801,0 93.801,0 l 0.437,-15.27"
                 style="fill:none;stroke:#000000;stroke-width:0.75;stroke-linecap:butt;stroke-linejoin:miter;stroke-miterlimit:4;stroke-dasharray:none;stroke-opacity:1"
                 id="path1320" />
            </g>
            <g
               transform="matrix(0.0285714,-1,1,0.0285714,0,0)"
               id="g1326">
              <path
                 d="m -98.293,324.851 -5.187,3 -0.004,-5.996 z"
                 style="fill:#000000;fill-opacity:1;fill-rule:evenodd;stroke:#000000;stroke-width:0.799674;stroke-linecap:butt;stroke-linejoin:miter;stroke-miterlimit:4;stroke-dasharray:none;stroke-opacity:1"
                 id="path1324" />
            </g>
            <g
               id="g1330">
              <path
                 d="m 377.301,83.988 c -18.762,0 -18.762,0 -18.762,0"
                 style="fill:none;stroke:#000000;stroke-width:0.75;stroke-linecap:butt;stroke-linejoin:miter;stroke-miterlimit:4;stroke-dasharray:none;stroke-opacity:1"
                 id="path1328" />
            </g>
            <g
               transform="scale(-1)"
               id="g1334">
              <path
                 d="m -355.078,-83.988 -5.192,3 v -6 z"
                 style="fill:#000000;fill-opacity:1;fill-rule:evenodd;stroke:#000000;stroke-width:0.8;stroke-linecap:butt;stroke-linejoin:miter;stroke-miterlimit:4;stroke-dasharray:none;stroke-opacity:1"
                 id="path1332" />
            </g>
            <g
               id="g1338">
              <path
                 d="M 322.309,65.762 C 322.766,51.102 238.887,37.039 238.887,37.039"
                 style="fill:none;stroke:#000000;stroke-width:0.636573;stroke-linecap:butt;stroke-linejoin:miter;stroke-miterlimit:4;stroke-dasharray:none;stroke-opacity:1"
                 id="path1336" />
            </g>
            <g
               transform="matrix(-1,-0.167623,0.167623,-1,0,0)"
               id="g1342">
              <path
                 d="m -235.499,2.92 -4.345,2.51 0.003,-5.02 z"
                 style="fill:#000000;fill-opacity:1;fill-rule:evenodd;stroke:#000000;stroke-width:0.669668;stroke-linecap:butt;stroke-linejoin:miter;stroke-miterlimit:4;stroke-dasharray:none;stroke-opacity:1"
                 id="path1340" />
            </g>
            <path
               d="m 231.379,36.855 c 0,-3.16 -2.59,-5.722 -5.75,-5.722 -3.188,0 -5.75,2.59 -5.75,5.722 0,3.188 2.59,5.75 5.75,5.75 3.187,0 5.75,-2.589 5.75,-5.75 z m -11.07,-0.214 c 0.164,-2.891 2.402,-4.942 5.105,-5.079 v 5.079 z m 5.535,-5.079 c 2.699,0.137 4.914,2.215 5.105,5.079 h -5.105 z m -0.43,10.614 c -2.676,-0.137 -4.941,-2.16 -5.105,-5.106 h 5.105 z m 5.535,-5.106 c -0.191,2.946 -2.457,4.969 -5.105,5.106 V 37.07 Z"
               style="fill:#000000;fill-opacity:1;fill-rule:nonzero;stroke:none"
               id="path1344" />
            <g
               id="g1348">
              <path
                 d="m 225.652,29.551 c 0,-12.379 0,-12.379 0,-12.379"
                 style="fill:none;stroke:#000000;stroke-width:0.559418;stroke-linecap:butt;stroke-linejoin:miter;stroke-miterlimit:4;stroke-dasharray:none;stroke-opacity:1"
                 id="path1346" />
            </g>
            <g
               transform="rotate(-90)"
               id="g1352">
              <path
                 d="m -14.59,225.652 -3.871,2.239 v -4.477 z"
                 style="fill:#000000;fill-opacity:1;fill-rule:evenodd;stroke:#000000;stroke-width:0.596713;stroke-linecap:butt;stroke-linejoin:miter;stroke-miterlimit:4;stroke-dasharray:none;stroke-opacity:1"
                 id="path1350" />
            </g>
          </g>
        </g>
      </g>
    </g>
  </g>
</svg>
