<?xml version="1.0" encoding="UTF-8" standalone="no"?>
<svg
   width="583.63281pt"
   height="154.06511pt"
   viewBox="0 0 583.6328 154.06511"
   version="1.1"
   id="svg469"
   xmlns="http://www.w3.org/2000/svg"
   xmlns:svg="http://www.w3.org/2000/svg">
  <defs
     id="defs197">
    <clipPath
       id="clip-0">
      <path
         clip-rule="nonzero"
         d="m 609,13 h 90.4375 V 36 H 609 Z m 0,0"
         id="path182" />
    </clipPath>
    <clipPath
       id="clip-1">
      <path
         clip-rule="nonzero"
         d="m 609,83 h 90.4375 v 23 H 609 Z m 0,0"
         id="path185" />
    </clipPath>
    <clipPath
       id="clip-2">
      <path
         clip-rule="nonzero"
         d="m 609,118 h 90.4375 v 23 H 609 Z m 0,0"
         id="path188" />
    </clipPath>
    <clipPath
       id="clip-3">
      <path
         clip-rule="nonzero"
         d="m 609,48 h 90.4375 V 71 H 609 Z m 0,0"
         id="path191" />
    </clipPath>
    <clipPath
       id="clip-4">
      <path
         clip-rule="nonzero"
         d="M 28,4 H 503 V 154.06641 H 28 Z m 0,0"
         id="path194" />
    </clipPath>
  </defs>
  <path
     fill="none"
     stroke-width="1.41732"
     stroke-linecap="butt"
     stroke-linejoin="miter"
     stroke="#000000"
     stroke-opacity="1"
     stroke-miterlimit="4"
     d="m 492.83594,111.19661 18.86718,0.1836"
     id="path297" />
  <path
     fill-rule="evenodd"
     fill="#000000"
     fill-opacity="1"
     stroke-width="0.944882"
     stroke-linecap="butt"
     stroke-linejoin="miter"
     stroke="#000000"
     stroke-opacity="1"
     stroke-miterlimit="4"
     d="m 515.78906,111.42318 -6.16406,3.48047 0.0702,-7.08594 z m 0,0"
     id="path299" />
  <path
     fill="none"
     stroke-width="1.38542"
     stroke-linecap="butt"
     stroke-linejoin="miter"
     stroke="#000000"
     stroke-opacity="1"
     stroke-dasharray="5.54168, 1.38542"
     stroke-miterlimit="4"
     d="M 25.261719,0.692711 H 498.29297 V 149.11849 H 25.261719 Z m 0,0"
     id="path301" />
  <path
     fill-rule="nonzero"
     fill="#ffffff"
     fill-opacity="1"
     d="M 28.902344,4.950524 H 501.93359 V 153.37239 H 28.902344 Z m 0,0"
     id="path303" />
  <g
     clip-path="url(#clip-4)"
     id="g307"
     transform="translate(0,0.001305)">
    <path
       fill="none"
       stroke-width="1.38542"
       stroke-linecap="butt"
       stroke-linejoin="miter"
       stroke="#000000"
       stroke-opacity="1"
       stroke-dasharray="5.54168, 1.38542"
       stroke-miterlimit="4"
       d="M 28.902344,4.949219 H 501.93359 V 153.37109 H 28.902344 Z m 0,0"
       id="path305" />
  </g>
  <path
     fill="none"
     stroke-width="1.125"
     stroke-linecap="butt"
     stroke-linejoin="miter"
     stroke="#cccccc"
     stroke-opacity="1"
     stroke-miterlimit="4"
     d="M 176.05469,60.180993 V 131.04427"
     id="path309" />
  <path
     fill="none"
     stroke-width="1.125"
     stroke-linecap="butt"
     stroke-linejoin="miter"
     stroke="#cccccc"
     stroke-opacity="1"
     stroke-miterlimit="4"
     d="M 190.22656,60.180993 V 131.04427"
     id="path311" />
  <path
     fill="none"
     stroke-width="1.125"
     stroke-linecap="butt"
     stroke-linejoin="miter"
     stroke="#cccccc"
     stroke-opacity="1"
     stroke-miterlimit="4"
     d="M 204.39844,60.180993 V 131.04427"
     id="path313" />
  <path
     fill="none"
     stroke-width="1.125"
     stroke-linecap="butt"
     stroke-linejoin="miter"
     stroke="#cccccc"
     stroke-opacity="1"
     stroke-miterlimit="4"
     d="M 218.57422,60.180993 V 131.04427"
     id="path315" />
  <path
     fill="none"
     stroke-width="1.125"
     stroke-linecap="butt"
     stroke-linejoin="miter"
     stroke="#cccccc"
     stroke-opacity="1"
     stroke-miterlimit="4"
     d="m 161.87891,74.352867 h 70.86718"
     id="path317" />
  <path
     fill="none"
     stroke-width="1.125"
     stroke-linecap="butt"
     stroke-linejoin="miter"
     stroke="#cccccc"
     stroke-opacity="1"
     stroke-miterlimit="4"
     d="m 161.87891,88.524743 h 70.86718"
     id="path319" />
  <path
     fill="none"
     stroke-width="1.125"
     stroke-linecap="butt"
     stroke-linejoin="miter"
     stroke="#cccccc"
     stroke-opacity="1"
     stroke-miterlimit="4"
     d="m 161.87891,102.70052 h 70.86718"
     id="path321" />
  <path
     fill="none"
     stroke-width="1.125"
     stroke-linecap="butt"
     stroke-linejoin="miter"
     stroke="#cccccc"
     stroke-opacity="1"
     stroke-miterlimit="4"
     d="m 161.87891,116.87239 h 70.86718"
     id="path323" />
  <path
     fill="none"
     stroke-width="1.5"
     stroke-linecap="butt"
     stroke-linejoin="miter"
     stroke="#000000"
     stroke-opacity="1"
     stroke-miterlimit="4"
     d="m 161.87891,60.180993 h 70.86718 v 70.863277 h -70.86718 z m 0,0"
     id="path325" />
  <path
     fill-rule="nonzero"
     fill="#000000"
     fill-opacity="1"
     stroke-width="1.41732"
     stroke-linecap="butt"
     stroke-linejoin="miter"
     stroke="#000000"
     stroke-opacity="1"
     stroke-miterlimit="4"
     d="m 191.15234,99.692711 h 12.28125 L 197.3125,84.813805 Z m -4.19922,10.082029 h -3.35937 l 12.32031,-28.32031 h 2.80078 l 12.32032,28.32031 h -3.36329 l -3.11718,-7.44141 h -14.48047 z m 0,0"
     id="path327" />
  <path
     fill="none"
     stroke-width="1.41732"
     stroke-linecap="butt"
     stroke-linejoin="miter"
     stroke="#000000"
     stroke-opacity="1"
     stroke-miterlimit="4"
     d="m 141.15625,95.614586 c 0,6.562494 -5.32031,11.882804 -11.88281,11.882804 -3.14844,0 -6.17188,-1.2539 -8.40235,-3.48046 -2.22656,-2.23047 -3.48046,-5.253906 -3.48046,-8.402344 0,-3.152343 1.2539,-6.175781 3.48046,-8.402343 2.23047,-2.230469 5.25391,-3.480469 8.40235,-3.480469 6.5625,0 11.88281,5.316406 11.88281,11.882812 z m 0,0"
     id="path329" />
  <path
     fill="none"
     stroke-width="1.41732"
     stroke-linecap="butt"
     stroke-linejoin="miter"
     stroke="#000000"
     stroke-opacity="1"
     stroke-miterlimit="4"
     d="m 391.19922,119.6263 c 0,3.15234 -1.25391,6.17578 -3.48047,8.40234 -2.23047,2.23047 -5.25,3.48047 -8.40234,3.48047 -6.5625,0 -11.88282,-5.32031 -11.88282,-11.88281 0,-6.5625 5.32032,-11.88281 11.88282,-11.88281 3.15234,0 6.17187,1.25 8.40234,3.48047 2.22656,2.22656 3.48047,5.25 3.48047,8.40234 z m 0,0"
     id="path331" />
  <path
     fill-rule="nonzero"
     fill="#ffb380"
     fill-opacity="1"
     stroke-width="1.41732"
     stroke-linecap="butt"
     stroke-linejoin="miter"
     stroke="#000000"
     stroke-opacity="1"
     stroke-miterlimit="4"
     d="M 67.378906,53.993493 H 96.710938 V 83.325524 H 67.378906 Z m 0,0"
     id="path333" />
  <path
     fill-rule="nonzero"
     fill="#000000"
     fill-opacity="1"
     stroke-width="1.41732"
     stroke-linecap="butt"
     stroke-linejoin="miter"
     stroke="#000000"
     stroke-opacity="1"
     stroke-miterlimit="4"
     d="m 84.304688,63.559899 -2.082032,8 H 81.027344 L 79.34375,64.919274 77.703125,71.559899 H 76.53125 l -2.117188,-8 h 1.089844 l 1.683594,6.652344 1.652344,-6.652344 h 1.082031 l 1.667969,6.714844 1.671875,-6.714844 z m 0,0"
     id="path335" />
  <path
     fill-rule="nonzero"
     fill="#000000"
     fill-opacity="1"
     stroke-width="1.41732"
     stroke-linecap="butt"
     stroke-linejoin="miter"
     stroke="#000000"
     stroke-opacity="1"
     stroke-miterlimit="4"
     d="m 89.675781,73.759117 h -0.898437 l -2.054688,-2.316406 -0.519531,0.554688 v 1.761718 h -0.691406 v -5.199218 h 0.691406 v 2.714844 l 2.523437,-2.714844 h 0.839844 l -2.320312,2.445312 z m 0,0"
     id="path337" />
  <path
     fill-rule="nonzero"
     fill="#ffb380"
     fill-opacity="1"
     stroke-width="1.41732"
     stroke-linecap="butt"
     stroke-linejoin="miter"
     stroke="#000000"
     stroke-opacity="1"
     stroke-miterlimit="4"
     d="m 67.378906,107.89974 h 29.332032 v 29.33203 H 67.378906 Z m 0,0"
     id="path339" />
  <path
     fill-rule="nonzero"
     fill="#000000"
     fill-opacity="1"
     stroke-width="1.41732"
     stroke-linecap="butt"
     stroke-linejoin="miter"
     stroke="#000000"
     stroke-opacity="1"
     stroke-miterlimit="4"
     d="m 84.074219,116.78255 -2.078125,7.99609 h -1.199219 l -1.679687,-6.64062 -1.644532,6.64062 H 76.300781 L 74.1875,116.78255 h 1.089844 l 1.679687,6.64844 1.65625,-6.64844 h 1.078125 l 1.671875,6.71094 1.667969,-6.71094 z m 0,0"
     id="path341" />
  <path
     fill-rule="nonzero"
     fill="#000000"
     fill-opacity="1"
     stroke-width="1.41732"
     stroke-linecap="butt"
     stroke-linejoin="miter"
     stroke="#000000"
     stroke-opacity="1"
     stroke-miterlimit="4"
     d="m 89.902344,128.2513 c -0.140625,0.0352 -0.277344,0.0586 -0.414063,0.0742 -0.136719,0.0156 -0.273437,0.0234 -0.417969,0.0234 -0.402343,0 -0.730468,-0.10938 -0.976562,-0.33204 -0.242188,-0.22265 -0.375,-0.53906 -0.398438,-0.95312 -0.05469,0.008 -0.109374,0.0117 -0.164062,0.0156 -0.05078,0.004 -0.101562,0.008 -0.148438,0.008 -0.367187,0 -0.699218,-0.0625 -1,-0.1836 -0.296874,-0.12109 -0.550781,-0.29687 -0.761718,-0.52734 -0.207032,-0.23047 -0.371094,-0.51172 -0.484375,-0.84766 -0.109375,-0.33593 -0.167969,-0.71875 -0.167969,-1.14843 0,-0.42188 0.05859,-0.80078 0.167969,-1.13672 0.113281,-0.33985 0.277343,-0.625 0.488281,-0.86719 0.207031,-0.22656 0.460938,-0.40234 0.761719,-0.52344 0.304687,-0.12109 0.636719,-0.17968 0.996093,-0.17968 0.371094,0 0.707032,0.0586 1,0.18359 0.300782,0.12109 0.550782,0.29297 0.757813,0.51953 0.214844,0.23438 0.375,0.51953 0.488281,0.85547 0.113282,0.33984 0.167969,0.72266 0.167969,1.14844 0,0.63672 -0.128906,1.17187 -0.390625,1.60547 -0.257812,0.4375 -0.605469,0.74218 -1.042969,0.91406 0.0078,0.26562 0.07031,0.47265 0.1875,0.62109 0.117188,0.14453 0.328125,0.21875 0.636719,0.21875 0.09375,0 0.207031,-0.0156 0.339844,-0.0469 0.132812,-0.0273 0.226562,-0.0508 0.28125,-0.0742 h 0.09375 z m -0.824219,-3.87109 c 0,-0.67578 -0.148437,-1.19532 -0.453125,-1.5586 -0.300781,-0.37109 -0.714844,-0.55468 -1.238281,-0.55468 -0.527344,0 -0.945313,0.18359 -1.246094,0.55468 -0.300781,0.36328 -0.453125,0.88282 -0.453125,1.5586 0,0.68359 0.15625,1.20312 0.460938,1.5664 0.308593,0.36328 0.722656,0.54297 1.238281,0.54297 0.515625,0 0.925781,-0.17969 1.230469,-0.54297 0.308593,-0.36328 0.460937,-0.88281 0.460937,-1.5664 z m 0,0"
     id="path343" />
  <path
     fill-rule="nonzero"
     fill="#000000"
     fill-opacity="1"
     stroke-width="1.41732"
     stroke-linecap="butt"
     stroke-linejoin="miter"
     stroke="#000000"
     stroke-opacity="1"
     stroke-miterlimit="4"
     d="m 343.97266,83.278649 c -0.90625,0 -1.73438,0.386718 -2.48047,1.160156 -0.71875,0.773438 -1.07813,1.863281 -1.07813,3.277344 v 7.121094 c 0,0.933593 -0.12109,1.71875 -0.36328,2.359374 -0.23828,0.640626 -0.55859,1.148438 -0.95703,1.519532 -0.40234,0.402344 -0.86719,0.679687 -1.40234,0.839844 -0.50782,0.1875 -1.03907,0.28125 -1.59766,0.28125 h -2.5625 v -2.398438 h 2.24219 c 0.48047,0 0.85156,-0.109375 1.11718,-0.320312 0.29297,-0.1875 0.4961,-0.441407 0.60157,-0.761719 0.13281,-0.320313 0.21484,-0.679688 0.23828,-1.078125 0.0273,-0.402344 0.043,-0.789063 0.043,-1.160156 V 87.23568 c 0,-0.957031 0.13281,-1.757813 0.39843,-2.398437 0.29297,-0.667969 0.62891,-1.1875 1,-1.558594 0.39844,-0.402344 0.80079,-0.683594 1.19922,-0.839844 0.40235,-0.1875 0.72266,-0.296875 0.96094,-0.320312 v -0.08203 c -0.23828,-0.02734 -0.55859,-0.121094 -0.96094,-0.28125 -0.39843,-0.183594 -0.80078,-0.464844 -1.19922,-0.839844 -0.37109,-0.398437 -0.70703,-0.917968 -1,-1.558593 -0.26562,-0.667969 -0.39843,-1.480469 -0.39843,-2.441407 v -6.878906 c 0,-0.371094 -0.0156,-0.757812 -0.043,-1.160156 -0.0234,-0.398438 -0.10547,-0.757812 -0.23828,-1.078125 -0.10547,-0.320313 -0.30469,-0.574219 -0.60157,-0.761719 -0.26562,-0.210937 -0.63671,-0.320312 -1.11718,-0.320312 h -2.24219 v -2.398438 h 2.5625 c 0.55859,0 1.08984,0.09375 1.59766,0.277344 0.53515,0.160156 1,0.441406 1.40234,0.84375 0.39844,0.371094 0.71875,0.878906 0.95703,1.519531 0.24219,0.636719 0.36328,1.425781 0.36328,2.359375 v 7.121092 c 0,1.410156 0.35938,2.503906 1.07813,3.277344 0.74609,0.773437 1.57422,1.160156 2.48047,1.160156 z m 0,0"
     id="path345" />
  <path
     fill-rule="nonzero"
     fill="#000000"
     fill-opacity="1"
     stroke-width="1.41732"
     stroke-linecap="butt"
     stroke-linejoin="miter"
     stroke="#000000"
     stroke-opacity="1"
     stroke-miterlimit="4"
     d="m 278.40234,83.278649 c 0.90625,0 1.73438,0.386718 2.48047,1.160156 0.71875,0.773438 1.07813,1.863281 1.07813,3.277344 v 7.121094 c 0,0.933593 0.12109,1.71875 0.35937,2.359374 0.24219,0.640626 0.5625,1.148438 0.96094,1.519532 0.40234,0.402344 0.86719,0.679687 1.40234,0.839844 0.50391,0.1875 1.03907,0.28125 1.59766,0.28125 h 2.5625 v -2.398438 h -2.24219 c -0.48047,0 -0.85156,-0.109375 -1.12109,-0.320312 -0.29297,-0.1875 -0.49219,-0.441407 -0.59766,-0.761719 -0.13281,-0.320313 -0.21484,-0.679688 -0.24219,-1.078125 -0.0234,-0.402344 -0.0391,-0.789063 -0.0391,-1.160156 V 87.23568 c 0,-0.957031 -0.13281,-1.757813 -0.39844,-2.398437 -0.29296,-0.667969 -0.6289,-1.1875 -1,-1.558594 -0.40234,-0.402344 -0.80078,-0.683594 -1.19921,-0.839844 -0.40235,-0.1875 -0.72266,-0.296875 -0.96094,-0.320312 v -0.08203 c 0.23828,-0.02734 0.55859,-0.121094 0.96094,-0.28125 0.39843,-0.183594 0.79687,-0.464844 1.19921,-0.839844 0.3711,-0.398437 0.70704,-0.917968 1,-1.558593 0.26563,-0.667969 0.39844,-1.480469 0.39844,-2.441407 v -6.878906 c 0,-0.371094 0.0156,-0.757812 0.0391,-1.160156 0.0274,-0.398438 0.10938,-0.757812 0.24219,-1.078125 0.10547,-0.320313 0.30469,-0.574219 0.59766,-0.761719 0.26953,-0.210937 0.64062,-0.320312 1.12109,-0.320312 h 2.24219 v -2.398438 h -2.5625 c -0.55859,0 -1.09375,0.09375 -1.59766,0.277344 -0.53515,0.160156 -1,0.441406 -1.40234,0.84375 -0.39844,0.371094 -0.71875,0.878906 -0.96094,1.519531 -0.23828,0.636719 -0.35937,1.425781 -0.35937,2.359375 v 7.121092 c 0,1.410156 -0.35938,2.503906 -1.07813,3.277344 -0.74609,0.773437 -1.57422,1.160156 -2.48047,1.160156 z m 0,0"
     id="path347" />
  <path
     fill-rule="nonzero"
     fill="#00d4aa"
     fill-opacity="1"
     stroke-width="1.41732"
     stroke-linecap="butt"
     stroke-linejoin="miter"
     stroke="#000000"
     stroke-opacity="1"
     stroke-miterlimit="4"
     d="m 293.01953,63.907555 h 29.33203 v 29.332031 h -29.33203 z m 0,0"
     id="path349" />
  <path
     fill-rule="nonzero"
     fill="#00d4aa"
     fill-opacity="1"
     stroke-width="1.41732"
     stroke-linecap="butt"
     stroke-linejoin="miter"
     stroke="#000000"
     stroke-opacity="1"
     stroke-miterlimit="4"
     d="m 295.27344,66.161461 h 29.33203 v 29.332032 h -29.33203 z m 0,0"
     id="path351" />
  <path
     fill-rule="nonzero"
     fill="#00d4aa"
     fill-opacity="1"
     stroke-width="1.41732"
     stroke-linecap="butt"
     stroke-linejoin="miter"
     stroke="#000000"
     stroke-opacity="1"
     stroke-miterlimit="4"
     d="m 297.62891,68.520836 h 29.33203 v 29.332031 h -29.33203 z m 0,0"
     id="path353" />
  <path
     fill-rule="nonzero"
     fill="#00d4aa"
     fill-opacity="1"
     stroke-width="1.41732"
     stroke-linecap="butt"
     stroke-linejoin="miter"
     stroke="#000000"
     stroke-opacity="1"
     stroke-miterlimit="4"
     d="m 300.02344,70.911461 h 29.33203 v 29.332029 h -29.33203 z m 0,0"
     id="path355" />
  <path
     fill-rule="nonzero"
     fill="#000000"
     fill-opacity="1"
     stroke-width="1.41732"
     stroke-linecap="butt"
     stroke-linejoin="miter"
     stroke="#000000"
     stroke-opacity="1"
     stroke-miterlimit="4"
     d="m 316.98828,80.481774 -2.07812,7.996093 h -1.19922 l -1.67969,-6.640624 -1.64453,6.640624 h -1.16797 l -2.11719,-7.996093 h 1.08985 l 1.67968,6.648437 1.65625,-6.648437 h 1.07813 l 1.67187,6.710937 1.66797,-6.710937 z m 0,0"
     id="path357" />
  <path
     fill-rule="nonzero"
     fill="#000000"
     fill-opacity="1"
     stroke-width="1.41732"
     stroke-linecap="butt"
     stroke-linejoin="miter"
     stroke="#000000"
     stroke-opacity="1"
     stroke-miterlimit="4"
     d="m 322.28125,85.477867 -1.89453,5.199219 h -0.92188 l -1.89062,-5.199219 h 0.73828 l 1.63281,4.574219 1.62891,-4.574219 z m 0,0"
     id="path359" />
  <path
     fill-rule="nonzero"
     fill="#000000"
     fill-opacity="1"
     stroke-width="1.41732"
     stroke-linecap="butt"
     stroke-linejoin="miter"
     stroke="#000000"
     stroke-opacity="1"
     stroke-miterlimit="4"
     d="m 489.40234,120.82552 c -0.90625,0 -1.73437,0.38672 -2.48047,1.16016 -0.71875,0.77343 -1.07812,1.86718 -1.07812,3.28125 v 7.12109 c 0,0.93359 -0.12109,1.71875 -0.35938,2.35937 -0.24218,0.64063 -0.5625,1.14453 -0.96093,1.51953 -0.40235,0.39844 -0.86719,0.67969 -1.40235,0.83985 -0.5039,0.1875 -1.03906,0.28125 -1.59765,0.28125 h -2.5586 v -2.40235 h 2.23828 c 0.48047,0 0.85157,-0.10546 1.1211,-0.32031 0.29297,-0.1875 0.49219,-0.4375 0.59765,-0.75781 0.13282,-0.32031 0.21485,-0.67969 0.24219,-1.08203 0.0274,-0.39844 0.0391,-0.78516 0.0391,-1.16016 v -6.8789 c 0,-0.96094 0.13282,-1.76172 0.39844,-2.39844 0.29297,-0.66797 0.62891,-1.1875 1,-1.5625 0.40235,-0.39844 0.80078,-0.67969 1.20313,-0.83984 0.39843,-0.1875 0.71875,-0.29297 0.95703,-0.32032 v -0.0781 c -0.23828,-0.0273 -0.5586,-0.1211 -0.95703,-0.28125 -0.40235,-0.1875 -0.80078,-0.46485 -1.20313,-0.83985 -0.37109,-0.39843 -0.70703,-0.91796 -1,-1.55859 -0.26562,-0.66797 -0.39844,-1.48047 -0.39844,-2.44141 v -6.8789 c 0,-0.375 -0.0117,-0.76172 -0.0391,-1.16016 -0.0273,-0.40234 -0.10937,-0.76172 -0.24219,-1.08203 -0.10546,-0.32031 -0.30468,-0.57031 -0.59765,-0.75781 -0.26953,-0.21485 -0.64063,-0.32031 -1.1211,-0.32031 h -2.23828 v -2.40235 h 2.5586 c 0.55859,0 1.09375,0.0937 1.59765,0.28125 0.53516,0.16016 1,0.44141 1.40235,0.83985 0.39843,0.375 0.71875,0.8789 0.96093,1.51953 0.23829,0.64062 0.35938,1.42968 0.35938,2.35937 v 7.1211 c 0,1.41406 0.35937,2.50781 1.07812,3.28125 0.7461,0.77343 1.57422,1.16015 2.48047,1.16015 z m 0,0"
     id="path361" />
  <path
     fill-rule="nonzero"
     fill="#000000"
     fill-opacity="1"
     stroke-width="1.41732"
     stroke-linecap="butt"
     stroke-linejoin="miter"
     stroke="#000000"
     stroke-opacity="1"
     stroke-miterlimit="4"
     d="m 422.15625,120.82552 c 0.90625,0 1.73437,0.38672 2.48047,1.16016 0.71875,0.77343 1.07812,1.86718 1.07812,3.28125 v 7.12109 c 0,0.93359 0.1211,1.71875 0.36328,2.35937 0.23829,0.64063 0.5586,1.14453 0.95704,1.51953 0.40234,0.39844 0.86718,0.67969 1.40234,0.83985 0.50391,0.1875 1.03906,0.28125 1.59766,0.28125 h 2.5625 v -2.40235 h -2.24219 c -0.48047,0 -0.85156,-0.10546 -1.11719,-0.32031 -0.29687,-0.1875 -0.49609,-0.4375 -0.60156,-0.75781 -0.13281,-0.32031 -0.21485,-0.67969 -0.23828,-1.08203 -0.0274,-0.39844 -0.043,-0.78516 -0.043,-1.16016 v -6.8789 c 0,-0.96094 -0.13281,-1.76172 -0.39844,-2.39844 -0.29297,-0.66797 -0.62891,-1.1875 -1,-1.5625 -0.40234,-0.39844 -0.80078,-0.67969 -1.19922,-0.83984 -0.40234,-0.1875 -0.72265,-0.29297 -0.96094,-0.32032 v -0.0781 c 0.23829,-0.0273 0.5586,-0.1211 0.96094,-0.28125 0.39844,-0.1875 0.79688,-0.46485 1.19922,-0.83985 0.37109,-0.39843 0.70703,-0.91796 1,-1.55859 0.26563,-0.66797 0.39844,-1.48047 0.39844,-2.44141 v -6.8789 c 0,-0.375 0.0156,-0.76172 0.043,-1.16016 0.0234,-0.40234 0.10547,-0.76172 0.23828,-1.08203 0.10547,-0.32031 0.30469,-0.57031 0.60156,-0.75781 0.26563,-0.21485 0.63672,-0.32031 1.11719,-0.32031 h 2.24219 v -2.40235 h -2.5625 c -0.5586,0 -1.09375,0.0937 -1.59766,0.28125 -0.53516,0.16016 -1,0.44141 -1.40234,0.83985 -0.39844,0.375 -0.71875,0.8789 -0.95704,1.51953 -0.24218,0.64062 -0.36328,1.42968 -0.36328,2.35937 v 7.1211 c 0,1.41406 -0.35937,2.50781 -1.07812,3.28125 -0.7461,0.77343 -1.57422,1.16015 -2.48047,1.16015 z m 0,0"
     id="path363" />
  <path
     fill-rule="nonzero"
     fill="#00d4aa"
     fill-opacity="1"
     stroke-width="1.41732"
     stroke-linecap="butt"
     stroke-linejoin="miter"
     stroke="#000000"
     stroke-opacity="1"
     stroke-miterlimit="4"
     d="m 437.59375,101.45833 h 29.33203 v 29.33203 h -29.33203 z m 0,0"
     id="path365" />
  <path
     fill-rule="nonzero"
     fill="#00d4aa"
     fill-opacity="1"
     stroke-width="1.41732"
     stroke-linecap="butt"
     stroke-linejoin="miter"
     stroke="#000000"
     stroke-opacity="1"
     stroke-miterlimit="4"
     d="m 439.85156,103.71224 h 29.33203 v 29.33203 h -29.33203 z m 0,0"
     id="path367" />
  <path
     fill-rule="nonzero"
     fill="#00d4aa"
     fill-opacity="1"
     stroke-width="1.41732"
     stroke-linecap="butt"
     stroke-linejoin="miter"
     stroke="#000000"
     stroke-opacity="1"
     stroke-miterlimit="4"
     d="m 442.20703,106.07161 h 29.33203 v 29.33203 h -29.33203 z m 0,0"
     id="path369" />
  <path
     fill-rule="nonzero"
     fill="#00d4aa"
     fill-opacity="1"
     stroke-width="1.41732"
     stroke-linecap="butt"
     stroke-linejoin="miter"
     stroke="#000000"
     stroke-opacity="1"
     stroke-miterlimit="4"
     d="m 444.63281,108.46224 h 29.33203 v 29.33203 h -29.33203 z m 0,0"
     id="path371" />
  <path
     fill-rule="nonzero"
     fill="#000000"
     fill-opacity="1"
     stroke-width="1.41732"
     stroke-linecap="butt"
     stroke-linejoin="miter"
     stroke="#000000"
     stroke-opacity="1"
     stroke-miterlimit="4"
     d="m 461.37891,117.97396 -2.07813,7.99609 h -1.19531 l -1.6836,-6.63672 -1.64453,6.63672 h -1.16797 l -2.11718,-7.99609 h 1.08984 l 1.67969,6.64843 1.65625,-6.64843 h 1.07812 l 1.67188,6.71484 1.67187,-6.71484 z m 0,0"
     id="path373" />
  <path
     fill-rule="nonzero"
     fill="#000000"
     fill-opacity="1"
     stroke-width="1.41732"
     stroke-linecap="butt"
     stroke-linejoin="miter"
     stroke="#000000"
     stroke-opacity="1"
     stroke-miterlimit="4"
     d="m 466.44922,123.57161 c 0.21094,0.23047 0.37109,0.51563 0.48437,0.85547 0.11328,0.33594 0.17188,0.71875 0.17188,1.14844 0,0.42578 -0.0586,0.8125 -0.17578,1.15234 -0.11328,0.33594 -0.27344,0.61719 -0.48047,0.84375 -0.21485,0.23438 -0.46875,0.41016 -0.76172,0.53125 -0.29297,0.11719 -0.625,0.17578 -1,0.17578 -0.36328,0 -0.69922,-0.0586 -0.99609,-0.17968 -0.30079,-0.1211 -0.55469,-0.29688 -0.76172,-0.52735 -0.21094,-0.23047 -0.3711,-0.51172 -0.48828,-0.84765 -0.10938,-0.33594 -0.16407,-0.71875 -0.16407,-1.14844 0,-0.42578 0.0547,-0.80469 0.16407,-1.14063 0.11328,-0.33593 0.27734,-0.625 0.49218,-0.86328 0.20313,-0.23047 0.45703,-0.40234 0.75782,-0.52343 0.30468,-0.1211 0.63671,-0.1836 0.99609,-0.1836 0.37109,0 0.70703,0.0625 1.00391,0.1875 0.29687,0.1211 0.55078,0.29297 0.75781,0.51953 z m -0.0625,2.00391 c 0,-0.67578 -0.15235,-1.19531 -0.45703,-1.5625 -0.30078,-0.36719 -0.71485,-0.55078 -1.23828,-0.55078 -0.52735,0 -0.94532,0.18359 -1.2461,0.55078 -0.30078,0.36719 -0.44922,0.88672 -0.44922,1.5625 0,0.67969 0.15235,1.20312 0.46094,1.56641 0.30469,0.35937 0.71875,0.54296 1.23438,0.54296 0.51562,0 0.92968,-0.18359 1.23437,-0.54296 0.30469,-0.36329 0.46094,-0.88672 0.46094,-1.56641 z m 0,0"
     id="path375" />
  <path
     fill-rule="nonzero"
     fill="#55ddff"
     fill-opacity="1"
     stroke-width="1.41732"
     stroke-linecap="butt"
     stroke-linejoin="miter"
     stroke="#000000"
     stroke-opacity="1"
     stroke-miterlimit="4"
     d="m 287.71094,33.059899 h 46.95312 v 18.839844 h -46.95312 z m 0,0"
     id="path377" />
  <path
     fill-rule="nonzero"
     fill="#000000"
     fill-opacity="1"
     d="m 308.24219,43.82943 c 0,0.714844 -0.30469,1.296875 -0.91407,1.746094 -0.60546,0.449219 -1.42968,0.671875 -2.47265,0.671875 -0.60156,0 -1.125,-0.05469 -1.57422,-0.15625 -0.44922,-0.109375 -0.86719,-0.242188 -1.25781,-0.40625 v -1.742188 h 0.20703 c 0.38672,0.308594 0.82031,0.546875 1.29687,0.710938 0.48438,0.167968 0.94532,0.25 1.38672,0.25 0.11719,0 0.26563,-0.01172 0.44922,-0.03125 0.1875,-0.01953 0.33984,-0.05078 0.45703,-0.09766 0.14063,-0.05859 0.25781,-0.128907 0.35156,-0.21875 0.0937,-0.08594 0.14063,-0.21875 0.14063,-0.390626 0,-0.160156 -0.0703,-0.296874 -0.20703,-0.410156 -0.13281,-0.117187 -0.32813,-0.207031 -0.58985,-0.269531 -0.27343,-0.0625 -0.5625,-0.125 -0.86718,-0.179687 -0.30469,-0.05859 -0.58985,-0.132813 -0.85547,-0.21875 -0.61328,-0.199219 -1.05469,-0.46875 -1.32422,-0.804688 -0.26563,-0.34375 -0.39844,-0.765625 -0.39844,-1.269531 0,-0.679688 0.30078,-1.230469 0.90625,-1.65625 0.60938,-0.429688 1.39063,-0.644531 2.34375,-0.644531 0.48047,0 0.94922,0.04687 1.41797,0.140624 0.46875,0.08984 0.87109,0.207032 1.21484,0.347657 v 1.675785 h -0.19921 c -0.29297,-0.234375 -0.65235,-0.429688 -1.08204,-0.585938 -0.42187,-0.160156 -0.85546,-0.242187 -1.29687,-0.242187 -0.15625,0 -0.3125,0.01172 -0.46875,0.03516 -0.15234,0.01953 -0.30078,0.05859 -0.44531,0.117188 -0.125,0.05078 -0.23438,0.125 -0.32813,0.226562 -0.0898,0.09766 -0.13672,0.207031 -0.13672,0.335938 0,0.191406 0.0742,0.339843 0.22266,0.445312 0.14453,0.09766 0.42187,0.191407 0.82812,0.277344 0.26563,0.05469 0.52344,0.109375 0.76563,0.160156 0.25,0.05078 0.51562,0.125 0.79687,0.214844 0.5586,0.183594 0.96875,0.433594 1.23047,0.746094 0.26563,0.3125 0.40235,0.722656 0.40235,1.222656 z m 0,0"
     id="path379" />
  <path
     fill-rule="nonzero"
     fill="#000000"
     fill-opacity="1"
     d="m 314.78516,46.114586 h -5.26172 v -7.269531 h 5.26172 v 1.40625 h -3.39454 v 1.253906 h 3.14844 v 1.40625 h -3.14844 v 1.796875 h 3.39454 z m 0,0"
     id="path381" />
  <path
     fill-rule="nonzero"
     fill="#000000"
     fill-opacity="1"
     d="m 321.60156,46.114586 h -5.24609 v -7.269531 h 1.875 v 5.863281 h 3.37109 z m 0,0"
     id="path383" />
  <path
     fill-rule="nonzero"
     fill="#55ddff"
     fill-opacity="1"
     stroke-width="1.41732"
     stroke-linecap="butt"
     stroke-linejoin="miter"
     stroke="#000000"
     stroke-opacity="1"
     stroke-miterlimit="4"
     d="m 432.30469,70.134117 h 46.94922 v 18.839844 h -46.94922 z m 0,0"
     id="path385" />
  <path
     fill-rule="nonzero"
     fill="#000000"
     fill-opacity="1"
     d="m 452.83203,80.903649 c 0,0.714844 -0.30469,1.300781 -0.91406,1.75 -0.60547,0.445312 -1.42578,0.667968 -2.46875,0.667968 -0.60156,0 -1.12891,-0.05078 -1.57813,-0.15625 -0.44531,-0.109374 -0.86328,-0.242187 -1.2539,-0.40625 V 81.01693 h 0.20703 c 0.38672,0.308594 0.82031,0.546875 1.29687,0.710937 0.48047,0.167969 0.94532,0.25 1.38672,0.25 0.11328,0 0.26563,-0.0078 0.44922,-0.02734 0.1875,-0.01953 0.33594,-0.05469 0.45313,-0.09766 0.14453,-0.05859 0.26171,-0.132812 0.35156,-0.222656 0.0937,-0.08594 0.14453,-0.214844 0.14453,-0.390625 0,-0.15625 -0.0703,-0.292969 -0.20703,-0.410156 -0.13281,-0.117187 -0.33203,-0.207031 -0.58985,-0.265625 -0.27343,-0.06641 -0.5625,-0.125 -0.87109,-0.183594 -0.30078,-0.05859 -0.58594,-0.128906 -0.85156,-0.21875 -0.61328,-0.199218 -1.05469,-0.464844 -1.32422,-0.804687 -0.26953,-0.34375 -0.40234,-0.765625 -0.40234,-1.269531 0,-0.675782 0.30468,-1.230469 0.91015,-1.65625 0.60938,-0.429688 1.39063,-0.644532 2.34375,-0.644532 0.47656,0 0.94922,0.04687 1.41406,0.140625 0.46875,0.09375 0.875,0.207031 1.21875,0.347657 v 1.675781 h -0.20312 c -0.29297,-0.234375 -0.65234,-0.429688 -1.07813,-0.585938 -0.42187,-0.160156 -0.85546,-0.238281 -1.29687,-0.238281 -0.15625,0 -0.3125,0.01172 -0.46875,0.03125 -0.15625,0.01953 -0.30469,0.05859 -0.44531,0.117188 -0.12891,0.05078 -0.23828,0.125 -0.32813,0.226562 -0.0898,0.09766 -0.13672,0.210938 -0.13672,0.335938 0,0.191406 0.0742,0.339843 0.21875,0.445312 0.14844,0.101562 0.42578,0.191406 0.83203,0.277344 0.26563,0.05469 0.52344,0.109375 0.76563,0.160156 0.24609,0.05469 0.51172,0.125 0.79687,0.214844 0.55469,0.183594 0.96485,0.433594 1.23047,0.75 0.26563,0.3125 0.39844,0.71875 0.39844,1.21875 z m 0,0"
     id="path387" />
  <path
     fill-rule="nonzero"
     fill="#000000"
     fill-opacity="1"
     d="m 459.375,83.188805 h -5.25781 v -7.269531 h 5.25781 v 1.40625 h -3.39453 v 1.253906 h 3.15234 v 1.40625 h -3.15234 v 1.796875 h 3.39453 z m 0,0"
     id="path389" />
  <path
     fill-rule="nonzero"
     fill="#000000"
     fill-opacity="1"
     d="m 466.19141,83.188805 h -5.24219 v -7.269531 h 1.875 v 5.863281 h 3.36719 z m 0,0"
     id="path391" />
  <path
     fill-rule="nonzero"
     fill="#000000"
     fill-opacity="1"
     d="m 136.09766,95.618493 c 0,1.878906 -0.66797,3.488281 -2.00391,4.824217 -1.33594,1.32812 -2.94141,1.99218 -4.82422,1.99218 -1.88281,0 -3.48828,-0.66406 -4.82422,-1.99218 -1.32812,-1.335936 -1.99218,-2.945311 -1.99218,-4.824217 0,-1.882813 0.66406,-3.492188 1.99218,-4.824219 1.33594,-1.335938 2.94141,-2.003907 4.82422,-2.003907 1.88281,0 3.48828,0.667969 4.82422,2.003907 1.33594,1.332031 2.00391,2.941406 2.00391,4.824219 z m -3.04688,-4.464844 c -1.08203,-0.929688 -2.34375,-1.394532 -3.78125,-1.394532 -1.4375,0 -2.69922,0.464844 -3.77734,1.394532 l 3.77734,3.78125 z m 2.07813,4.464844 c 0,-1.441407 -0.46485,-2.699219 -1.39454,-3.78125 l -3.78125,3.78125 3.78125,3.777343 c 0.92969,-1.078125 1.39454,-2.339843 1.39454,-3.777343 z m -6.53125,0 -3.78907,-3.78125 c -0.93359,1.082031 -1.39843,2.339843 -1.39843,3.78125 0,1.4375 0.46484,2.699218 1.39843,3.777343 z m 4.45312,4.453117 -3.78125,-3.781243 -3.77734,3.781243 c 1.08594,0.9375 2.34375,1.40625 3.77734,1.40625 1.43359,0 2.69141,-0.46875 3.78125,-1.40625 z m 0,0"
     id="path393" />
  <path
     fill-rule="nonzero"
     fill="#000000"
     fill-opacity="1"
     d="m 380.45703,119.6263 c 0,0.62891 -0.51172,1.14063 -1.14062,1.14063 -0.62891,0 -1.14063,-0.51172 -1.14063,-1.14063 0,-0.62891 0.51172,-1.14062 1.14063,-1.14062 0.6289,0 1.14062,0.51171 1.14062,1.14062 z m 0,0"
     id="path395" />
  <path
     fill="none"
     stroke-width="1.41732"
     stroke-linecap="butt"
     stroke-linejoin="miter"
     stroke="#000000"
     stroke-opacity="1"
     stroke-miterlimit="4"
     d="m 96.921875,69.227867 c 3.753905,2.285157 6.593755,6.03125 7.785155,10.265626 0.60547,2.164062 0.80469,4.464843 1.75781,6.507812 1.22266,2.621094 3.70313,4.621094 6.52735,5.253906"
     id="path397" />
  <path
     fill-rule="evenodd"
     fill="#000000"
     fill-opacity="1"
     stroke-width="0.944882"
     stroke-linecap="butt"
     stroke-linejoin="miter"
     stroke="#000000"
     stroke-opacity="1"
     stroke-miterlimit="4"
     d="m 116.98047,92.153648 -6.75781,2.109376 1.5584,-6.9102 z m 0,0"
     id="path399" />
  <path
     fill="none"
     stroke-width="1.41732"
     stroke-linecap="butt"
     stroke-linejoin="miter"
     stroke="#000000"
     stroke-opacity="1"
     stroke-miterlimit="4"
     d="m 97.101562,123.02474 c 3.753908,-2.28125 6.593748,-6.02735 7.785158,-10.26172 0.60547,-2.16797 0.80469,-4.46875 1.75781,-6.50781 1.22266,-2.6211 3.70313,-4.6211 6.52735,-5.25391"
     id="path401" />
  <path
     fill-rule="evenodd"
     fill="#000000"
     fill-opacity="1"
     stroke-width="0.944882"
     stroke-linecap="butt"
     stroke-linejoin="miter"
     stroke="#000000"
     stroke-opacity="1"
     stroke-miterlimit="4"
     d="m 117.16016,100.10287 -5.19922,4.80078 -1.55864,-6.914052 z m 0,0"
     id="path403" />
  <path
     fill="none"
     stroke-width="1.41732"
     stroke-linecap="butt"
     stroke-linejoin="miter"
     stroke="#000000"
     stroke-opacity="1"
     stroke-miterlimit="4"
     d="m 141.23047,96.095055 15.5664,0.316406"
     id="path405" />
  <path
     fill-rule="evenodd"
     fill="#000000"
     fill-opacity="1"
     stroke-width="0.944882"
     stroke-linecap="butt"
     stroke-linejoin="miter"
     stroke="#000000"
     stroke-opacity="1"
     stroke-miterlimit="4"
     d="m 160.88672,96.493492 -6.19922,3.417969 0.14057,-7.085939 z m 0,0"
     id="path407" />
  <path
     fill="none"
     stroke-width="1.41732"
     stroke-linecap="butt"
     stroke-linejoin="miter"
     stroke="#000000"
     stroke-opacity="1"
     stroke-miterlimit="4"
     d="m 232.90234,96.263024 c 5.90625,3.429687 12.00782,6.527336 18.25782,9.273436 8.40625,3.69531 17.11328,6.75781 26.08593,8.69531 14.61328,3.15234 29.6875,3.26562 44.63282,3.47656 13.625,0.19531 27.24609,0.48438 40.86718,0.8711"
     id="path409" />
  <path
     fill-rule="evenodd"
     fill="#000000"
     fill-opacity="1"
     stroke-width="0.94488"
     stroke-linecap="butt"
     stroke-linejoin="miter"
     stroke="#000000"
     stroke-opacity="1"
     stroke-miterlimit="4"
     d="m 366.83203,118.69271 -6.22656,3.37109 0.19922,-7.08594 z m 0,0"
     id="path411" />
  <path
     fill="none"
     stroke-width="1.41732"
     stroke-linecap="butt"
     stroke-linejoin="miter"
     stroke="#000000"
     stroke-opacity="1"
     stroke-miterlimit="4"
     d="m 346.22656,81.192711 c 5.48047,0.515625 10.87891,1.890625 15.9375,4.054688 4.25391,1.824218 8.34766,4.269531 11.30469,7.828125 2.20703,2.652343 3.71875,5.878906 4.34766,9.273436"
     id="path413" />
  <path
     fill-rule="evenodd"
     fill="#000000"
     fill-opacity="1"
     stroke-width="0.94488"
     stroke-linecap="butt"
     stroke-linejoin="miter"
     stroke="#000000"
     stroke-opacity="1"
     stroke-miterlimit="4"
     d="m 378.5625,106.3685 -4.60156,-5.38282 6.96868,-1.289443 z m 0,0"
     id="path415" />
  <path
     fill="none"
     stroke-width="1.41732"
     stroke-linecap="butt"
     stroke-linejoin="miter"
     stroke="#000000"
     stroke-opacity="1"
     stroke-miterlimit="4"
     d="m 392.01953,119.44661 25.21484,0.29297"
     id="path417" />
  <path
     fill-rule="evenodd"
     fill="#000000"
     fill-opacity="1"
     stroke-width="0.94488"
     stroke-linecap="butt"
     stroke-linejoin="miter"
     stroke="#000000"
     stroke-opacity="1"
     stroke-miterlimit="4"
     d="m 421.32031,119.78646 -6.16796,3.47266 0.082,-7.08594 z m 0,0"
     id="path419" />
  <path
     fill="none"
     stroke-width="1.41732"
     stroke-linecap="butt"
     stroke-linejoin="miter"
     stroke="#000000"
     stroke-opacity="1"
     stroke-miterlimit="4"
     d="m 493.04687,119.42708 18.86719,0.1836"
     id="path421" />
  <path
     fill-rule="evenodd"
     fill="#000000"
     fill-opacity="1"
     stroke-width="0.944882"
     stroke-linecap="butt"
     stroke-linejoin="miter"
     stroke="#000000"
     stroke-opacity="1"
     stroke-miterlimit="4"
     d="m 516,119.64974 -6.16406,3.48437 0.0702,-7.08593 z m 0,0"
     id="path423" />
  <path
     fill="none"
     stroke-width="1.41732"
     stroke-linecap="butt"
     stroke-linejoin="miter"
     stroke="#000000"
     stroke-opacity="1"
     stroke-miterlimit="4"
     d="m 545.22656,115.83724 18.86719,0.18359"
     id="path425" />
  <path
     fill-rule="evenodd"
     fill="#000000"
     fill-opacity="1"
     stroke-width="0.944882"
     stroke-linecap="butt"
     stroke-linejoin="miter"
     stroke="#000000"
     stroke-opacity="1"
     stroke-miterlimit="4"
     d="m 568.18359,116.0599 -6.16406,3.48438 0.0662,-7.08594 z m 0,0"
     id="path427" />
  <path
     fill-rule="nonzero"
     fill="#000000"
     fill-opacity="1"
     d="m 577.51953,115.59114 2.5,-7.08984 h 3.61328 l -6.09375,14.99219 h -3.80859 l 1.73828,-4.10156 -4.26953,-10.89063 h 3.6914 z m 0,0"
     id="path429" />
  <path
     fill-rule="nonzero"
     fill="#000000"
     fill-opacity="1"
     d="M 12.871094,21.087243 H 8.769531 l -2.34375,-3.28125 -2.402343,3.28125 H 0 L 4.328125,15.606774 0.0664062,10.118493 H 4.171875 l 2.304687,3.222656 2.3125,-3.222656 h 4.035157 l -4.269531,5.402343 z m 0,0"
     id="path431" />
  <path
     fill="none"
     stroke-width="1.41732"
     stroke-linecap="butt"
     stroke-linejoin="miter"
     stroke="#000000"
     stroke-opacity="1"
     stroke-miterlimit="4"
     d="M 16.109375,15.981774 H 419.83984"
     id="path433" />
  <path
     fill="none"
     stroke-width="1.41732"
     stroke-linecap="butt"
     stroke-linejoin="miter"
     stroke="#000000"
     stroke-opacity="1"
     stroke-miterlimit="4"
     d="m 419.66797,15.997399 c 9.67578,-0.136719 19.32422,4.222656 25.61719,11.578125 3.04687,3.566406 5.30468,7.746093 7.07031,12.09375 3.11719,7.6875 4.72656,15.988281 4.71094,24.285156"
     id="path435" />
  <path
     fill-rule="evenodd"
     fill="#000000"
     fill-opacity="1"
     stroke-width="0.94488"
     stroke-linecap="butt"
     stroke-linejoin="miter"
     stroke="#000000"
     stroke-opacity="1"
     stroke-miterlimit="4"
     d="m 457.05859,68.044274 -3.53124,-6.136719 7.08593,0.01173 z m 0,0"
     id="path437" />
  <path
     fill="none"
     stroke-width="1.41732"
     stroke-linecap="butt"
     stroke-linejoin="miter"
     stroke="#000000"
     stroke-opacity="1"
     stroke-miterlimit="4"
     d="m 234.0625,15.981774 c 6.54297,2.8125 12.00391,8.0625 15.07031,14.488281 3.19531,6.695312 3.76953,14.320312 3.76953,21.738281 -0.004,3.5625 -0.125,7.136719 0.21875,10.683594 0.34766,3.546875 1.17969,7.101563 2.96875,10.183594 1.55469,2.683593 3.81641,4.957031 6.49219,6.523437 2.67969,1.5625 5.76563,2.421875 8.86719,2.460938"
     id="path439" />
  <path
     fill-rule="evenodd"
     fill="#000000"
     fill-opacity="1"
     stroke-width="0.94488"
     stroke-linecap="butt"
     stroke-linejoin="miter"
     stroke="#000000"
     stroke-opacity="1"
     stroke-miterlimit="4"
     d="m 275.53907,82.11068 -6.17579,3.46875 0.0899,-7.085937 z m 0,0"
     id="path441" />
  <path
     fill="none"
     stroke-width="1.41732"
     stroke-linecap="butt"
     stroke-linejoin="miter"
     stroke="#000000"
     stroke-opacity="1"
     stroke-miterlimit="4"
     d="m 311.15625,15.997399 0.0859,10.820312"
     id="path443" />
  <path
     fill-rule="evenodd"
     fill="#000000"
     fill-opacity="1"
     stroke-width="0.94488"
     stroke-linecap="butt"
     stroke-linejoin="miter"
     stroke="#000000"
     stroke-opacity="1"
     stroke-miterlimit="4"
     d="m 311.27344,30.907555 -3.59375,-6.101563 7.08984,-0.05864 z m 0,0"
     id="path445" />
  <path
     fill="none"
     stroke-width="1.15603"
     stroke-linecap="butt"
     stroke-linejoin="miter"
     stroke="#000000"
     stroke-opacity="1"
     stroke-miterlimit="4"
     d="m 311.15234,53.325524 0.13282,4.578125"
     id="path447" />
  <path
     fill-rule="evenodd"
     fill="#000000"
     fill-opacity="1"
     stroke-width="0.770683"
     stroke-linecap="butt"
     stroke-linejoin="miter"
     stroke="#000000"
     stroke-opacity="1"
     stroke-miterlimit="4"
     d="m 311.38281,61.239587 -3.03515,-4.914064 5.77734,-0.167968 z m 0,0"
     id="path449" />
  <path
     fill="none"
     stroke-width="1.19952"
     stroke-linecap="butt"
     stroke-linejoin="miter"
     stroke="#000000"
     stroke-opacity="1"
     stroke-miterlimit="4"
     d="m 456.79687,90.001305 0.11719,5.5625"
     id="path451" />
  <path
     fill-rule="evenodd"
     fill="#000000"
     fill-opacity="1"
     stroke-width="0.799682"
     stroke-linecap="butt"
     stroke-linejoin="miter"
     stroke="#000000"
     stroke-opacity="1"
     stroke-miterlimit="4"
     d="m 456.98828,99.024739 -3.10937,-5.124997 5.99609,-0.125109 z m 0,0"
     id="path453" />
  <path
     fill="none"
     stroke-width="1.41732"
     stroke-linecap="butt"
     stroke-linejoin="miter"
     stroke="#000000"
     stroke-opacity="1"
     stroke-miterlimit="4"
     d="m 43.355469,16.126305 c 1.792969,2.050781 3.136719,4.488281 3.914062,7.097656 1.09375,3.6875 1.050781,7.605469 1.011719,11.449219 -0.203125,20.867187 0.07031,41.746094 -0.578125,62.601563 -0.144531,4.683587 -0.328125,9.449217 0.882813,13.976557 0.605468,2.26563 1.5625,4.44922 2.964843,6.32813 1.402344,1.875 3.261719,3.4375 5.425781,4.33203 1.417969,0.58984 2.957032,0.88672 4.492188,0.87109"
     id="path455" />
  <path
     fill-rule="evenodd"
     fill="#000000"
     fill-opacity="1"
     stroke-width="0.94488"
     stroke-linecap="butt"
     stroke-linejoin="miter"
     stroke="#000000"
     stroke-opacity="1"
     stroke-miterlimit="4"
     d="m 65.558594,122.73958 -6.09375,3.60547 -0.07425,-7.08593 z m 0,0"
     id="path457" />
  <path
     fill="none"
     stroke-width="1.41732"
     stroke-linecap="butt"
     stroke-linejoin="miter"
     stroke="#000000"
     stroke-opacity="1"
     stroke-miterlimit="4"
     d="M 48.136719,67.712243 H 61.179688"
     id="path459" />
  <path
     fill-rule="evenodd"
     fill="#000000"
     fill-opacity="1"
     stroke-width="0.94488"
     stroke-linecap="butt"
     stroke-linejoin="miter"
     stroke="#000000"
     stroke-opacity="1"
     stroke-miterlimit="4"
     d="m 65.269531,67.712243 -6.132812,3.546874 v -7.089843 z m 0,0"
     id="path461" />
  <path
     fill="none"
     stroke-width="1.41732"
     stroke-linecap="butt"
     stroke-linejoin="miter"
     stroke="#000000"
     stroke-opacity="1"
     stroke-miterlimit="4"
     d="m 542.4375,115.99739 c 0,3.15235 -1.25,6.17188 -3.48047,8.40235 -2.22656,2.22656 -5.25,3.48047 -8.40234,3.48047 -6.5625,0 -11.88282,-5.32032 -11.88282,-11.88282 0,-6.5625 5.32032,-11.88281 11.88282,-11.88281 3.15234,0 6.17578,1.25 8.40234,3.48047 2.23047,2.22656 3.48047,5.25 3.48047,8.40234 z m 0,0"
     id="path463" />
  <path
     fill-rule="nonzero"
     fill="#ffffff"
     fill-opacity="1"
     stroke-width="1.41732"
     stroke-linecap="butt"
     stroke-linejoin="miter"
     stroke="#000000"
     stroke-opacity="1"
     stroke-miterlimit="4"
     d="m 19.636719,16.087243 c 0.792969,-0.835938 1.519531,-1.734376 2.171875,-2.679688 0.207031,-0.300781 0.40625,-0.605469 0.636718,-0.882812 0.230469,-0.28125 0.496094,-0.535157 0.8125,-0.714844 0.324219,-0.179688 0.691407,-0.277344 1.0625,-0.324219 0.367188,-0.04297 0.742188,-0.03906 1.113282,-0.03516 1.011718,0.01172 2.027344,0.03516 3.042968,0.07031"
     id="path465" />
  <path
     fill-rule="nonzero"
     fill="#000000"
     fill-opacity="1"
     d="m 536.44531,117.17318 h -4.68359 v 4.64062 h -2.41016 v -4.64062 h -4.68359 v -2.35547 h 4.68359 v -4.64063 h 2.41016 v 4.64063 h 4.68359 z m 0,0"
     id="path467" />
</svg>
