<?xml version="1.0" encoding="UTF-8" standalone="no"?>
<!-- Created with Inkscape (http://www.inkscape.org/) -->

<svg
   width="14.969261mm"
   height="10.683215mm"
   viewBox="0 0 14.969261 10.683215"
   version="1.1"
   id="svg12112"
   xmlns="http://www.w3.org/2000/svg"
   xmlns:svg="http://www.w3.org/2000/svg">
  <defs
     id="defs12109">
    <clipPath
       id="clip2">
      <rect
         x="0"
         y="0"
         width="162"
         height="115"
         id="rect1961" />
    </clipPath>
    <clipPath
       id="clip3">
      <path
         d="m 86,0.289062 h 39 V 38 H 86 Z m 0,0"
         id="path1943" />
    </clipPath>
    <clipPath
       id="clip4">
      <path
         d="M 0.910156,53 H 6 v 6 H 0.910156 Z m 0,0"
         id="path1946" />
    </clipPath>
    <clipPath
       id="clip5">
      <path
         d="m 7,87 h 47 v 27.74609 H 7 Z m 0,0"
         id="path1949" />
    </clipPath>
    <clipPath
       id="clip6">
      <path
         d="m 7,113 h 2 v 1.74609 H 7 Z m 0,0"
         id="path1952" />
    </clipPath>
    <clipPath
       id="clip7">
      <path
         d="m 6,111 h 5 v 3.74609 H 6 Z m 0,0"
         id="path1955" />
    </clipPath>
    <clipPath
       id="clip8">
      <path
         d="m 136,39 h 25.28516 v 3 H 136 Z m 0,0"
         id="path1958" />
    </clipPath>
    <clipPath
       id="clipPath11960">
      <rect
         x="0"
         y="0"
         width="162"
         height="115"
         id="rect11958" />
    </clipPath>
    <clipPath
       id="clipPath11964">
      <path
         d="m 86,0.289062 h 39 V 38 H 86 Z m 0,0"
         id="path11962" />
    </clipPath>
    <clipPath
       id="clipPath11968">
      <path
         d="M 0.910156,53 H 6 v 6 H 0.910156 Z m 0,0"
         id="path11966" />
    </clipPath>
    <clipPath
       id="clipPath11972">
      <path
         d="m 7,87 h 47 v 27.74609 H 7 Z m 0,0"
         id="path11970" />
    </clipPath>
    <clipPath
       id="clipPath11976">
      <path
         d="m 7,113 h 2 v 1.74609 H 7 Z m 0,0"
         id="path11974" />
    </clipPath>
    <clipPath
       id="clipPath11980">
      <path
         d="m 6,111 h 5 v 3.74609 H 6 Z m 0,0"
         id="path11978" />
    </clipPath>
    <clipPath
       id="clipPath11984">
      <path
         d="m 136,39 h 25.28516 v 3 H 136 Z m 0,0"
         id="path11982" />
    </clipPath>
  </defs>
  <g
     id="layer1"
     transform="translate(-93.257769,-132.46639)">
    <g
       id="use6181"
       clip-path="url(#clip2)"
       transform="matrix(0.09333912,0,0,0.09333912,93.172816,132.43931)">
      <path
         style="fill:none;stroke:#000000;stroke-width:0.75;stroke-linecap:butt;stroke-linejoin:miter;stroke-miterlimit:4;stroke-dasharray:6, 0.75;stroke-opacity:1"
         d="m 401.35607,112.2336 c -9.70012,1.54554 -19.94486,-0.58878 -28.2172,-5.87306 -10.55385,-6.741516 -17.66335,-18.62012 -18.62011,-31.11694 -0.94205,-12.482101 4.26864,-25.30275 13.68909,-33.560366 9.42046,-8.272336 22.80044,-11.790287 35.06175,-9.229101 12.26131,2.575905 23.10955,11.15735 28.42328,22.491333"
         transform="matrix(0.26538,0,0,0.26538,0.91,0.289666)"
         id="path12271" />
      <path
         style="fill:#000000;fill-opacity:1;fill-rule:evenodd;stroke:#000000;stroke-width:0.724358;stroke-linecap:butt;stroke-linejoin:miter;stroke-miterlimit:4;stroke-opacity:1"
         d="m 214.09219,-332.80248 -4.68912,2.71813 -2.4e-4,-5.43159 z m 0,0"
         transform="matrix(0.124405,0.26538,-0.26538,0.124405,0.91,0.289666)"
         id="path12273" />
      <g
         style="fill:#000000;fill-opacity:1"
         id="g12277">
        <g
           id="use12275"
           transform="matrix(0.26458333,0,0,0.26458333,120.1974,3.8480029)">
          <path
             style="stroke:none"
             d=""
             id="path12443" />
        </g>
      </g>
      <g
         style="fill:#000000;fill-opacity:1"
         id="g12281">
        <g
           id="use12279"
           transform="matrix(0.26458333,0,0,0.26458333,118.66899,4.1534839)">
          <path
             style="stroke:none"
             d=""
             id="path12447" />
        </g>
      </g>
      <path
         style="fill:#f0f0fa;fill-opacity:1;fill-rule:nonzero;stroke:#000000;stroke-width:0.75;stroke-linecap:butt;stroke-linejoin:miter;stroke-miterlimit:4;stroke-opacity:1"
         d="M 402.8869,65.558196 H 528.54692 V 242.50081 H 402.8869 Z m 0,0"
         transform="matrix(0.26538,0,0,0.26538,0.91,0.289666)"
         id="path12283" />
      <path
         style="fill:none;stroke:#000000;stroke-width:0.93078;stroke-linecap:butt;stroke-linejoin:miter;stroke-miterlimit:4;stroke-opacity:1"
         d="M 403.16657,81.469931 C 299.98316,81.631845 299.98316,81.631845 299.98316,81.631845"
         transform="matrix(0.26538,0,0,0.26538,0.91,0.289666)"
         id="path12285" />
      <path
         style="fill:#000000;fill-opacity:1;fill-rule:evenodd;stroke:#000000;stroke-width:0.992831;stroke-linecap:butt;stroke-linejoin:miter;stroke-miterlimit:4;stroke-opacity:1"
         d="m -295.55044,-82.131057 -6.43852,3.728188 -0.003,-7.448051 z m 0,0"
         transform="matrix(-0.26538,4.35035e-4,-4.35035e-4,-0.26538,0.91,0.289666)"
         id="path12287" />
      <g
         clip-path="url(#clip3)"
         clip-rule="nonzero"
         id="g12291">
        <path
           style="fill:none;stroke:#000000;stroke-width:0.75;stroke-linecap:butt;stroke-linejoin:miter;stroke-miterlimit:4;stroke-dasharray:0.75, 0.75;stroke-opacity:1"
           d="m 401.44439,135.13708 c -13.02672,1.4425 -26.45087,-1.00093 -38.1234,-6.96231 -10.23002,-5.21068 -19.09114,-13.07088 -25.47938,-22.60908 -6.38825,-9.552934 -10.2889,-20.739722 -11.20151,-32.176742 -0.92732,-11.451739 1.1334,-23.12427 5.9025,-33.560366 4.78383,-10.436097 12.27603,-19.621039 21.53457,-26.406709 9.25854,-6.785671 20.28342,-11.142631 31.67628,-12.540979 11.39286,-1.413069 23.13899,0.161914 33.76644,4.489434 10.64216,4.342241 20.1215,11.43702 27.28987,20.401171 7.16838,8.978869 11.99636,19.797672 13.86573,31.131655"
           transform="matrix(0.26538,0,0,0.26538,0.91,0.289666)"
           id="path12289" />
      </g>
      <path
         style="fill:#000000;fill-opacity:1;fill-rule:evenodd;stroke:#000000;stroke-width:0.789218;stroke-linecap:butt;stroke-linejoin:miter;stroke-miterlimit:4;stroke-opacity:1"
         d="m 133.157,-439.1644 -5.12788,2.96184 0.01,-5.91562 z m 0,0"
         transform="matrix(0.0440154,0.26538,-0.26538,0.0440154,0.91,0.289666)"
         id="path12293" />
      <path
         style="fill:#f0f0fa;fill-opacity:1;fill-rule:nonzero;stroke:#000000;stroke-width:0.75;stroke-linecap:butt;stroke-linejoin:miter;stroke-miterlimit:4;stroke-opacity:1"
         d="M 131.79862,214.81351 H 257.45864 V 391.75612 H 131.79862 Z m 0,0"
         transform="matrix(0.26538,0,0,0.26538,0.91,0.289666)"
         id="path12295" />
      <path
         style="fill:#000000;fill-opacity:1;fill-rule:nonzero;stroke:none"
         d="m 77.085938,15.78125 c 0.03516,-0.117188 0.03516,-0.128906 0.03516,-0.148438 0,-0.152343 -0.109375,-0.300781 -0.324219,-0.300781 -0.355469,0 -0.441406,0.320313 -0.484375,0.503907 l -0.183594,0.710937 c -0.07422,0.332031 -0.203125,0.859375 -0.277344,1.140625 -0.04297,0.148438 -0.246093,0.320312 -0.269531,0.332031 -0.07422,0.04297 -0.246093,0.160157 -0.472656,0.160157 -0.398437,0 -0.410156,-0.34375 -0.410156,-0.492188 0,-0.421875 0.214843,-0.957031 0.410156,-1.453125 0.06641,-0.183594 0.08594,-0.226563 0.08594,-0.34375 0,-0.398437 -0.398437,-0.613281 -0.773437,-0.613281 -0.734375,0 -1.078125,0.921875 -1.078125,1.0625 0,0.09766 0.109375,0.09766 0.171875,0.09766 0.07813,0 0.128906,0 0.152344,-0.08594 0.226562,-0.761718 0.613281,-0.828124 0.710937,-0.828124 0.05469,0 0.117188,0 0.117188,0.140624 0,0.160157 -0.07422,0.332032 -0.117188,0.441407 -0.269531,0.6875 -0.410156,1.085937 -0.410156,1.429687 0,0.785156 0.6875,0.894532 1.085938,0.894532 0.171874,0 0.410156,-0.02344 0.667968,-0.207032 -0.195312,0.839844 -0.710937,1.292969 -1.183594,1.292969 -0.09766,0 -0.28125,-0.01172 -0.417968,-0.09766 0.214844,-0.08594 0.320312,-0.28125 0.320312,-0.464844 0,-0.246094 -0.191406,-0.3125 -0.332031,-0.3125 -0.246094,0 -0.496094,0.21875 -0.496094,0.519531 0,0.355469 0.367188,0.601563 0.925781,0.601563 0.785157,0 1.6875,-0.527344 1.902344,-1.378907 z m 0,0"
         id="path12297" />
      <path
         style="fill:#000000;fill-opacity:1;fill-rule:nonzero;stroke:none"
         d="m 78.363281,17.507812 h 0.480469 c 0.09766,0 0.152344,0 0.152344,-0.105468 0,-0.06641 -0.05469,-0.06641 -0.140625,-0.06641 h -0.453125 l 0.171875,-0.707032 c 0.01172,-0.02344 0.02344,-0.05469 0.02344,-0.06641 0,-0.09766 -0.07422,-0.160156 -0.171875,-0.160156 -0.117187,0 -0.183593,0.08594 -0.226562,0.203125 -0.03125,0.128906 0.03125,-0.105469 -0.183594,0.730469 H 77.53125 c -0.08594,0 -0.148438,0 -0.148438,0.109374 0,0.0625 0.05469,0.0625 0.140626,0.0625 h 0.449218 l -0.277344,1.128907 c -0.03516,0.121093 -0.07422,0.292969 -0.07422,0.355469 0,0.28125 0.246094,0.453124 0.515625,0.453124 0.535156,0 0.835937,-0.667968 0.835937,-0.730468 0,-0.06641 -0.0625,-0.06641 -0.07422,-0.06641 -0.0625,0 -0.0625,0.01172 -0.105469,0.09766 -0.132813,0.300781 -0.378907,0.570312 -0.636719,0.570312 -0.105469,0 -0.171875,-0.06641 -0.171875,-0.238281 0,-0.04297 0.02344,-0.148437 0.03125,-0.191406 z m 0,0"
         id="path12299" />
      <path
         style="fill:#000000;fill-opacity:1;fill-rule:nonzero;stroke:none"
         d="m 86.167969,58.527344 c 0,-0.46875 -0.339844,-0.847656 -0.847657,-0.847656 -0.363281,0 -0.539062,0.09766 -0.753906,0.253906 -0.34375,0.253906 -0.683594,0.859375 -0.800781,1.328125 l -1,3.960937 c 0,0.03125 0.03125,0.07031 0.07813,0.07031 0.05078,0 0.07031,-0.01953 0.07031,-0.03125 l 0.441407,-1.730469 c 0.117187,0.382812 0.390625,0.605469 0.847656,0.605469 0.449219,0 0.921875,-0.214844 1.203125,-0.488281 0.304688,-0.28125 0.5,-0.683594 0.5,-1.144532 0,-0.449218 -0.234375,-0.78125 -0.460938,-0.929687 0.363282,-0.214844 0.722657,-0.59375 0.722657,-1.046875 z m -1.125,1.039062 c -0.07422,0.03125 -0.144531,0.03906 -0.300781,0.03906 -0.08984,0 -0.207032,0.0078 -0.273438,-0.01953 0.01953,-0.07031 0.246094,-0.05078 0.3125,-0.05078 0.125,0 0.1875,0 0.261719,0.03125 z m 0.773437,-1.183594 c 0,0.441407 -0.234375,0.890626 -0.554687,1.085938 -0.175781,-0.07031 -0.292969,-0.07813 -0.480469,-0.07813 -0.136719,0 -0.488281,-0.01172 -0.488281,0.195313 0,0.175781 0.320312,0.15625 0.429687,0.15625 0.234375,0 0.332032,0 0.519532,-0.07813 0.234374,0.226563 0.261718,0.421876 0.273437,0.703126 0.0078,0.363281 -0.136719,0.832031 -0.3125,1.074218 C 84.957031,61.777344 84.535156,62 84.183594,62 c -0.476563,0 -0.710938,-0.359375 -0.710938,-0.800781 0,-0.05859 0,-0.15625 0.02734,-0.273438 l 0.402344,-1.574219 c 0.136718,-0.539062 0.585937,-1.535156 1.339844,-1.535156 0.359374,0 0.574218,0.195313 0.574218,0.566406 z m 0,0"
         id="path12301" />
      <path
         style="fill:#000000;fill-opacity:1;fill-rule:nonzero;stroke:none"
         d="m 87.179688,61.292969 h 0.441406 c 0.08594,0 0.136718,0 0.136718,-0.09766 0,-0.05859 -0.05078,-0.05859 -0.128906,-0.05859 H 87.21875 L 87.375,60.492188 c 0.01172,-0.01953 0.01953,-0.05078 0.01953,-0.05859 0,-0.08984 -0.06641,-0.148438 -0.15625,-0.148438 -0.105469,0 -0.164062,0.07813 -0.203125,0.1875 -0.03125,0.117188 0.02734,-0.09766 -0.167968,0.664063 H 86.42578 c -0.07422,0 -0.136719,0 -0.136719,0.09766 0,0.05859 0.05078,0.05859 0.128907,0.05859 h 0.410156 l -0.253906,1.027343 c -0.02734,0.105469 -0.06641,0.261719 -0.06641,0.320313 0,0.257813 0.222657,0.414063 0.46875,0.414063 0.488282,0 0.761719,-0.609376 0.761719,-0.667969 0,-0.05859 -0.05859,-0.05859 -0.07031,-0.05859 -0.05469,0 -0.05469,0.01172 -0.09766,0.08984 -0.117187,0.273437 -0.339843,0.519531 -0.574218,0.519531 -0.09766,0 -0.15625,-0.0625 -0.15625,-0.21875 0,-0.03906 0.01953,-0.136719 0.02734,-0.175781 z m 0,0"
         id="path12303" />
      <path
         style="fill:#000000;fill-opacity:1;fill-rule:nonzero;stroke:none"
         d="m 137.98047,3.304688 c -0.26172,0.082031 -0.39063,0.324218 -0.39063,0.507812 0,0.160156 0.11719,0.34375 0.35938,0.34375 0.26172,0 0.52734,-0.21875 0.52734,-0.574219 0,-0.390625 -0.3789,-0.644531 -0.82812,-0.644531 -0.42578,0 -0.6875,0.3125 -0.79297,0.449219 -0.1836,-0.3125 -0.58594,-0.449219 -1.00781,-0.449219 -0.91797,0 -1.41407,0.894531 -1.41407,1.136719 0,0.105469 0.10547,0.105469 0.17188,0.105469 0.0937,0 0.14062,0 0.17187,-0.09375 0.20703,-0.664063 0.73438,-0.882813 1.03516,-0.882813 0.27734,0 0.41406,0.125 0.41406,0.355469 0,0.148437 -0.10547,0.550781 -0.17187,0.816406 l -0.25391,0.996094 c -0.10547,0.449218 -0.36719,0.667968 -0.62109,0.667968 -0.0312,0 -0.20313,0 -0.34375,-0.105468 0.26562,-0.078125 0.39062,-0.332032 0.39062,-0.503906 0,-0.160157 -0.125,-0.34375 -0.36719,-0.34375 -0.2539,0 -0.52734,0.21875 -0.52734,0.574218 0,0.390625 0.39063,0.640625 0.83594,0.640625 0.41406,0 0.6914,-0.308593 0.78125,-0.445312 0.18359,0.308593 0.59765,0.445312 1.01172,0.445312 0.92968,0 1.42187,-0.894531 1.42187,-1.136719 0,-0.101562 -0.11328,-0.101562 -0.17187,-0.101562 -0.0898,0 -0.13672,0 -0.17188,0.089844 -0.20703,0.667968 -0.73437,0.886718 -1.04297,0.886718 -0.27734,0 -0.40234,-0.128906 -0.40234,-0.367187 0,-0.148437 0.0898,-0.542969 0.16016,-0.816406 0.0469,-0.183594 0.21875,-0.871094 0.2539,-0.988281 0.11328,-0.445313 0.36719,-0.664063 0.61719,-0.664063 0.0469,0 0.20703,0 0.35547,0.101563 z m 0,0"
         id="path12305" />
      <path
         style="fill:#000000;fill-opacity:1;fill-rule:nonzero;stroke:none"
         d="m 140.14062,5.320312 h 0.51954 c 0.10156,0 0.16015,0 0.16015,-0.113281 0,-0.070312 -0.0586,-0.070312 -0.14844,-0.070312 h -0.48437 l 0.18359,-0.757813 c 0.0117,-0.023437 0.0234,-0.054687 0.0234,-0.066406 0,-0.105469 -0.082,-0.171875 -0.18359,-0.171875 -0.125,0 -0.19532,0.089844 -0.24219,0.214844 -0.0312,0.140625 0.0352,-0.113281 -0.19141,0.78125 h -0.51953 c -0.0898,0 -0.16015,0 -0.16015,0.117187 0,0.066406 0.0586,0.066406 0.14843,0.066406 h 0.48438 l -0.30078,1.207032 c -0.0352,0.125 -0.0781,0.308594 -0.0781,0.378906 0,0.296875 0.26172,0.480469 0.55078,0.480469 0.57422,0 0.89453,-0.710938 0.89453,-0.78125 0,-0.066407 -0.0703,-0.066407 -0.082,-0.066407 -0.0664,0 -0.0664,0.011719 -0.11328,0.101563 -0.13674,0.324219 -0.40236,0.609375 -0.6758,0.609375 -0.11719,0 -0.18359,-0.070312 -0.18359,-0.253906 0,-0.042969 0.0234,-0.160156 0.0352,-0.203125 z m 0,0"
         id="path12307" />
      <path
         style="fill:#000000;fill-opacity:1;fill-rule:nonzero;stroke:none"
         d="m 83.230469,41.386719 h 2.472656 v 0.207031 h -2.472656 z m 0,0"
         id="path12309" />
      <path
         style="fill:#000000;fill-opacity:1;fill-rule:nonzero;stroke:none"
         d="m 85.894531,43.042969 c 0,-0.625 -0.464843,-0.625 -0.464843,-0.625 -0.277344,0 -0.523438,0.292969 -0.523438,0.515625 0,0.195312 0.148438,0.28125 0.203125,0.3125 0.289063,0.171875 0.34375,0.300781 0.34375,0.429687 0,0.152344 -0.398437,1.65625 -1.195313,1.65625 -0.492187,0 -0.492187,-0.40625 -0.492187,-0.535156 0,-0.398437 0.191406,-0.894531 0.40625,-1.441406 0.05469,-0.140625 0.07813,-0.203125 0.07813,-0.3125 0,-0.398438 -0.398438,-0.613281 -0.777344,-0.613281 -0.730468,0 -1.074218,0.925781 -1.074218,1.066406 0,0.09375 0.109374,0.09375 0.171874,0.09375 0.07422,0 0.128907,0 0.152344,-0.08594 0.226563,-0.742187 0.589844,-0.828125 0.710938,-0.828125 0.05078,0 0.117187,0 0.117187,0.140625 0,0.160156 -0.08594,0.355469 -0.109375,0.410156 -0.3125,0.792969 -0.417968,1.105469 -0.417968,1.441407 0,0.71875 0.589843,0.914062 1.191406,0.914062 1.183594,0 1.679687,-1.949219 1.679687,-2.539062 z m 0,0"
         id="path12311" />
      <path
         style="fill:#000000;fill-opacity:1;fill-rule:nonzero;stroke:none"
         d="m 87.253906,44.664062 h 0.484375 c 0.09766,0 0.148438,0 0.148438,-0.109374 0,-0.0625 -0.05078,-0.0625 -0.136719,-0.0625 H 87.296875 L 87.46875,43.78125 c 0.01172,-0.02344 0.01953,-0.05469 0.01953,-0.06641 0,-0.09766 -0.07422,-0.160156 -0.171875,-0.160156 -0.117187,0 -0.183594,0.08594 -0.222656,0.203124 -0.03516,0.132813 0.03125,-0.105468 -0.183594,0.734376 H 86.42578 c -0.08594,0 -0.152343,0 -0.152343,0.105468 0,0.06641 0.05469,0.06641 0.140624,0.06641 h 0.453126 l -0.28125,1.128907 c -0.03125,0.117187 -0.07422,0.289062 -0.07422,0.355469 0,0.277343 0.246093,0.449218 0.515625,0.449218 0.539062,0 0.839844,-0.664062 0.839844,-0.730468 0,-0.06641 -0.06641,-0.06641 -0.07813,-0.06641 -0.0625,0 -0.0625,0.01172 -0.105468,0.09766 -0.128906,0.300781 -0.375,0.570312 -0.636719,0.570312 -0.105469,0 -0.171875,-0.0625 -0.171875,-0.234375 0,-0.04297 0.02344,-0.152344 0.03516,-0.195313 z m 0,0"
         id="path12313" />
      <path
         style="fill:#000000;fill-opacity:1;fill-rule:nonzero;stroke:none"
         d="m 85.78125,50.800781 c 0,-0.621093 -0.464844,-0.621093 -0.464844,-0.621093 -0.277344,0 -0.527344,0.289062 -0.527344,0.515624 0,0.191407 0.152344,0.277344 0.207032,0.3125 0.289062,0.171876 0.34375,0.300782 0.34375,0.429688 0,0.148438 -0.398438,1.65625 -1.195313,1.65625 -0.492187,0 -0.492187,-0.410156 -0.492187,-0.539062 0,-0.398438 0.191406,-0.890626 0.40625,-1.441407 0.05469,-0.140625 0.07422,-0.203125 0.07422,-0.3125 0,-0.398437 -0.394531,-0.613281 -0.773437,-0.613281 -0.730469,0 -1.074219,0.925781 -1.074219,1.066406 0,0.09766 0.105469,0.09766 0.171875,0.09766 0.07422,0 0.128907,0 0.152344,-0.08594 0.222656,-0.742187 0.589844,-0.828125 0.707031,-0.828125 0.05469,0 0.117188,0 0.117188,0.136719 0,0.164062 -0.08594,0.355469 -0.105469,0.410156 -0.3125,0.796875 -0.421875,1.109375 -0.421875,1.441406 0,0.71875 0.59375,0.914063 1.195312,0.914063 1.183594,0 1.679688,-1.945313 1.679688,-2.539063 z m 0,0"
         id="path12315" />
      <path
         style="fill:#000000;fill-opacity:1;fill-rule:nonzero;stroke:none"
         d="m 87.140625,52.421875 h 0.480469 c 0.09766,0 0.152344,0 0.152344,-0.109375 0,-0.0625 -0.05469,-0.0625 -0.140626,-0.0625 h -0.453124 l 0.171874,-0.710938 c 0.01172,-0.01953 0.02344,-0.05469 0.02344,-0.0625 0,-0.09766 -0.07422,-0.164062 -0.171875,-0.164062 -0.117187,0 -0.183594,0.08594 -0.226563,0.207031 -0.03125,0.128907 0.03125,-0.109375 -0.183593,0.730469 H 86.3125 c -0.08984,0 -0.152344,0 -0.152344,0.105469 0,0.06641 0.05469,0.06641 0.140625,0.06641 H 86.75 l -0.277344,1.128906 c -0.03125,0.117188 -0.07422,0.289063 -0.07422,0.355469 0,0.28125 0.246093,0.453125 0.515624,0.453125 0.535157,0 0.835938,-0.667969 0.835938,-0.734375 0,-0.0625 -0.0625,-0.0625 -0.07422,-0.0625 -0.0625,0 -0.0625,0.0078 -0.105469,0.09375 -0.128906,0.304688 -0.378906,0.570312 -0.636718,0.570312 -0.105469,0 -0.171875,-0.0625 -0.171875,-0.234374 0,-0.04297 0.02344,-0.152344 0.03125,-0.195313 z m 0,0"
         id="path12317" />
      <path
         style="fill:#000000;fill-opacity:1;fill-rule:nonzero;stroke:none"
         d="m 105.875,11.796875 c 0,-0.03125 -0.0234,-0.109375 -0.10937,-0.109375 -0.0117,0 -0.3711,0.08984 -0.56641,0.265625 -0.0898,-0.09766 -0.30469,-0.265625 -0.66406,-0.265625 -1.08594,0 -1.76172,0.980469 -1.76172,1.839844 0,0.761718 0.5664,1.027344 1.08594,1.027344 0.30078,0 0.55468,-0.117188 0.68359,-0.195313 l -0.23438,0.945313 c -0.0312,0.08984 -0.0391,0.09766 -0.0781,0.109374 -0.0703,0.0078 -0.16797,0.0078 -0.23438,0.0078 -0.10937,0 -0.14843,0 -0.17578,0.04297 -0.0312,0.02734 -0.0508,0.136718 -0.0508,0.136718 0,0.03516 0.0195,0.117188 0.12891,0.117188 0.20703,0 0.4375,-0.01953 0.65234,-0.01953 0.23828,0 0.47266,0.01953 0.69531,0.01953 0.0391,0 0.16797,0 0.16797,-0.1875 0,-0.109375 -0.10937,-0.109375 -0.16797,-0.109375 -0.0859,0 -0.18359,0 -0.26171,-0.0078 z m -1.20312,2.042969 c -0.0312,0.109375 -0.0312,0.117187 -0.10157,0.175781 -0.1914,0.207031 -0.45703,0.3125 -0.67187,0.3125 -0.39063,0 -0.42188,-0.332031 -0.42188,-0.46875 0,-0.332031 0.20703,-1.09375 0.3125,-1.339844 0.1875,-0.449219 0.5,-0.605469 0.75391,-0.605469 0.37109,0 0.51953,0.292969 0.51953,0.359376 0,0.02344 -0.0117,0.07031 -0.0117,0.08984 z m 0,0"
         id="path12319" />
      <path
         style="fill:#000000;fill-opacity:1;fill-rule:nonzero;stroke:none"
         d="m 106.94531,13.71875 h 0.4375 c 0.0898,0 0.13672,0 0.13672,-0.09766 0,-0.05859 -0.0469,-0.05859 -0.125,-0.05859 h -0.41015 l 0.15625,-0.644531 c 0.008,-0.01953 0.0195,-0.05078 0.0195,-0.05859 0,-0.08984 -0.0703,-0.148437 -0.15625,-0.148437 -0.10938,0 -0.16797,0.07812 -0.20703,0.1875 -0.0273,0.117187 0.0312,-0.09766 -0.16407,0.664062 h -0.4414 c -0.0781,0 -0.13672,0 -0.13672,0.09766 0,0.05859 0.0508,0.05859 0.1289,0.05859 h 0.41016 l -0.25391,1.027344 c -0.0312,0.105468 -0.0703,0.261718 -0.0703,0.320312 0,0.253906 0.22656,0.410156 0.46875,0.410156 0.49219,0 0.76563,-0.605468 0.76563,-0.664062 0,-0.05859 -0.0586,-0.05859 -0.0703,-0.05859 -0.0586,0 -0.0586,0.01172 -0.0977,0.08984 -0.11719,0.273438 -0.34375,0.519531 -0.57813,0.519531 -0.0977,0 -0.15625,-0.0625 -0.15625,-0.21875 0,-0.03516 0.0195,-0.136719 0.0312,-0.175781 z m 0,0"
         id="path12321" />
      <path
         style="fill:#000000;fill-opacity:1;fill-rule:nonzero;stroke:none"
         d="m 55.949219,76.519531 c 0.117187,-0.183593 0.230469,-0.339843 0.800781,-0.355469 0.117188,0 0.273438,0 0.273438,-0.257812 0,-0.08594 -0.07031,-0.171875 -0.15625,-0.171875 -0.257813,0 -0.53125,0.02734 -0.789063,0.02734 -0.34375,0 -0.699219,-0.02734 -1.042969,-0.02734 -0.07422,0 -0.246094,0 -0.246094,0.269531 0,0.160156 0.160157,0.160156 0.230469,0.160156 0.02734,0 0.402344,0 0.628907,0.101563 l -2.632813,4.179687 -0.542969,-4.226562 c 0.171875,-0.03906 0.457032,-0.05469 0.585938,-0.05469 0.199218,0 0.34375,0 0.34375,-0.257812 0,-0.01563 0,-0.171875 -0.199219,-0.171875 -0.300781,0 -1.03125,0.02734 -1.332031,0.02734 -0.199219,0 -0.402344,0 -0.585938,0 -0.273437,0 -0.601562,-0.02734 -0.617187,-0.02734 -0.05859,0 -0.242188,0 -0.242188,0.269531 0,0.160156 0.15625,0.160156 0.300781,0.160156 0.125,0 0.3125,0.01563 0.425782,0.02734 l 0.132812,0.902344 c 0,0.02734 0,0.05859 -0.07422,0.160156 l -2.015626,3.191406 -0.558593,-4.226562 c 0.183593,-0.03906 0.457031,-0.05469 0.597656,-0.05469 0.214844,0 0.214844,0 0.261719,-0.05859 0.05469,-0.04297 0.07031,-0.199219 0.07031,-0.199219 0,-0.01563 0,-0.171875 -0.1875,-0.171875 -0.300781,0 -1.042968,0.02734 -1.34375,0.02734 -0.203125,0 -0.402344,0 -0.589844,0 -0.242187,0 -0.601562,-0.02734 -0.601562,-0.02734 -0.07031,0 -0.257812,0 -0.257812,0.269531 0,0.160156 0.160156,0.160156 0.316406,0.160156 0.128906,0 0.316406,0.01563 0.429687,0.02734 l 0.742188,5.699219 c 0.03125,0.171875 0.04687,0.269531 0.261719,0.269531 0.199218,0 0.269531,-0.07031 0.386718,-0.242187 l 2.648438,-4.195313 0.527344,4.167969 c 0.02734,0.199219 0.05859,0.269531 0.273437,0.269531 0.199219,0 0.269531,-0.07031 0.371094,-0.242187 z m 0,0"
         id="path12323" />
      <path
         style="fill:#000000;fill-opacity:1;fill-rule:nonzero;stroke:none"
         d="m 57.554688,80.851562 h 0.640624 c 0.128907,0 0.203126,0 0.203126,-0.140624 0,-0.08594 -0.07422,-0.08594 -0.1875,-0.08594 h -0.601563 l 0.230469,-0.945312 c 0.01172,-0.02734 0.02734,-0.07031 0.02734,-0.08594 0,-0.128906 -0.09766,-0.214844 -0.230469,-0.214844 -0.15625,0 -0.242188,0.113282 -0.300781,0.273438 -0.03906,0.171875 0.04687,-0.144532 -0.242188,0.972656 h -0.644531 c -0.113281,0 -0.199219,0 -0.199219,0.140625 0,0.08594 0.07031,0.08594 0.183594,0.08594 h 0.601562 l -0.371094,1.503907 c -0.04297,0.160156 -0.09766,0.386719 -0.09766,0.472656 0,0.375 0.328125,0.601563 0.6875,0.601563 0.714844,0 1.113282,-0.886719 1.113282,-0.972657 0,-0.08594 -0.08594,-0.08594 -0.09766,-0.08594 -0.08594,0 -0.08594,0.01563 -0.144531,0.128906 -0.171875,0.402344 -0.5,0.757812 -0.84375,0.757812 -0.144531,0 -0.230469,-0.08594 -0.230469,-0.316406 0,-0.05469 0.03125,-0.199218 0.04297,-0.253906 z m 0,0"
         id="path12325" />
      <path
         style="fill:#000000;fill-opacity:1;fill-rule:nonzero;stroke:none"
         d="m 124.96875,39.144531 c 0.0937,-0.152343 0.19141,-0.28125 0.66406,-0.292969 0.0937,0 0.22266,0 0.22266,-0.214843 0,-0.07031 -0.0586,-0.140625 -0.12891,-0.140625 -0.21484,0 -0.4375,0.02344 -0.65234,0.02344 -0.28125,0 -0.57813,-0.02344 -0.86328,-0.02344 -0.0586,0 -0.19922,0 -0.19922,0.222656 0,0.132812 0.12891,0.132812 0.1875,0.132812 0.0234,0 0.33203,0 0.52344,0.08203 l -2.17969,3.453125 -0.44922,-3.488281 c 0.14453,-0.03516 0.37891,-0.04688 0.48438,-0.04688 0.16796,0 0.28515,0 0.28515,-0.214843 0,-0.01172 0,-0.140625 -0.16406,-0.140625 -0.25,0 -0.85547,0.02344 -1.10156,0.02344 -0.16407,0 -0.33203,0 -0.48438,0 -0.22656,0 -0.5,-0.02344 -0.50781,-0.02344 -0.0508,0 -0.20313,0 -0.20313,0.222656 0,0.132812 0.13282,0.132812 0.25,0.132812 0.10547,0 0.25782,0.01172 0.35547,0.02344 l 0.10547,0.746094 c 0,0.02344 0,0.04687 -0.0586,0.128906 l -1.66797,2.636719 -0.46484,-3.488281 c 0.15625,-0.03516 0.3789,-0.04688 0.5,-0.04688 0.17578,0 0.17578,0 0.21093,-0.04687 0.0469,-0.03516 0.0586,-0.167969 0.0586,-0.167969 0,-0.01172 0,-0.140625 -0.15235,-0.140625 -0.25,0 -0.86328,0.02344 -1.11328,0.02344 -0.16406,0 -0.32812,0 -0.48437,0 -0.19922,0 -0.4961,-0.02344 -0.4961,-0.02344 -0.0586,0 -0.21484,0 -0.21484,0.222656 0,0.132812 0.13281,0.132812 0.26172,0.132812 0.10547,0 0.26172,0.01172 0.35547,0.02344 l 0.61328,4.707031 c 0.0234,0.144531 0.0391,0.226563 0.21484,0.226563 0.16406,0 0.22266,-0.0625 0.32031,-0.203125 l 2.1875,-3.464844 0.4375,3.441406 c 0.0234,0.164063 0.0469,0.226563 0.22266,0.226563 0.16797,0 0.22656,-0.0625 0.30859,-0.203125 z m 0,0"
         id="path12327" />
      <path
         style="fill:#000000;fill-opacity:1;fill-rule:nonzero;stroke:none"
         d="m 126.29297,42.726562 h 0.53516 c 0.10546,0 0.16406,0 0.16406,-0.117187 0,-0.07422 -0.0586,-0.07422 -0.15235,-0.07422 h -0.5 l 0.19141,-0.777344 c 0.0117,-0.02344 0.0234,-0.0625 0.0234,-0.07422 0,-0.105469 -0.082,-0.175782 -0.19141,-0.175782 -0.1289,0 -0.19922,0.09375 -0.24609,0.226563 -0.0352,0.140625 0.0352,-0.121094 -0.20313,0.800781 h -0.53125 c -0.0937,0 -0.16797,0 -0.16797,0.121094 0,0.07031 0.0625,0.07031 0.15625,0.07031 h 0.4961 l -0.3086,1.242188 c -0.0352,0.128906 -0.082,0.320312 -0.082,0.390625 0,0.308594 0.27344,0.496094 0.56641,0.496094 0.59375,0 0.92578,-0.734375 0.92578,-0.804688 0,-0.07031 -0.0703,-0.07031 -0.082,-0.07031 -0.0742,0 -0.0742,0.01172 -0.12109,0.105469 -0.14063,0.332031 -0.41407,0.628906 -0.69532,0.628906 -0.12109,0 -0.1914,-0.07422 -0.1914,-0.261719 0,-0.04687 0.0234,-0.164063 0.0352,-0.214844 z m 0,0"
         id="path12329" />
      <path
         style="fill:#000000;fill-opacity:1;fill-rule:nonzero;stroke:none"
         d="m 131.19922,43.613281 c 0.082,0 0.21094,0 0.21094,-0.117187 0,-0.144532 -0.12891,-0.144532 -0.21094,-0.144532 h -3.14844 c -0.082,0 -0.21094,0 -0.21094,0.132813 0,0.128906 0.11719,0.128906 0.21094,0.128906 z m 0,0"
         id="path12331" />
      <path
         style="fill:#000000;fill-opacity:1;fill-rule:nonzero;stroke:none"
         d="m 133.75,41.449219 c 0,-0.144531 0,-0.144531 -0.15625,-0.144531 -0.34375,0.332031 -0.81641,0.332031 -1.02734,0.332031 v 0.191406 c 0.11718,0 0.47265,0 0.7539,-0.144531 v 2.6875 c 0,0.175781 0,0.25 -0.51953,0.25 h -0.19922 v 0.1875 c 0.0937,0 0.7461,-0.02344 0.9336,-0.02344 0.16406,0 0.82812,0.02344 0.94531,0.02344 v -0.1875 h -0.19922 c -0.53125,0 -0.53125,-0.07422 -0.53125,-0.25 z m 0,0"
         id="path12333" />
      <path
         style="fill:#000000;fill-opacity:1;fill-rule:nonzero;stroke:none"
         d="M 84.355469,33.855469 C 84.375,33.769531 84.375,33.75 84.375,33.75 c 0,-0.08984 -0.07031,-0.117188 -0.136719,-0.117188 -0.01953,0 -0.03125,0 -0.03906,0.01172 l -0.8125,0.03516 c -0.08594,0 -0.195313,0.01172 -0.195313,0.1875 0,0.105468 0.117188,0.105468 0.164063,0.105468 0.07031,0 0.179687,0 0.257812,0.01953 l -0.902343,3.601562 c 0,0.01953 -0.01953,0.117188 -0.01953,0.136719 0,0.15625 0.117188,0.28125 0.304688,0.28125 0.105468,0 0.292968,-0.05859 0.371094,-0.242188 0.01953,-0.05859 0.109374,-0.421875 0.292968,-1.144531 0.117188,0.0078 0.65625,0.08594 0.65625,0.46875 0,0.03906 0,0.05859 -0.01172,0.128906 -0.01953,0.07422 -0.01953,0.08594 -0.01953,0.144532 0,0.410156 0.382813,0.644531 0.792969,0.644531 0.625,0 0.859375,-0.917969 0.859375,-0.96875 0,-0.08594 -0.09766,-0.08594 -0.15625,-0.08594 -0.105469,0 -0.117188,0.0078 -0.15625,0.117188 -0.04687,0.183593 -0.195312,0.714843 -0.515625,0.714843 -0.101563,0 -0.15625,-0.05859 -0.15625,-0.246093 0,-0.05859 0.0078,-0.175781 0.04687,-0.320313 0.01953,-0.07031 0.01953,-0.109375 0.01953,-0.160156 0,-0.527344 -0.636719,-0.625 -1.074219,-0.671875 0.05859,-0.03906 0.203126,-0.136719 0.546876,-0.46875 0.480468,-0.480469 0.742187,-0.550781 0.929687,-0.550781 0.117187,0 0.164063,0.07031 0.164063,0.07031 -0.3125,0.04687 -0.429688,0.292969 -0.429688,0.449219 0,0.136719 0.109375,0.292969 0.3125,0.292969 0.117188,0 0.449219,-0.08594 0.449219,-0.527344 0,-0.324219 -0.203125,-0.507812 -0.476563,-0.507812 -0.382812,0 -0.726562,0.273437 -1.085937,0.625 C 84.285156,35.84375 83.992188,36.125 83.75,36.261719 Z m 0,0"
         id="path12335" />
      <path
         style="fill:#000000;fill-opacity:1;fill-rule:nonzero;stroke:none"
         d="m 87.21875,37.175781 h 0.441406 c 0.08594,0 0.132813,0 0.132813,-0.09375 0,-0.0625 -0.04687,-0.0625 -0.125,-0.0625 H 87.257812 L 87.414062,36.375 c 0.01172,-0.01953 0.01953,-0.04687 0.01953,-0.05859 0,-0.08594 -0.07031,-0.144531 -0.15625,-0.144531 -0.109375,0 -0.167969,0.07813 -0.207032,0.183594 -0.02734,0.117187 0.03125,-0.09766 -0.164062,0.664062 h -0.441406 c -0.07813,0 -0.136719,0 -0.136719,0.101563 0,0.05469 0.05078,0.05469 0.128906,0.05469 h 0.410157 l -0.253907,1.027344 c -0.03125,0.109375 -0.07031,0.265625 -0.07031,0.324219 0,0.253906 0.226562,0.410156 0.46875,0.410156 0.488281,0 0.765625,-0.605469 0.765625,-0.664062 0,-0.05859 -0.05859,-0.05859 -0.07031,-0.05859 -0.05859,0 -0.05859,0.0078 -0.09766,0.08594 -0.117187,0.273438 -0.34375,0.519531 -0.578125,0.519531 -0.09766,0 -0.15625,-0.05859 -0.15625,-0.214843 0,-0.03906 0.01953,-0.136719 0.03125,-0.175781 z m 0,0"
         id="path12337" />
      <g
         clip-path="url(#clip4)"
         clip-rule="nonzero"
         id="g12341">
        <path
           style="fill:#000000;fill-opacity:1;fill-rule:nonzero;stroke:none"
           d="M 5.027344,53.847656 C 5.0625,53.71875 5.0625,53.707031 5.0625,53.683594 c 0,-0.167969 -0.117188,-0.332032 -0.355469,-0.332032 -0.390625,0 -0.484375,0.355469 -0.53125,0.554688 L 3.972656,54.6875 C 3.890625,55.054688 3.75,55.632812 3.667969,55.941406 c -0.050781,0.167969 -0.273438,0.355469 -0.296875,0.367188 -0.082032,0.04687 -0.273438,0.175781 -0.519532,0.175781 -0.441406,0 -0.449218,-0.375 -0.449218,-0.542969 0,-0.460937 0.234375,-1.054687 0.449218,-1.597656 0.070313,-0.199219 0.09375,-0.246094 0.09375,-0.378906 0,-0.4375 -0.4375,-0.671875 -0.851562,-0.671875 -0.804688,0 -1.183594,1.015625 -1.183594,1.167969 0,0.109374 0.117188,0.109374 0.191406,0.109374 0.078126,0 0.140626,0 0.164063,-0.09375 0.246094,-0.84375 0.671875,-0.914062 0.78125,-0.914062 0.058594,0 0.128906,0 0.128906,0.15625 0,0.175781 -0.082031,0.367188 -0.128906,0.484375 -0.296875,0.757813 -0.449219,1.195313 -0.449219,1.574219 0,0.863281 0.753906,0.980468 1.195313,0.980468 0.1875,0 0.449219,-0.02344 0.730469,-0.226562 -0.210938,0.925781 -0.78125,1.421875 -1.300782,1.421875 -0.105468,0 -0.308594,-0.01172 -0.460937,-0.105469 C 2,57.75 2.117188,57.539062 2.117188,57.339844 c 0,-0.273438 -0.214844,-0.34375 -0.367188,-0.34375 -0.273438,0 -0.542969,0.234375 -0.542969,0.566406 0,0.390625 0.402344,0.660156 1.015625,0.660156 0.863282,0 1.859375,-0.578125 2.09375,-1.511718 z m 0,0"
           id="path12339" />
      </g>
      <path
         style="fill:#000000;fill-opacity:1;fill-rule:nonzero;stroke:none"
         d="m 6.429688,55.746094 h 0.53125 c 0.105468,0 0.164062,0 0.164062,-0.117188 0,-0.07031 -0.058594,-0.07031 -0.152344,-0.07031 H 6.476562 l 0.1875,-0.78125 c 0.011719,-0.02344 0.023438,-0.05859 0.023438,-0.07031 0,-0.105469 -0.082031,-0.179687 -0.1875,-0.179687 -0.132812,0 -0.203125,0.09766 -0.25,0.226562 -0.035156,0.140625 0.035156,-0.117187 -0.203125,0.804688 h -0.53125 c -0.09375,0 -0.164063,0 -0.164063,0.117187 0,0.07031 0.058594,0.07031 0.152344,0.07031 h 0.5 l -0.308594,1.242187 c -0.035156,0.132813 -0.085937,0.320313 -0.085937,0.390625 0,0.308594 0.273437,0.5 0.570313,0.5 0.589843,0 0.921874,-0.734375 0.921874,-0.804687 0,-0.07031 -0.070312,-0.07031 -0.082031,-0.07031 -0.070312,0 -0.070312,0.0078 -0.117187,0.105469 -0.144532,0.332031 -0.414063,0.625 -0.699219,0.625 -0.117187,0 -0.191406,-0.07031 -0.191406,-0.257813 0,-0.05078 0.027343,-0.167968 0.035156,-0.214843 z m 0,0"
         id="path12343" />
      <path
         style="fill:#000000;fill-opacity:1;fill-rule:nonzero;stroke:none"
         d="m 9.84375,56.636719 h 1.621094 c 0.07031,0 0.1875,0 0.1875,-0.121094 0,-0.140625 -0.117188,-0.140625 -0.1875,-0.140625 H 9.84375 v -1.621094 c 0,-0.05859 0,-0.1875 -0.121094,-0.1875 -0.128906,0 -0.128906,0.117188 -0.128906,0.1875 V 56.375 H 7.972656 c -0.070312,0 -0.199218,0 -0.199218,0.128906 0,0.132813 0.117187,0.132813 0.199218,0.132813 H 9.59375 v 1.617187 c 0,0.07422 0,0.203125 0.117188,0.203125 0.132812,0 0.132812,-0.128906 0.132812,-0.203125 z m 0,0"
         id="path12345" />
      <path
         style="fill:#000000;fill-opacity:1;fill-rule:nonzero;stroke:none"
         d="m 13.796875,54.46875 c 0,-0.140625 0,-0.140625 -0.152344,-0.140625 -0.34375,0.332031 -0.816406,0.332031 -1.027343,0.332031 v 0.1875 c 0.117187,0 0.472656,0 0.753906,-0.140625 v 2.683594 c 0,0.179687 0,0.25 -0.519532,0.25 h -0.199218 v 0.1875 c 0.09375,0 0.742187,-0.02344 0.933594,-0.02344 0.167968,0 0.828124,0.02344 0.945312,0.02344 v -0.1875 h -0.199219 c -0.535156,0 -0.535156,-0.07031 -0.535156,-0.25 z m 0,0"
         id="path12347" />
      <path
         style="fill:#000000;fill-opacity:1;fill-rule:nonzero;stroke:none"
         d="m 59.546875,42.351562 c -0.273437,0.08594 -0.402344,0.332032 -0.402344,0.523438 0,0.164062 0.117188,0.355469 0.367188,0.355469 0.269531,0 0.542969,-0.226563 0.542969,-0.59375 0,-0.402344 -0.390626,-0.660157 -0.851563,-0.660157 -0.4375,0 -0.710937,0.316407 -0.816406,0.460938 -0.1875,-0.320312 -0.601563,-0.460938 -1.039063,-0.460938 -0.949218,0 -1.457031,0.921876 -1.457031,1.167969 0,0.109375 0.105469,0.109375 0.179687,0.109375 0.09375,0 0.140626,0 0.175782,-0.09766 0.214844,-0.683594 0.757812,-0.910156 1.0625,-0.910156 0.285156,0 0.429687,0.132812 0.429687,0.367187 0,0.15625 -0.109375,0.570313 -0.179687,0.839844 l -0.257813,1.03125 c -0.109375,0.460937 -0.378906,0.683594 -0.640625,0.683594 -0.03516,0 -0.214844,0 -0.355468,-0.105469 0.273437,-0.08203 0.402343,-0.34375 0.402343,-0.519531 0,-0.164063 -0.128906,-0.355469 -0.378906,-0.355469 -0.257813,0 -0.542969,0.226562 -0.542969,0.589844 0,0.402344 0.402344,0.664062 0.863282,0.664062 0.425781,0 0.710937,-0.320312 0.804687,-0.460937 0.1875,0.320312 0.613281,0.460937 1.039063,0.460937 0.960937,0 1.46875,-0.921875 1.46875,-1.171875 0,-0.105469 -0.117188,-0.105469 -0.179688,-0.105469 -0.09375,0 -0.140625,0 -0.175781,0.09375 -0.210938,0.6875 -0.757813,0.910157 -1.074219,0.910157 -0.285156,0 -0.417969,-0.128907 -0.417969,-0.378907 0,-0.152343 0.09766,-0.554687 0.167969,-0.839843 0.04687,-0.1875 0.222656,-0.898438 0.257812,-1.015625 0.121094,-0.460938 0.378907,-0.6875 0.640626,-0.6875 0.04687,0 0.214843,0 0.367187,0.105468 z m 0,0"
         id="path12349" />
      <path
         style="fill:#000000;fill-opacity:1;fill-rule:nonzero;stroke:none"
         d="m 61.773438,44.429688 h 0.53125 c 0.109374,0 0.167968,0 0.167968,-0.117188 0,-0.07031 -0.05859,-0.07031 -0.15625,-0.07031 h -0.496094 l 0.191407,-0.78125 c 0.01172,-0.02344 0.02344,-0.05859 0.02344,-0.07031 0,-0.105469 -0.08594,-0.179687 -0.191406,-0.179687 -0.128906,0 -0.199219,0.09766 -0.246094,0.226562 -0.03516,0.140625 0.03516,-0.117188 -0.203125,0.804688 h -0.53125 c -0.09375,0 -0.167969,0 -0.167969,0.117187 0,0.07031 0.0625,0.07031 0.15625,0.07031 h 0.496094 l -0.308594,1.246093 c -0.03516,0.128907 -0.08203,0.316407 -0.08203,0.386719 0,0.308594 0.273438,0.5 0.570313,0.5 0.589844,0 0.921875,-0.734375 0.921875,-0.804688 0,-0.07422 -0.07422,-0.07422 -0.08594,-0.07422 -0.07031,0 -0.07031,0.01563 -0.117187,0.109375 -0.140625,0.328125 -0.414063,0.625 -0.699219,0.625 -0.117187,0 -0.1875,-0.07031 -0.1875,-0.257813 0,-0.05078 0.02344,-0.167968 0.03516,-0.214844 z m 0,0"
         id="path12351" />
      <path
         style="fill:#000000;fill-opacity:1;fill-rule:nonzero;stroke:none"
         d="m 65.1875,45.316406 h 1.621094 c 0.07031,0 0.1875,0 0.1875,-0.117187 0,-0.140625 -0.117188,-0.140625 -0.1875,-0.140625 H 65.1875 V 43.4375 c 0,-0.05859 0,-0.1875 -0.117188,-0.1875 -0.128906,0 -0.128906,0.117188 -0.128906,0.1875 v 1.621094 h -1.621094 c -0.07031,0 -0.203124,0 -0.203124,0.128906 0,0.128906 0.117187,0.128906 0.203124,0.128906 h 1.621094 v 1.625 c 0,0.07031 0,0.199219 0.117188,0.199219 0.128906,0 0.128906,-0.128906 0.128906,-0.199219 z m 0,0"
         id="path12353" />
      <path
         style="fill:#000000;fill-opacity:1;fill-rule:nonzero;stroke:none"
         d="m 69.144531,43.152344 c 0,-0.140625 0,-0.140625 -0.152343,-0.140625 -0.34375,0.332031 -0.816407,0.332031 -1.03125,0.332031 v 0.1875 c 0.117187,0 0.472656,0 0.757812,-0.140625 v 2.683594 c 0,0.179687 0,0.25 -0.519531,0.25 h -0.203125 v 0.1875 c 0.09375,0 0.746094,-0.02344 0.9375,-0.02344 0.164062,0 0.824218,0.02344 0.945312,0.02344 v -0.1875 h -0.203125 c -0.53125,0 -0.53125,-0.07031 -0.53125,-0.25 z m 0,0"
         id="path12355" />
      <path
         style="fill:none;stroke:#000000;stroke-width:0.93078;stroke-linecap:butt;stroke-linejoin:miter;stroke-miterlimit:4;stroke-opacity:1"
         d="M 131.4012,232.63877 C 28.217791,232.81541 28.217791,232.81541 28.217791,232.81541"
         transform="matrix(0.26538,0,0,0.26538,0.91,0.289666)"
         id="path12357" />
      <path
         style="fill:#000000;fill-opacity:1;fill-rule:evenodd;stroke:#000000;stroke-width:0.992831;stroke-linecap:butt;stroke-linejoin:miter;stroke-miterlimit:4;stroke-opacity:1"
         d="m -23.537994,-232.85399 -6.438491,3.71347 -0.0025,-7.44805 z m 0,0"
         transform="matrix(-0.26538,4.35035e-4,-4.35035e-4,-0.26538,0.91,0.289666)"
         id="path12359" />
      <path
         style="fill:#000000;fill-opacity:1;fill-rule:nonzero;stroke:none"
         d="m 104.80078,1.753906 c 0.0195,-0.089844 0.0195,-0.109375 0.0195,-0.109375 0,-0.085937 -0.0664,-0.117187 -0.13672,-0.117187 -0.0195,0 -0.0273,0 -0.0352,0.011718 l -0.8125,0.039063 c -0.0898,0 -0.19531,0.00781 -0.19531,0.183594 0,0.109375 0.11718,0.109375 0.16406,0.109375 0.0703,0 0.17578,0 0.2539,0.019531 l -0.89843,3.597656 c 0,0.019531 -0.0195,0.117188 -0.0195,0.136719 0,0.15625 0.11718,0.285156 0.30078,0.285156 0.10937,0 0.29687,-0.0625 0.375,-0.246094 0.0195,-0.058593 0.10547,-0.421874 0.29297,-1.144531 0.11718,0.011719 0.65625,0.089844 0.65625,0.46875 0,0.039063 0,0.058594 -0.0117,0.128907 -0.0195,0.078124 -0.0195,0.085937 -0.0195,0.144531 0,0.414062 0.3789,0.648437 0.79296,0.648437 0.625,0 0.85938,-0.921875 0.85938,-0.96875 0,-0.089844 -0.0977,-0.089844 -0.15625,-0.089844 -0.10938,0 -0.11719,0.011719 -0.15625,0.117188 -0.0508,0.1875 -0.19531,0.714844 -0.51953,0.714844 -0.0977,0 -0.15625,-0.058594 -0.15625,-0.246094 0,-0.058594 0.0117,-0.175781 0.0508,-0.320312 0.0195,-0.070313 0.0195,-0.109376 0.0195,-0.15625 0,-0.527344 -0.63672,-0.628907 -1.07812,-0.675782 0.0586,-0.039062 0.20703,-0.136718 0.55078,-0.46875 0.47656,-0.480468 0.74218,-0.546875 0.92578,-0.546875 0.11719,0 0.16797,0.066407 0.16797,0.066407 -0.3125,0.050781 -0.42969,0.292968 -0.42969,0.449218 0,0.136719 0.10547,0.292969 0.3125,0.292969 0.11719,0 0.44922,-0.085937 0.44922,-0.527344 0,-0.320312 -0.20703,-0.507812 -0.48047,-0.507812 -0.37891,0 -0.72266,0.273437 -1.08594,0.625 -0.0664,0.070312 -0.35937,0.351562 -0.60547,0.492187 z m 0,0"
         id="path12361" />
      <path
         style="fill:#000000;fill-opacity:1;fill-rule:nonzero;stroke:none"
         d="m 107.66797,5.074219 h 0.4375 c 0.0898,0 0.13672,0 0.13672,-0.097657 0,-0.058593 -0.0469,-0.058593 -0.125,-0.058593 h -0.41016 l 0.15625,-0.648438 c 0.008,-0.019531 0.0195,-0.046875 0.0195,-0.054687 0,-0.089844 -0.0703,-0.148438 -0.15625,-0.148438 -0.10937,0 -0.16797,0.078125 -0.20703,0.183594 -0.0312,0.121094 0.0312,-0.097656 -0.16797,0.667969 h -0.4375 c -0.0781,0 -0.13672,0 -0.13672,0.097656 0,0.058594 0.0469,0.058594 0.125,0.058594 h 0.41016 l -0.25391,1.027343 c -0.0273,0.105469 -0.0664,0.261719 -0.0664,0.320313 0,0.253906 0.22265,0.410156 0.46875,0.410156 0.48828,0 0.76172,-0.605469 0.76172,-0.664062 0,-0.058594 -0.0586,-0.058594 -0.0664,-0.058594 -0.0586,0 -0.0586,0.011719 -0.0977,0.089844 -0.11718,0.273437 -0.34375,0.515625 -0.57812,0.515625 -0.0977,0 -0.15625,-0.058594 -0.15625,-0.214844 0,-0.039062 0.0195,-0.136719 0.0273,-0.175781 z m 0,0"
         id="path12363" />
      <path
         style="fill:none;stroke:#000000;stroke-width:0.75;stroke-linecap:butt;stroke-linejoin:miter;stroke-miterlimit:4;stroke-dasharray:0.75, 0.75;stroke-opacity:1"
         d="m 401.44439,135.13708 -62.60186,-0.6771"
         transform="matrix(0.26538,0,0,0.26538,0.91,0.289666)"
         id="path12365" />
      <path
         style="fill:#000000;fill-opacity:1;fill-rule:evenodd;stroke:#000000;stroke-width:0.799953;stroke-linecap:butt;stroke-linejoin:miter;stroke-miterlimit:4;stroke-opacity:1"
         d="m -336.80467,-130.75499 -5.17808,3.00017 -0.006,-6.00547 z m 0,0"
         transform="matrix(-0.26538,-0.00288449,0.00288449,-0.26538,0.91,0.289666)"
         id="path12367" />
      <path
         style="fill:none;stroke:#000000;stroke-width:0.75;stroke-linecap:butt;stroke-linejoin:miter;stroke-miterlimit:4;stroke-dasharray:0.75, 0.75;stroke-opacity:1"
         d="m 402.00373,164.97342 -62.60186,-0.67709"
         transform="matrix(0.26538,0,0,0.26538,0.91,0.289666)"
         id="path12369" />
      <path
         style="fill:#000000;fill-opacity:1;fill-rule:evenodd;stroke:#000000;stroke-width:0.799953;stroke-linecap:butt;stroke-linejoin:miter;stroke-miterlimit:4;stroke-opacity:1"
         d="m -337.67349,-160.58189 -5.1928,3.00033 -0.006,-6.00547 z m 0,0"
         transform="matrix(-0.26538,-0.00288449,0.00288449,-0.26538,0.91,0.289666)"
         id="path12371" />
      <path
         style="fill:none;stroke:#000000;stroke-width:0.75;stroke-linecap:butt;stroke-linejoin:miter;stroke-miterlimit:4;stroke-dasharray:3, 1.5;stroke-opacity:1"
         d="m 402.51891,196.85577 -62.60186,-0.6771"
         transform="matrix(0.26538,0,0,0.26538,0.91,0.289666)"
         id="path12373" />
      <path
         style="fill:#000000;fill-opacity:1;fill-rule:evenodd;stroke:#000000;stroke-width:0.799953;stroke-linecap:butt;stroke-linejoin:miter;stroke-miterlimit:4;stroke-opacity:1"
         d="m -338.54999,-192.46943 -5.17808,3.00017 -0.006,-5.99075 z m 0,0"
         transform="matrix(-0.26538,-0.00288449,0.00288449,-0.26538,0.91,0.289666)"
         id="path12375" />
      <path
         style="fill:none;stroke:#000000;stroke-width:0.75;stroke-linecap:butt;stroke-linejoin:miter;stroke-miterlimit:4;stroke-opacity:1"
         d="m 403.12241,227.17785 -62.60186,-0.67709"
         transform="matrix(0.26538,0,0,0.26538,0.91,0.289666)"
         id="path12377" />
      <path
         style="fill:#000000;fill-opacity:1;fill-rule:evenodd;stroke:#000000;stroke-width:0.799953;stroke-linecap:butt;stroke-linejoin:miter;stroke-miterlimit:4;stroke-opacity:1"
         d="m -339.48296,-222.78138 -5.19263,3.01505 -0.006,-6.00547 z m 0,0"
         transform="matrix(-0.26538,-0.00288449,0.00288449,-0.26538,0.91,0.289666)"
         id="path12379" />
      <path
         style="fill:none;stroke:#000000;stroke-width:0.746775;stroke-linecap:butt;stroke-linejoin:miter;stroke-miterlimit:4;stroke-dasharray:0.188409, 0.188409;stroke-opacity:1"
         d="m 462.80982,196.48778 -0.88317,97.5017 -231.27214,-0.61822"
         transform="matrix(0.26538,0,0,0.26538,0.91,0.289666)"
         id="path12381" />
      <path
         style="fill:#000000;fill-opacity:1;fill-rule:evenodd;stroke:#000000;stroke-width:0.796557;stroke-linecap:butt;stroke-linejoin:miter;stroke-miterlimit:4;stroke-opacity:1"
         d="m -227.99774,-292.74315 -5.17321,2.98725 -0.001,-5.99081 z m 0,0"
         transform="matrix(-0.26538,-7.13965e-4,7.13965e-4,-0.26538,0.91,0.289666)"
         id="path12383" />
      <path
         style="fill:none;stroke:#000000;stroke-width:0.75;stroke-linecap:butt;stroke-linejoin:miter;stroke-miterlimit:4;stroke-opacity:1"
         d="m 315.40915,117.50317 c -14.99912,0 -14.99912,0 -14.99912,0 l -1.8841,127.49995 h 19.54745"
         transform="matrix(0.26538,0,0,0.26538,0.91,0.289666)"
         id="path12385" />
      <path
         style="fill:none;stroke:#000000;stroke-width:0.75;stroke-linecap:butt;stroke-linejoin:miter;stroke-miterlimit:4;stroke-dasharray:0.188409, 0.188409;stroke-opacity:1"
         d="m 299.51214,179.86951 -22.53549,-0.63293 -0.36799,110.54313"
         transform="matrix(0.26538,0,0,0.26538,0.91,0.289666)"
         id="path12387" />
      <path
         style="fill:#000000;fill-opacity:1;fill-rule:evenodd;stroke:#000000;stroke-width:0.799996;stroke-linecap:butt;stroke-linejoin:miter;stroke-miterlimit:4;stroke-opacity:1"
         d="m 292.32709,-277.56883 -5.18609,3.00509 -0.005,-6.00552 z m 0,0"
         transform="matrix(-8.71657e-4,0.26538,-0.26538,-8.71657e-4,0.91,0.289666)"
         id="path12389" />
      <path
         style="fill:none;stroke:#000000;stroke-width:0.75;stroke-linecap:butt;stroke-linejoin:miter;stroke-miterlimit:4;stroke-opacity:1"
         d="m 511.11908,31.497368 c 0,29.600832 0,29.600832 0,29.600832"
         transform="matrix(0.26538,0,0,0.26538,0.91,0.289666)"
         id="path12391" />
      <path
         style="fill:#000000;fill-opacity:1;fill-rule:evenodd;stroke:#000000;stroke-width:0.8;stroke-linecap:butt;stroke-linejoin:miter;stroke-miterlimit:4;stroke-opacity:1"
         d="m 64.557273,-511.11908 -5.18125,2.98805 v -5.99082 z m 0,0"
         transform="matrix(0,0.26538,-0.26538,0,0.91,0.289666)"
         id="path12393" />
      <path
         style="fill:none;stroke:#000000;stroke-width:0.75;stroke-linecap:butt;stroke-linejoin:miter;stroke-miterlimit:4;stroke-opacity:1"
         d="m 232.72995,180.45829 c 0,29.60083 0,29.60083 0,29.60083"
         transform="matrix(0.26538,0,0,0.26538,0.91,0.289666)"
         id="path12395" />
      <path
         style="fill:#000000;fill-opacity:1;fill-rule:evenodd;stroke:#000000;stroke-width:0.8;stroke-linecap:butt;stroke-linejoin:miter;stroke-miterlimit:4;stroke-opacity:1"
         d="m 213.53292,-232.72995 -5.19597,3.00277 v -5.99082 z m 0,0"
         transform="matrix(0,0.26538,-0.26538,0,0.91,0.289666)"
         id="path12397" />
      <path
         style="fill:none;stroke:#000000;stroke-width:0.75;stroke-linecap:butt;stroke-linejoin:miter;stroke-miterlimit:4;stroke-dasharray:6, 0.75;stroke-opacity:1"
         d="m 127.72133,257.24971 c -9.70012,1.54554 -19.94486,-0.58878 -28.217199,-5.87307 -10.568572,-6.74151 -17.663351,-18.62011 -18.620116,-31.11693 -0.956764,-12.4821 4.268643,-25.28803 13.689097,-33.56037 9.420458,-8.25761 22.800438,-11.77557 35.061748,-9.21438 12.26131,2.56119 23.10955,11.14263 28.42328,22.49133"
         transform="matrix(0.26538,0,0,0.26538,0.91,0.289666)"
         id="path12399" />
      <path
         style="fill:#000000;fill-opacity:1;fill-rule:evenodd;stroke:#000000;stroke-width:0.724358;stroke-linecap:butt;stroke-linejoin:miter;stroke-miterlimit:4;stroke-opacity:1"
         d="m 227.82942,-52.727983 -4.70119,2.712471 -2.4e-4,-5.431592 z m 0,0"
         transform="matrix(0.124405,0.26538,-0.26538,0.124405,0.91,0.289666)"
         id="path12401" />
      <path
         style="fill:none;stroke:#000000;stroke-width:0.75;stroke-linecap:butt;stroke-linejoin:miter;stroke-miterlimit:4;stroke-dasharray:0.75, 0.75;stroke-opacity:1"
         d="m 130.45915,281.81649 c -13.012,1.4425 -26.45086,-1.01565 -38.123396,-6.96231 -10.230024,-5.21069 -19.091138,-13.07088 -25.479383,-22.62381 -6.388245,-9.53821 -10.288902,-20.725 -11.201508,-32.17673 -0.927326,-11.43702 1.133398,-23.10955 5.917222,-33.54565 4.769105,-10.4361 12.26131,-19.62104 21.534569,-26.40671 9.258539,-6.78567 20.283416,-11.14263 31.676276,-12.5557 11.39286,-1.39835 23.13899,0.17663 33.76644,4.50416 10.62745,4.34224 20.1215,11.43702 27.28987,20.40117 7.15366,8.97887 11.98164,19.79767 13.86573,31.13165"
         transform="matrix(0.26538,0,0,0.26538,0.91,0.289666)"
         id="path12403" />
      <path
         style="fill:#000000;fill-opacity:1;fill-rule:evenodd;stroke:#000000;stroke-width:0.789218;stroke-linecap:butt;stroke-linejoin:miter;stroke-miterlimit:4;stroke-opacity:1"
         d="m 232.16766,-151.75745 -5.1255,2.94752 0.01,-5.91562 z m 0,0"
         transform="matrix(0.0440154,0.26538,-0.26538,0.0440154,0.91,0.289666)"
         id="path12405" />
      <g
         clip-path="url(#clip5)"
         clip-rule="nonzero"
         id="g12409">
        <path
           style="fill:none;stroke:#000000;stroke-width:0.727592;stroke-linecap:butt;stroke-linejoin:miter;stroke-miterlimit:4;stroke-dasharray:0.188409, 0.188409;stroke-opacity:1"
           d="M 195.63692,334.18832 194.75375,426.759 28.644656,427.73048"
           transform="matrix(0.26538,0,0,0.26538,0.91,0.289666)"
           id="path12407" />
      </g>
      <g
         clip-path="url(#clip6)"
         clip-rule="nonzero"
         id="g12413">
        <path
           style="fill:#000000;fill-opacity:1;fill-rule:evenodd;stroke:none"
           d="m 7.617188,113.80469 1.332031,-0.78125 0.011719,1.54687 z m 0,0"
           id="path12411" />
      </g>
      <g
         clip-path="url(#clip7)"
         clip-rule="nonzero"
         id="g12417">
        <path
           style="fill:none;stroke:#000000;stroke-width:0.776085;stroke-linecap:butt;stroke-linejoin:miter;stroke-miterlimit:4;stroke-opacity:1"
           d="m -22.770088,-427.87844 -5.036389,2.91442 -0.01005,-5.82897 z m 0,0"
           transform="matrix(-0.26538,0.00155292,-0.00155292,-0.26538,0.91,0.289666)"
           id="path12415" />
      </g>
      <path
         style="fill:none;stroke:#000000;stroke-width:0.75;stroke-linecap:butt;stroke-linejoin:miter;stroke-miterlimit:4;stroke-dasharray:0.75, 0.75;stroke-opacity:1"
         d="m 130.45915,281.81649 -62.601856,-0.6771"
         transform="matrix(0.26538,0,0,0.26538,0.91,0.289666)"
         id="path12419" />
      <path
         style="fill:#000000;fill-opacity:1;fill-rule:evenodd;stroke:#000000;stroke-width:0.799953;stroke-linecap:butt;stroke-linejoin:miter;stroke-miterlimit:4;stroke-opacity:1"
         d="m -67.445562,-280.36215 -5.192796,3.00034 -0.0064,-6.00547 z m 0,0"
         transform="matrix(-0.26538,-0.00288449,0.00288449,-0.26538,0.91,0.289666)"
         id="path12421" />
      <path
         style="fill:none;stroke:#000000;stroke-width:0.75;stroke-linecap:butt;stroke-linejoin:miter;stroke-miterlimit:4;stroke-dasharray:0.75, 0.75;stroke-opacity:1"
         d="m 130.42971,314.36121 -62.601855,-0.6771"
         transform="matrix(0.26538,0,0,0.26538,0.91,0.289666)"
         id="path12423" />
      <path
         style="fill:#000000;fill-opacity:1;fill-rule:evenodd;stroke:#000000;stroke-width:0.799953;stroke-linecap:butt;stroke-linejoin:miter;stroke-miterlimit:4;stroke-opacity:1"
         d="m -67.769823,-312.90334 -5.192796,3.00033 0.0083,-6.00563 z m 0,0"
         transform="matrix(-0.26538,-0.00288449,0.00288449,-0.26538,0.91,0.289666)"
         id="path12425" />
      <path
         style="fill:none;stroke:#000000;stroke-width:0.75;stroke-linecap:butt;stroke-linejoin:miter;stroke-miterlimit:4;stroke-dasharray:3, 1.5;stroke-opacity:1"
         d="M 130.95962,346.25828 68.343036,345.56646"
         transform="matrix(0.26538,0,0,0.26538,0.91,0.289666)"
         id="path12427" />
      <path
         style="fill:#000000;fill-opacity:1;fill-rule:evenodd;stroke:#000000;stroke-width:0.799953;stroke-linecap:butt;stroke-linejoin:miter;stroke-miterlimit:4;stroke-opacity:1"
         d="m -68.631601,-344.79105 -5.192796,3.00034 0.0085,-5.99091 z m 0,0"
         transform="matrix(-0.26538,-0.00288449,0.00288449,-0.26538,0.91,0.289666)"
         id="path12429" />
      <path
         style="fill:none;stroke:#000000;stroke-width:0.75;stroke-linecap:butt;stroke-linejoin:miter;stroke-miterlimit:4;stroke-opacity:1"
         d="M 131.56311,376.58036 68.961254,375.88855"
         transform="matrix(0.26538,0,0,0.26538,0.91,0.289666)"
         id="path12431" />
      <path
         style="fill:#000000;fill-opacity:1;fill-rule:evenodd;stroke:#000000;stroke-width:0.799953;stroke-linecap:butt;stroke-linejoin:miter;stroke-miterlimit:4;stroke-opacity:1"
         d="m -69.579286,-375.10283 -5.192796,3.00033 0.0085,-5.99091 z m 0,0"
         transform="matrix(-0.26538,-0.00288449,0.00288449,-0.26538,0.91,0.289666)"
         id="path12433" />
      <g
         clip-path="url(#clip8)"
         clip-rule="nonzero"
         id="g12437">
        <path
           style="fill:none;stroke:#000000;stroke-width:0.75;stroke-linecap:butt;stroke-linejoin:miter;stroke-miterlimit:4;stroke-dasharray:0.188409, 0.188409;stroke-opacity:1"
           d="M 604.32269,150.97522 C 513.60667,150.357 513.60667,150.357 513.60667,150.357"
           transform="matrix(0.26538,0,0,0.26538,0.91,0.289666)"
           id="path12435" />
      </g>
      <path
         style="fill:#000000;fill-opacity:1;fill-rule:evenodd;stroke:#000000;stroke-width:0.799982;stroke-linecap:butt;stroke-linejoin:miter;stroke-miterlimit:4;stroke-opacity:1"
         d="m -511.1436,-146.8761 -5.19028,3.00853 0.003,-6.00556 z m 0,0"
         transform="matrix(-0.26538,-0.0017996,0.0017996,-0.26538,0.91,0.289666)"
         id="path12439" />
    </g>
  </g>
</svg>
